STARTFONT 2.1
COMMENT
COMMENT Converted from OpenType font "SourceSansPro-Light.otf" by "otf2bdf 3.0".
COMMENT
FONT -FreeType-Source Sans Pro Light-Medium-R-Normal--25-180-100-100-P-109-ISO10646-1
SIZE 18 100 100
FONTBOUNDINGBOX 65 31 -11 -7
STARTPROPERTIES 19
FOUNDRY "FreeType"
FAMILY_NAME "Source Sans Pro Light"
WEIGHT_NAME "Medium"
SLANT "R"
SETWIDTH_NAME "Normal"
ADD_STYLE_NAME ""
PIXEL_SIZE 25
POINT_SIZE 180
RESOLUTION_X 100
RESOLUTION_Y 100
SPACING "P"
AVERAGE_WIDTH 109
CHARSET_REGISTRY "ISO10646"
CHARSET_ENCODING "1"
FONT_ASCENT 24
FONT_DESCENT 6
COPYRIGHT "Copyright 2010, 2012, 2014 Adobe Systems Incorporated (http://www.adobe.com/), with Reserved Font Name Source."
_OTF_FONTFILE "SourceSansPro-Light.otf"
_OTF_PSNAME "SourceSansPro-Light"
ENDPROPERTIES
CHARS 1296
STARTCHAR 0020
ENCODING 32
SWIDTH 200 0
DWIDTH 5 0
BBX 0 0 0 0
BITMAP
ENDCHAR
STARTCHAR 0021
ENCODING 33
SWIDTH 240 0
DWIDTH 6 0
BBX 2 17 2 0
BITMAP
40
40
40
40
40
40
40
40
40
40
40
40
00
00
00
C0
C0
ENDCHAR
STARTCHAR 0022
ENCODING 34
SWIDTH 360 0
DWIDTH 9 0
BBX 5 5 2 12
BITMAP
88
88
88
88
88
ENDCHAR
STARTCHAR 0023
ENCODING 35
SWIDTH 480 0
DWIDTH 12 0
BBX 10 16 1 0
BITMAP
1080
1080
1100
1100
1100
FFC0
2100
2100
2100
2100
FFC0
2200
2200
2200
4200
4200
ENDCHAR
STARTCHAR 0024
ENCODING 36
SWIDTH 480 0
DWIDTH 12 0
BBX 8 20 2 -2
BITMAP
08
08
3C
43
C0
80
80
C0
60
18
06
03
01
01
01
01
C3
3C
08
08
ENDCHAR
STARTCHAR 0025
ENCODING 37
SWIDTH 800 0
DWIDTH 20 0
BBX 18 17 1 0
BITMAP
380400
440800
820800
821000
821000
822000
822000
824700
444880
389040
011040
011040
021040
021040
041040
040880
080700
ENDCHAR
STARTCHAR 0026
ENCODING 38
SWIDTH 560 0
DWIDTH 14 0
BBX 13 17 1 0
BITMAP
0E00
1100
2100
2100
2100
3200
1400
1800
3808
6C10
C410
8220
8120
80C0
C0C0
61B0
3E08
ENDCHAR
STARTCHAR 0027
ENCODING 39
SWIDTH 200 0
DWIDTH 5 0
BBX 1 5 2 12
BITMAP
80
80
80
80
80
ENDCHAR
STARTCHAR 0028
ENCODING 40
SWIDTH 280 0
DWIDTH 7 0
BBX 4 23 2 -5
BITMAP
10
10
20
20
40
40
40
40
80
80
80
80
80
80
80
40
40
40
40
20
20
10
10
ENDCHAR
STARTCHAR 0029
ENCODING 41
SWIDTH 280 0
DWIDTH 7 0
BBX 4 23 1 -5
BITMAP
80
80
40
40
20
20
20
20
10
10
10
10
10
10
10
20
20
20
20
40
40
80
80
ENDCHAR
STARTCHAR 002A
ENCODING 42
SWIDTH 400 0
DWIDTH 10 0
BBX 6 6 2 12
BITMAP
20
20
FC
30
70
48
ENDCHAR
STARTCHAR 002B
ENCODING 43
SWIDTH 480 0
DWIDTH 12 0
BBX 10 11 1 3
BITMAP
0800
0800
0800
0800
0800
FFC0
0800
0800
0800
0800
0800
ENDCHAR
STARTCHAR 002C
ENCODING 44
SWIDTH 200 0
DWIDTH 5 0
BBX 3 6 1 -4
BITMAP
60
60
20
20
40
80
ENDCHAR
STARTCHAR 002D
ENCODING 45
SWIDTH 280 0
DWIDTH 7 0
BBX 5 1 1 6
BITMAP
F8
ENDCHAR
STARTCHAR 002E
ENCODING 46
SWIDTH 200 0
DWIDTH 5 0
BBX 2 2 2 0
BITMAP
C0
C0
ENDCHAR
STARTCHAR 002F
ENCODING 47
SWIDTH 360 0
DWIDTH 9 0
BBX 9 22 0 -4
BITMAP
0080
0100
0100
0100
0200
0200
0200
0400
0400
0400
0800
0800
0800
1000
1000
2000
2000
2000
4000
4000
4000
8000
ENDCHAR
STARTCHAR 0030
ENCODING 48
SWIDTH 480 0
DWIDTH 12 0
BBX 10 16 1 0
BITMAP
1E00
2100
4080
4080
4080
80C0
8040
8040
8040
8040
C0C0
4080
4080
6080
2100
1E00
ENDCHAR
STARTCHAR 0031
ENCODING 49
SWIDTH 480 0
DWIDTH 12 0
BBX 8 16 2 0
BITMAP
18
78
08
08
08
08
08
08
08
08
08
08
08
08
08
FF
ENDCHAR
STARTCHAR 0032
ENCODING 50
SWIDTH 480 0
DWIDTH 12 0
BBX 10 16 1 0
BITMAP
3E00
4300
8180
0080
0080
0080
0180
0100
0300
0200
0400
0800
1000
2000
4000
FFC0
ENDCHAR
STARTCHAR 0033
ENCODING 51
SWIDTH 480 0
DWIDTH 12 0
BBX 10 16 1 0
BITMAP
1E00
6100
0080
0080
0080
0180
0300
1C00
0300
0080
00C0
0040
00C0
8080
C180
3E00
ENDCHAR
STARTCHAR 0034
ENCODING 52
SWIDTH 480 0
DWIDTH 12 0
BBX 11 16 0 0
BITMAP
0180
0180
0280
0680
0480
0880
1080
3080
2080
4080
FFE0
0080
0080
0080
0080
0080
ENDCHAR
STARTCHAR 0035
ENCODING 53
SWIDTH 480 0
DWIDTH 12 0
BBX 10 16 1 0
BITMAP
3F80
6000
4000
4000
4000
4000
5E00
6180
0080
00C0
0040
0040
00C0
8080
C100
3E00
ENDCHAR
STARTCHAR 0036
ENCODING 54
SWIDTH 480 0
DWIDTH 12 0
BBX 10 16 1 0
BITMAP
0F00
30C0
2000
4000
4000
4000
CF00
B180
C0C0
8040
C040
4040
4040
6080
3180
1E00
ENDCHAR
STARTCHAR 0037
ENCODING 55
SWIDTH 480 0
DWIDTH 12 0
BBX 10 16 1 0
BITMAP
FFC0
0080
0080
0100
0200
0200
0200
0400
0400
0400
0800
0800
0800
0800
0800
0800
ENDCHAR
STARTCHAR 0038
ENCODING 56
SWIDTH 480 0
DWIDTH 12 0
BBX 10 16 1 0
BITMAP
1E00
2180
4080
4080
4080
6080
3100
1F00
2300
4180
80C0
8040
8040
C0C0
6180
1E00
ENDCHAR
STARTCHAR 0039
ENCODING 57
SWIDTH 480 0
DWIDTH 12 0
BBX 10 16 1 0
BITMAP
1E00
6300
4180
8080
8080
80C0
8040
40C0
6340
3CC0
0080
0080
0080
0100
C300
3C00
ENDCHAR
STARTCHAR 003A
ENCODING 58
SWIDTH 200 0
DWIDTH 5 0
BBX 2 12 2 0
BITMAP
C0
C0
00
00
00
00
00
00
00
00
C0
C0
ENDCHAR
STARTCHAR 003B
ENCODING 59
SWIDTH 200 0
DWIDTH 5 0
BBX 3 16 1 -4
BITMAP
60
60
00
00
00
00
00
00
00
00
60
60
20
20
40
80
ENDCHAR
STARTCHAR 003C
ENCODING 60
SWIDTH 480 0
DWIDTH 12 0
BBX 10 9 1 4
BITMAP
0040
0380
0C00
7000
8000
6000
1C00
0300
00C0
ENDCHAR
STARTCHAR 003D
ENCODING 61
SWIDTH 480 0
DWIDTH 12 0
BBX 10 6 1 5
BITMAP
FFC0
0000
0000
0000
0000
FFC0
ENDCHAR
STARTCHAR 003E
ENCODING 62
SWIDTH 480 0
DWIDTH 12 0
BBX 10 9 1 4
BITMAP
8000
7000
1C00
0380
0040
0180
0E00
3000
C000
ENDCHAR
STARTCHAR 003F
ENCODING 63
SWIDTH 400 0
DWIDTH 10 0
BBX 8 17 1 0
BITMAP
3C
C2
03
01
01
02
02
04
08
08
10
10
00
00
00
18
18
ENDCHAR
STARTCHAR 0040
ENCODING 64
SWIDTH 800 0
DWIDTH 20 0
BBX 18 20 1 -4
BITMAP
01F800
060600
080100
100080
200080
20E840
411840
420840
421040
841040
841040
841080
841080
427100
418E00
400000
200000
100000
0C1800
03E000
ENDCHAR
STARTCHAR 0041
ENCODING 65
SWIDTH 520 0
DWIDTH 13 0
BBX 13 17 0 0
BITMAP
0200
0500
0500
0500
0880
0880
0880
1040
1040
1040
3FE0
2020
2020
4010
4010
4010
C008
ENDCHAR
STARTCHAR 0042
ENCODING 66
SWIDTH 560 0
DWIDTH 14 0
BBX 11 17 2 0
BITMAP
FF00
C0C0
C040
C040
C040
C040
C080
FF00
C0C0
C060
C020
C020
C020
C020
C060
C0C0
FF00
ENDCHAR
STARTCHAR 0043
ENCODING 67
SWIDTH 560 0
DWIDTH 14 0
BBX 12 17 1 0
BITMAP
07C0
1860
3000
2000
4000
4000
4000
C000
C000
C000
4000
4000
4000
6000
3010
1860
07C0
ENDCHAR
STARTCHAR 0044
ENCODING 68
SWIDTH 600 0
DWIDTH 15 0
BBX 12 17 2 0
BITMAP
FE00
C180
C0C0
C060
C020
C020
C030
C030
C010
C030
C030
C020
C020
C060
C040
C180
FE00
ENDCHAR
STARTCHAR 0045
ENCODING 69
SWIDTH 520 0
DWIDTH 13 0
BBX 10 17 2 0
BITMAP
FF80
C000
C000
C000
C000
C000
C000
FF00
C000
C000
C000
C000
C000
C000
C000
C000
FFC0
ENDCHAR
STARTCHAR 0046
ENCODING 70
SWIDTH 480 0
DWIDTH 12 0
BBX 9 17 2 0
BITMAP
FF80
C000
C000
C000
C000
C000
C000
C000
FF00
C000
C000
C000
C000
C000
C000
C000
C000
ENDCHAR
STARTCHAR 0047
ENCODING 71
SWIDTH 600 0
DWIDTH 15 0
BBX 12 17 1 0
BITMAP
07C0
1830
3010
2000
4000
4000
4000
C000
C000
C1F0
C010
4010
4010
6010
3010
1830
07C0
ENDCHAR
STARTCHAR 0048
ENCODING 72
SWIDTH 640 0
DWIDTH 16 0
BBX 12 17 2 0
BITMAP
C030
C030
C030
C030
C030
C030
C030
FFF0
C030
C030
C030
C030
C030
C030
C030
C030
C030
ENDCHAR
STARTCHAR 0049
ENCODING 73
SWIDTH 240 0
DWIDTH 6 0
BBX 2 17 2 0
BITMAP
C0
C0
C0
C0
C0
C0
C0
C0
C0
C0
C0
C0
C0
C0
C0
C0
C0
ENDCHAR
STARTCHAR 004A
ENCODING 74
SWIDTH 480 0
DWIDTH 12 0
BBX 8 17 1 0
BITMAP
01
01
01
01
01
01
01
01
01
01
01
01
01
01
81
42
3C
ENDCHAR
STARTCHAR 004B
ENCODING 75
SWIDTH 560 0
DWIDTH 14 0
BBX 11 17 2 0
BITMAP
C060
C0C0
C180
C100
C200
C400
CC00
DC00
F200
E300
C100
C180
C080
C0C0
C040
C020
C020
ENDCHAR
STARTCHAR 004C
ENCODING 76
SWIDTH 480 0
DWIDTH 12 0
BBX 9 17 2 0
BITMAP
C000
C000
C000
C000
C000
C000
C000
C000
C000
C000
C000
C000
C000
C000
C000
C000
FF80
ENDCHAR
STARTCHAR 004D
ENCODING 77
SWIDTH 720 0
DWIDTH 18 0
BBX 13 17 2 0
BITMAP
C018
A018
A018
A028
9028
9028
9048
8848
8848
8888
8488
8488
8508
8308
8208
8008
8008
ENDCHAR
STARTCHAR 004E
ENCODING 78
SWIDTH 640 0
DWIDTH 16 0
BBX 11 17 2 0
BITMAP
C020
C020
A020
B020
D020
C820
C820
C420
C620
C220
C320
C120
C0A0
C0A0
C060
C060
C020
ENDCHAR
STARTCHAR 004F
ENCODING 79
SWIDTH 640 0
DWIDTH 16 0
BBX 14 17 1 0
BITMAP
07C0
1860
3010
2018
4008
400C
4004
C004
C004
C004
4004
400C
4008
6008
3010
1860
07C0
ENDCHAR
STARTCHAR 0050
ENCODING 80
SWIDTH 560 0
DWIDTH 14 0
BBX 11 17 2 0
BITMAP
FF00
C180
C040
C040
C060
C060
C040
C040
C180
FF00
C000
C000
C000
C000
C000
C000
C000
ENDCHAR
STARTCHAR 0051
ENCODING 81
SWIDTH 640 0
DWIDTH 16 0
BBX 14 21 1 -4
BITMAP
07C0
1860
3010
2018
4008
400C
4004
C004
C004
C004
4004
400C
4008
2008
3010
1860
07C0
0100
0180
00C0
007C
ENDCHAR
STARTCHAR 0052
ENCODING 82
SWIDTH 560 0
DWIDTH 14 0
BBX 11 17 2 0
BITMAP
FF00
C0C0
C040
C060
C060
C040
C040
C080
FF00
C600
C200
C300
C100
C080
C080
C040
C060
ENDCHAR
STARTCHAR 0053
ENCODING 83
SWIDTH 520 0
DWIDTH 13 0
BBX 11 17 1 0
BITMAP
0F00
30C0
6040
4000
4000
6000
3000
1C00
0700
01C0
0060
0020
0020
0020
C060
70C0
1F00
ENDCHAR
STARTCHAR 0054
ENCODING 84
SWIDTH 520 0
DWIDTH 13 0
BBX 11 17 1 0
BITMAP
FFE0
0400
0400
0400
0400
0400
0400
0400
0400
0400
0400
0400
0400
0400
0400
0400
0400
ENDCHAR
STARTCHAR 0055
ENCODING 85
SWIDTH 640 0
DWIDTH 16 0
BBX 11 17 2 0
BITMAP
C020
C020
C020
C020
C020
C020
C020
C020
C020
C020
C020
C020
4020
4020
6060
30C0
1F00
ENDCHAR
STARTCHAR 0056
ENCODING 86
SWIDTH 480 0
DWIDTH 12 0
BBX 12 17 0 0
BITMAP
8010
4010
4020
4020
2020
2040
2040
3040
1080
1080
1880
0880
0900
0900
0500
0600
0600
ENDCHAR
STARTCHAR 0057
ENCODING 87
SWIDTH 760 0
DWIDTH 19 0
BBX 17 17 1 0
BITMAP
808080
80C080
814080
C14080
414180
412100
422100
422100
222100
221200
241200
241200
341200
140A00
180C00
180C00
180C00
ENDCHAR
STARTCHAR 0058
ENCODING 88
SWIDTH 480 0
DWIDTH 12 0
BBX 10 17 1 0
BITMAP
8040
4080
4080
2100
2100
1200
1A00
0C00
0C00
0C00
1200
1300
2100
6180
4080
8040
8040
ENDCHAR
STARTCHAR 0059
ENCODING 89
SWIDTH 440 0
DWIDTH 11 0
BBX 11 17 0 0
BITMAP
C020
4040
4040
2080
2080
1100
1100
0A00
0A00
0400
0400
0400
0400
0400
0400
0400
0400
ENDCHAR
STARTCHAR 005A
ENCODING 90
SWIDTH 520 0
DWIDTH 13 0
BBX 11 17 1 0
BITMAP
7FE0
0060
0040
0080
0080
0100
0300
0200
0400
0C00
0800
1000
1000
2000
6000
4000
FFE0
ENDCHAR
STARTCHAR 005B
ENCODING 91
SWIDTH 280 0
DWIDTH 7 0
BBX 4 22 2 -4
BITMAP
F0
80
80
80
80
80
80
80
80
80
80
80
80
80
80
80
80
80
80
80
80
F0
ENDCHAR
STARTCHAR 005C
ENCODING 92
SWIDTH 360 0
DWIDTH 9 0
BBX 9 22 0 -4
BITMAP
8000
4000
4000
4000
2000
2000
2000
1000
1000
1000
0800
0800
0800
0400
0400
0400
0200
0200
0100
0100
0100
0080
ENDCHAR
STARTCHAR 005D
ENCODING 93
SWIDTH 280 0
DWIDTH 7 0
BBX 4 22 1 -4
BITMAP
F0
10
10
10
10
10
10
10
10
10
10
10
10
10
10
10
10
10
10
10
10
F0
ENDCHAR
STARTCHAR 005E
ENCODING 94
SWIDTH 480 0
DWIDTH 12 0
BBX 8 9 2 8
BITMAP
18
18
24
24
24
42
42
83
81
ENDCHAR
STARTCHAR 005F
ENCODING 95
SWIDTH 520 0
DWIDTH 13 0
BBX 12 1 0 -3
BITMAP
FFF0
ENDCHAR
STARTCHAR 0060
ENCODING 96
SWIDTH 520 0
DWIDTH 13 0
BBX 4 4 4 15
BITMAP
80
40
60
30
ENDCHAR
STARTCHAR 0061
ENCODING 97
SWIDTH 480 0
DWIDTH 12 0
BBX 9 13 1 0
BITMAP
1F00
6180
0080
0080
0080
0780
1880
6080
4080
C080
C080
4380
3C80
ENDCHAR
STARTCHAR 0062
ENCODING 98
SWIDTH 560 0
DWIDTH 14 0
BBX 10 18 2 0
BITMAP
8000
8000
8000
8000
8000
8F00
A180
C0C0
8040
8040
8040
8040
8040
8040
8040
C080
E100
9E00
ENDCHAR
STARTCHAR 0063
ENCODING 99
SWIDTH 440 0
DWIDTH 11 0
BBX 9 13 1 0
BITMAP
0F00
3080
6000
4000
4000
C000
8000
C000
4000
4000
6000
3080
1F00
ENDCHAR
STARTCHAR 0064
ENCODING 100
SWIDTH 560 0
DWIDTH 14 0
BBX 10 18 1 0
BITMAP
0040
0040
0040
0040
0040
0F40
30C0
6040
4040
4040
C040
8040
C040
C040
4040
6040
31C0
1E40
ENDCHAR
STARTCHAR 0065
ENCODING 101
SWIDTH 480 0
DWIDTH 12 0
BBX 10 13 1 0
BITMAP
0F00
3180
6080
4040
4040
8040
FFC0
8000
C000
4000
6000
3080
1F00
ENDCHAR
STARTCHAR 0066
ENCODING 102
SWIDTH 280 0
DWIDTH 7 0
BBX 6 18 1 0
BITMAP
1C
20
20
60
60
F8
60
60
60
60
60
60
60
60
60
60
60
60
ENDCHAR
STARTCHAR 0067
ENCODING 103
SWIDTH 480 0
DWIDTH 12 0
BBX 11 19 1 -6
BITMAP
1FE0
2100
4080
4080
4080
4080
6080
3100
3E00
4000
4000
6000
3FC0
4060
4020
8020
C040
60C0
1F00
ENDCHAR
STARTCHAR 0068
ENCODING 104
SWIDTH 520 0
DWIDTH 13 0
BBX 9 18 2 0
BITMAP
8000
8000
8000
8000
8000
8F00
B180
C080
8080
8080
8080
8080
8080
8080
8080
8080
8080
8080
ENDCHAR
STARTCHAR 0069
ENCODING 105
SWIDTH 240 0
DWIDTH 6 0
BBX 2 18 2 0
BITMAP
C0
C0
00
00
00
80
80
80
80
80
80
80
80
80
80
80
80
80
ENDCHAR
STARTCHAR 006A
ENCODING 106
SWIDTH 240 0
DWIDTH 6 0
BBX 5 23 -1 -5
BITMAP
18
18
00
00
00
10
10
10
10
10
10
10
10
10
10
10
10
10
10
10
10
10
E0
ENDCHAR
STARTCHAR 006B
ENCODING 107
SWIDTH 480 0
DWIDTH 12 0
BBX 9 18 2 0
BITMAP
8000
8000
8000
8000
8000
8100
8300
8600
8400
8800
9800
BC00
A400
C600
8200
8100
8100
8080
ENDCHAR
STARTCHAR 006C
ENCODING 108
SWIDTH 240 0
DWIDTH 6 0
BBX 2 18 2 0
BITMAP
80
80
80
80
80
80
80
80
80
80
80
80
80
80
80
80
80
40
ENDCHAR
STARTCHAR 006D
ENCODING 109
SWIDTH 800 0
DWIDTH 20 0
BBX 16 13 2 0
BITMAP
8E1E
A123
C1C1
8081
8081
8081
8081
8081
8081
8081
8081
8081
8081
ENDCHAR
STARTCHAR 006E
ENCODING 110
SWIDTH 520 0
DWIDTH 13 0
BBX 9 13 2 0
BITMAP
8F00
B180
C080
8080
8080
8080
8080
8080
8080
8080
8080
8080
8080
ENDCHAR
STARTCHAR 006F
ENCODING 111
SWIDTH 520 0
DWIDTH 13 0
BBX 11 13 1 0
BITMAP
0F00
3080
6040
4060
4020
C020
8020
C020
4020
4060
6040
3080
1F00
ENDCHAR
STARTCHAR 0070
ENCODING 112
SWIDTH 560 0
DWIDTH 14 0
BBX 10 18 2 -5
BITMAP
8F00
A180
C0C0
8040
8040
8040
8040
8040
8040
8040
C080
E100
9E00
8000
8000
8000
8000
8000
ENDCHAR
STARTCHAR 0071
ENCODING 113
SWIDTH 560 0
DWIDTH 14 0
BBX 10 18 1 -5
BITMAP
0F40
30C0
6040
4040
4040
C040
8040
C040
C040
4040
6040
31C0
1E40
0040
0040
0040
0040
0040
ENDCHAR
STARTCHAR 0072
ENCODING 114
SWIDTH 320 0
DWIDTH 8 0
BBX 6 13 2 0
BITMAP
9C
A0
C0
C0
80
80
80
80
80
80
80
80
80
ENDCHAR
STARTCHAR 0073
ENCODING 115
SWIDTH 400 0
DWIDTH 10 0
BBX 8 13 1 0
BITMAP
3C
43
C0
C0
40
70
1C
03
01
01
01
C3
3C
ENDCHAR
STARTCHAR 0074
ENCODING 116
SWIDTH 320 0
DWIDTH 8 0
BBX 7 16 1 0
BITMAP
20
20
20
FC
20
20
20
20
20
20
20
20
20
20
20
1E
ENDCHAR
STARTCHAR 0075
ENCODING 117
SWIDTH 520 0
DWIDTH 13 0
BBX 9 13 2 0
BITMAP
8080
8080
8080
8080
8080
8080
8080
8080
8080
8080
C180
4280
3C80
ENDCHAR
STARTCHAR 0076
ENCODING 118
SWIDTH 440 0
DWIDTH 11 0
BBX 10 13 0 0
BITMAP
C040
4040
4040
6080
2080
2080
1100
1100
1100
0A00
0A00
0A00
0400
ENDCHAR
STARTCHAR 0077
ENCODING 119
SWIDTH 680 0
DWIDTH 17 0
BBX 15 13 1 0
BITMAP
8102
8282
8282
4282
4284
4444
4444
2444
2448
2828
2828
1830
1830
ENDCHAR
STARTCHAR 0078
ENCODING 120
SWIDTH 400 0
DWIDTH 10 0
BBX 9 13 1 0
BITMAP
8100
4300
4200
2400
3400
1800
1800
1800
2400
6600
4200
8100
8180
ENDCHAR
STARTCHAR 0079
ENCODING 121
SWIDTH 440 0
DWIDTH 11 0
BBX 10 18 0 -5
BITMAP
C040
4040
4040
2080
2080
3080
1100
1100
0900
0A00
0A00
0600
0400
0400
0400
0800
1800
7000
ENDCHAR
STARTCHAR 007A
ENCODING 122
SWIDTH 400 0
DWIDTH 10 0
BBX 8 13 1 0
BITMAP
FF
03
02
04
04
08
18
10
20
60
40
80
FF
ENDCHAR
STARTCHAR 007B
ENCODING 123
SWIDTH 280 0
DWIDTH 7 0
BBX 5 22 1 -4
BITMAP
18
20
20
20
20
20
20
20
20
20
60
C0
20
20
20
20
20
20
20
20
20
18
ENDCHAR
STARTCHAR 007C
ENCODING 124
SWIDTH 240 0
DWIDTH 6 0
BBX 1 25 2 -6
BITMAP
80
80
80
80
80
80
80
80
80
80
80
80
80
80
80
80
80
80
80
80
80
80
80
80
80
ENDCHAR
STARTCHAR 007D
ENCODING 125
SWIDTH 280 0
DWIDTH 7 0
BBX 5 22 1 -4
BITMAP
C0
20
20
20
20
20
20
20
20
20
30
18
20
20
20
20
20
20
20
20
20
C0
ENDCHAR
STARTCHAR 007E
ENCODING 126
SWIDTH 480 0
DWIDTH 12 0
BBX 10 3 1 7
BITMAP
7000
8C40
0380
ENDCHAR
STARTCHAR 00A0
ENCODING 160
SWIDTH 200 0
DWIDTH 5 0
BBX 0 0 0 0
BITMAP
ENDCHAR
STARTCHAR 00A1
ENCODING 161
SWIDTH 240 0
DWIDTH 6 0
BBX 2 17 2 -4
BITMAP
C0
C0
00
00
00
40
40
40
40
40
40
40
40
40
40
40
40
ENDCHAR
STARTCHAR 00A2
ENCODING 162
SWIDTH 480 0
DWIDTH 12 0
BBX 9 18 2 -1
BITMAP
0800
0800
0800
1E00
6980
4800
8800
8800
8800
8800
8800
8800
C800
6980
1E00
0800
0800
0800
ENDCHAR
STARTCHAR 00A3
ENCODING 163
SWIDTH 480 0
DWIDTH 12 0
BBX 10 16 1 0
BITMAP
0F00
1080
2000
2000
2000
2000
2000
3000
FF00
1000
1000
1000
1000
2000
2000
FFC0
ENDCHAR
STARTCHAR 00A4
ENCODING 164
SWIDTH 480 0
DWIDTH 12 0
BBX 10 11 1 3
BITMAP
8040
9EC0
6180
4080
4080
C080
C080
4080
4080
6180
9E40
ENDCHAR
STARTCHAR 00A5
ENCODING 165
SWIDTH 480 0
DWIDTH 12 0
BBX 10 16 1 0
BITMAP
8040
4080
4080
2100
2100
1200
1200
0C00
FFC0
0C00
0C00
FFC0
0C00
0C00
0C00
0C00
ENDCHAR
STARTCHAR 00A6
ENCODING 166
SWIDTH 240 0
DWIDTH 6 0
BBX 1 25 2 -6
BITMAP
80
80
80
80
80
80
80
80
80
80
80
80
00
80
80
80
80
80
80
80
80
80
80
80
80
ENDCHAR
STARTCHAR 00A7
ENCODING 167
SWIDTH 480 0
DWIDTH 12 0
BBX 10 18 1 -1
BITMAP
1E00
2100
2000
2000
3000
3C00
4700
8180
80C0
4040
6040
1880
0700
0100
0100
0100
6100
3E00
ENDCHAR
STARTCHAR 00A8
ENCODING 168
SWIDTH 520 0
DWIDTH 13 0
BBX 6 2 4 15
BITMAP
8C
8C
ENDCHAR
STARTCHAR 00A9
ENCODING 169
SWIDTH 760 0
DWIDTH 19 0
BBX 16 17 1 0
BITMAP
03C0
0C38
100C
2002
41C2
4621
8401
8801
8801
8801
8801
4401
4631
21C2
3004
1818
07E0
ENDCHAR
STARTCHAR 00AA
ENCODING 170
SWIDTH 320 0
DWIDTH 8 0
BBX 6 8 1 10
BITMAP
78
04
04
3C
44
84
84
7C
ENDCHAR
STARTCHAR 00AB
ENCODING 171
SWIDTH 400 0
DWIDTH 10 0
BBX 8 9 1 2
BITMAP
11
22
64
48
88
C8
64
22
11
ENDCHAR
STARTCHAR 00AC
ENCODING 172
SWIDTH 480 0
DWIDTH 12 0
BBX 10 6 1 3
BITMAP
FFC0
0040
0040
0040
0040
0040
ENDCHAR
STARTCHAR 00AD
ENCODING 173
SWIDTH 280 0
DWIDTH 7 0
BBX 5 1 1 6
BITMAP
F8
ENDCHAR
STARTCHAR 00AE
ENCODING 174
SWIDTH 400 0
DWIDTH 10 0
BBX 10 10 0 8
BITMAP
0C00
3300
5C80
9280
9240
9C40
9280
5280
2100
1E00
ENDCHAR
STARTCHAR 00AF
ENCODING 175
SWIDTH 520 0
DWIDTH 13 0
BBX 6 1 4 15
BITMAP
FC
ENDCHAR
STARTCHAR 00B0
ENCODING 176
SWIDTH 320 0
DWIDTH 8 0
BBX 6 6 1 11
BITMAP
78
88
84
84
C8
30
ENDCHAR
STARTCHAR 00B1
ENCODING 177
SWIDTH 480 0
DWIDTH 12 0
BBX 10 14 1 0
BITMAP
0800
0800
0800
0800
0800
FFC0
0800
0800
0800
0800
0800
0000
0000
FFC0
ENDCHAR
STARTCHAR 00B2
ENCODING 178
SWIDTH 360 0
DWIDTH 9 0
BBX 7 10 1 10
BITMAP
38
C4
04
04
04
08
10
30
40
FE
ENDCHAR
STARTCHAR 00B3
ENCODING 179
SWIDTH 360 0
DWIDTH 9 0
BBX 7 10 1 10
BITMAP
38
C4
04
04
38
04
02
02
C4
38
ENDCHAR
STARTCHAR 00B4
ENCODING 180
SWIDTH 520 0
DWIDTH 13 0
BBX 3 4 6 15
BITMAP
20
60
40
80
ENDCHAR
STARTCHAR 00B5
ENCODING 181
SWIDTH 560 0
DWIDTH 14 0
BBX 11 16 2 -4
BITMAP
8080
8080
8080
8080
8080
8080
8080
8080
C080
C180
C280
BCE0
8000
8000
8000
8000
ENDCHAR
STARTCHAR 00B6
ENCODING 182
SWIDTH 520 0
DWIDTH 13 0
BBX 9 18 1 -1
BITMAP
1E80
7E80
7E80
FE80
FE80
FE80
FE80
FE80
7E80
3E80
0080
0080
0080
0080
0080
0080
0080
0080
ENDCHAR
STARTCHAR 00B7
ENCODING 183
SWIDTH 200 0
DWIDTH 5 0
BBX 2 2 2 7
BITMAP
C0
C0
ENDCHAR
STARTCHAR 00B8
ENCODING 184
SWIDTH 520 0
DWIDTH 13 0
BBX 4 6 5 -5
BITMAP
20
40
60
10
20
C0
ENDCHAR
STARTCHAR 00B9
ENCODING 185
SWIDTH 360 0
DWIDTH 9 0
BBX 3 10 2 10
BITMAP
20
E0
20
20
20
20
20
20
20
20
ENDCHAR
STARTCHAR 00BA
ENCODING 186
SWIDTH 360 0
DWIDTH 9 0
BBX 7 8 1 10
BITMAP
38
44
82
82
82
82
44
38
ENDCHAR
STARTCHAR 00BB
ENCODING 187
SWIDTH 400 0
DWIDTH 10 0
BBX 8 9 1 2
BITMAP
88
44
26
12
11
12
26
44
88
ENDCHAR
STARTCHAR 00BC
ENCODING 188
SWIDTH 760 0
DWIDTH 19 0
BBX 16 17 2 0
BITMAP
6010
E010
2020
2020
2040
2080
2080
2106
210A
220A
0212
0412
0422
087F
0802
1002
1002
ENDCHAR
STARTCHAR 00BD
ENCODING 189
SWIDTH 800 0
DWIDTH 20 0
BBX 16 17 2 0
BITMAP
6010
E020
2020
2040
2080
2080
2100
211E
2223
2201
0401
0401
0802
0804
1008
1010
203F
ENDCHAR
STARTCHAR 00BE
ENCODING 190
SWIDTH 800 0
DWIDTH 20 0
BBX 17 17 1 0
BITMAP
380400
C40400
040800
0C0800
381000
041000
022000
022100
C44300
384500
008900
008900
011100
021F80
020100
040100
040100
ENDCHAR
STARTCHAR 00BF
ENCODING 191
SWIDTH 400 0
DWIDTH 10 0
BBX 8 18 1 -5
BITMAP
08
18
00
00
00
08
08
08
10
30
20
40
40
80
80
C1
63
3C
ENDCHAR
STARTCHAR 00C0
ENCODING 192
SWIDTH 520 0
DWIDTH 13 0
BBX 13 22 0 0
BITMAP
0800
0C00
0200
0000
0000
0200
0500
0500
0500
0880
0880
0880
1040
1040
1040
3FE0
2020
2020
4010
4010
4010
C008
ENDCHAR
STARTCHAR 00C1
ENCODING 193
SWIDTH 520 0
DWIDTH 13 0
BBX 13 22 0 0
BITMAP
0080
0180
0300
0000
0000
0200
0500
0500
0500
0880
0880
0880
1040
1040
1040
3FE0
2020
2020
4010
4010
4010
C008
ENDCHAR
STARTCHAR 00C2
ENCODING 194
SWIDTH 520 0
DWIDTH 13 0
BBX 13 22 0 0
BITMAP
0200
0500
0880
1040
0000
0200
0500
0500
0500
0880
0880
0880
1040
1040
1040
3FE0
2020
2020
4010
4010
4010
C008
ENDCHAR
STARTCHAR 00C3
ENCODING 195
SWIDTH 520 0
DWIDTH 13 0
BBX 13 21 0 0
BITMAP
1C20
1240
21C0
0000
0200
0500
0500
0500
0880
0880
0880
1040
1040
1040
3FE0
2020
2020
4010
4010
4010
C008
ENDCHAR
STARTCHAR 00C4
ENCODING 196
SWIDTH 520 0
DWIDTH 13 0
BBX 13 21 0 0
BITMAP
18C0
18C0
0000
0000
0200
0500
0500
0500
0880
0880
0880
1040
1040
1040
3FE0
2020
2020
4010
4010
4010
C008
ENDCHAR
STARTCHAR 00C5
ENCODING 197
SWIDTH 520 0
DWIDTH 13 0
BBX 13 22 0 0
BITMAP
0200
0D80
0880
0880
0700
0200
0500
0500
0500
0880
0880
0880
1040
1040
1040
3FE0
2020
2020
4010
4010
4010
C008
ENDCHAR
STARTCHAR 00C6
ENCODING 198
SWIDTH 800 0
DWIDTH 20 0
BBX 18 17 1 0
BITMAP
00FFC0
00C000
014000
014000
024000
024000
044000
047F80
084000
084000
1FC000
204000
204000
404000
404000
804000
807FC0
ENDCHAR
STARTCHAR 00C7
ENCODING 199
SWIDTH 560 0
DWIDTH 14 0
BBX 12 22 1 -5
BITMAP
07C0
1860
3000
2000
4000
4000
4000
C000
C000
C000
4000
4000
4000
6000
3010
1860
07C0
0100
0300
0080
0080
0700
ENDCHAR
STARTCHAR 00C8
ENCODING 200
SWIDTH 520 0
DWIDTH 13 0
BBX 10 21 2 1
BITMAP
1000
0800
0400
0000
FF80
C000
C000
C000
C000
C000
C000
FF00
C000
C000
C000
C000
C000
C000
C000
C000
FFC0
ENDCHAR
STARTCHAR 00C9
ENCODING 201
SWIDTH 520 0
DWIDTH 13 0
BBX 10 21 2 1
BITMAP
0200
0400
0800
0000
FF80
C000
C000
C000
C000
C000
C000
FF00
C000
C000
C000
C000
C000
C000
C000
C000
FFC0
ENDCHAR
STARTCHAR 00CA
ENCODING 202
SWIDTH 520 0
DWIDTH 13 0
BBX 10 22 2 0
BITMAP
0C00
1200
2100
0000
0000
FF80
C000
C000
C000
C000
C000
C000
FF00
C000
C000
C000
C000
C000
C000
C000
C000
FFC0
ENDCHAR
STARTCHAR 00CB
ENCODING 203
SWIDTH 520 0
DWIDTH 13 0
BBX 10 21 2 0
BITMAP
2100
2100
0000
0000
FF80
C000
C000
C000
C000
C000
C000
FF00
C000
C000
C000
C000
C000
C000
C000
C000
FFC0
ENDCHAR
STARTCHAR 00CC
ENCODING 204
SWIDTH 240 0
DWIDTH 6 0
BBX 3 21 1 1
BITMAP
80
40
20
00
60
60
60
60
60
60
60
60
60
60
60
60
60
60
60
60
60
ENDCHAR
STARTCHAR 00CD
ENCODING 205
SWIDTH 240 0
DWIDTH 6 0
BBX 3 21 2 1
BITMAP
20
40
80
00
C0
C0
C0
C0
C0
C0
C0
C0
C0
C0
C0
C0
C0
C0
C0
C0
C0
ENDCHAR
STARTCHAR 00CE
ENCODING 206
SWIDTH 240 0
DWIDTH 6 0
BBX 6 22 0 0
BITMAP
30
48
84
00
00
30
30
30
30
30
30
30
30
30
30
30
30
30
30
30
30
30
ENDCHAR
STARTCHAR 00CF
ENCODING 207
SWIDTH 240 0
DWIDTH 6 0
BBX 6 21 0 0
BITMAP
84
84
00
00
30
30
30
30
30
30
30
30
30
30
30
30
30
30
30
30
30
ENDCHAR
STARTCHAR 00D0
ENCODING 208
SWIDTH 640 0
DWIDTH 16 0
BBX 13 17 1 0
BITMAP
3F80
20E0
2030
2010
2018
2008
2008
2008
FE08
2008
2008
2008
2018
2010
2030
2060
3F80
ENDCHAR
STARTCHAR 00D1
ENCODING 209
SWIDTH 640 0
DWIDTH 16 0
BBX 11 21 2 0
BITMAP
1C40
2640
2180
0000
C020
C020
A020
B020
D020
C820
C820
C420
C620
C220
C320
C120
C0A0
C0A0
C060
C060
C020
ENDCHAR
STARTCHAR 00D2
ENCODING 210
SWIDTH 640 0
DWIDTH 16 0
BBX 14 21 1 1
BITMAP
0400
0200
0100
0000
07C0
1860
3010
2018
4008
400C
4004
C004
C004
C004
4004
400C
4008
6008
3010
1860
07C0
ENDCHAR
STARTCHAR 00D3
ENCODING 211
SWIDTH 640 0
DWIDTH 16 0
BBX 14 21 1 1
BITMAP
00C0
0180
0200
0000
07C0
1860
3010
2018
4008
400C
4004
C004
C004
C004
4004
400C
4008
6008
3010
1860
07C0
ENDCHAR
STARTCHAR 00D4
ENCODING 212
SWIDTH 640 0
DWIDTH 16 0
BBX 14 21 1 0
BITMAP
0300
0480
0840
0000
07C0
1860
3010
2018
4008
400C
4004
C004
C004
C004
4004
400C
4008
6008
3010
1860
07C0
ENDCHAR
STARTCHAR 00D5
ENCODING 213
SWIDTH 640 0
DWIDTH 16 0
BBX 14 21 1 0
BITMAP
0E20
1320
10C0
0000
07C0
1860
3010
2018
4008
400C
4004
C004
C004
C004
4004
400C
4008
6008
3010
1860
07C0
ENDCHAR
STARTCHAR 00D6
ENCODING 214
SWIDTH 640 0
DWIDTH 16 0
BBX 14 20 1 0
BITMAP
0C40
0840
0000
07C0
1860
3010
2018
4008
400C
4004
C004
C004
C004
4004
400C
4008
6008
3010
1860
07C0
ENDCHAR
STARTCHAR 00D7
ENCODING 215
SWIDTH 480 0
DWIDTH 12 0
BBX 9 9 1 3
BITMAP
8080
4080
2100
1200
0C00
0C00
1200
2100
4080
ENDCHAR
STARTCHAR 00D8
ENCODING 216
SWIDTH 640 0
DWIDTH 16 0
BBX 14 17 1 0
BITMAP
07C8
1868
3018
2028
4028
404C
4084
4104
C104
C204
4404
480C
4808
7008
3010
5860
47C0
ENDCHAR
STARTCHAR 00D9
ENCODING 217
SWIDTH 640 0
DWIDTH 16 0
BBX 11 21 2 1
BITMAP
0800
0400
0200
0000
C020
C020
C020
C020
C020
C020
C020
C020
C020
C020
C020
C020
4020
4020
6060
30C0
1F00
ENDCHAR
STARTCHAR 00DA
ENCODING 218
SWIDTH 640 0
DWIDTH 16 0
BBX 11 21 2 1
BITMAP
0100
0200
0400
0000
C020
C020
C020
C020
C020
C020
C020
C020
C020
C020
C020
C020
4020
4020
6060
30C0
1F00
ENDCHAR
STARTCHAR 00DB
ENCODING 219
SWIDTH 640 0
DWIDTH 16 0
BBX 11 22 2 0
BITMAP
0600
0B00
1080
0000
0000
C020
C020
C020
C020
C020
C020
C020
C020
C020
C020
C020
C020
4020
4020
6060
30C0
1F00
ENDCHAR
STARTCHAR 00DC
ENCODING 220
SWIDTH 640 0
DWIDTH 16 0
BBX 11 21 2 0
BITMAP
1080
1080
0000
0000
C020
C020
C020
C020
C020
C020
C020
C020
C020
C020
C020
C020
4020
4020
6060
30C0
1F00
ENDCHAR
STARTCHAR 00DD
ENCODING 221
SWIDTH 440 0
DWIDTH 11 0
BBX 11 22 0 0
BITMAP
0100
0300
0600
0000
0000
C020
4040
4040
2080
2080
1100
1100
0A00
0A00
0400
0400
0400
0400
0400
0400
0400
0400
ENDCHAR
STARTCHAR 00DE
ENCODING 222
SWIDTH 560 0
DWIDTH 14 0
BBX 11 17 2 0
BITMAP
C000
C000
C000
FF00
C0C0
C040
C060
C020
C020
C060
C040
C080
FF00
C000
C000
C000
C000
ENDCHAR
STARTCHAR 00DF
ENCODING 223
SWIDTH 560 0
DWIDTH 14 0
BBX 11 18 2 0
BITMAP
1E00
6300
4100
C100
8100
8200
8600
8400
8400
8400
8600
8180
80C0
8060
8020
8020
8840
8780
ENDCHAR
STARTCHAR 00E0
ENCODING 224
SWIDTH 480 0
DWIDTH 12 0
BBX 9 19 1 0
BITMAP
1000
1800
0C00
0400
0000
0000
1F00
6180
0080
0080
0080
0780
1880
6080
4080
C080
C080
4380
3C80
ENDCHAR
STARTCHAR 00E1
ENCODING 225
SWIDTH 480 0
DWIDTH 12 0
BBX 9 19 1 0
BITMAP
0100
0300
0600
0800
0000
0000
1F00
6180
0080
0080
0080
0780
1880
6080
4080
C080
C080
4380
3C80
ENDCHAR
STARTCHAR 00E2
ENCODING 226
SWIDTH 480 0
DWIDTH 12 0
BBX 9 19 1 0
BITMAP
0C00
0A00
1100
2080
0000
0000
1F00
6180
0080
0080
0080
0780
1880
6080
4080
C080
C080
4380
3C80
ENDCHAR
STARTCHAR 00E3
ENCODING 227
SWIDTH 480 0
DWIDTH 12 0
BBX 9 19 1 0
BITMAP
3000
2C80
4480
4300
0000
0000
1F00
6180
0080
0080
0080
0780
1880
6080
4080
C080
C080
4380
3C80
ENDCHAR
STARTCHAR 00E4
ENCODING 228
SWIDTH 480 0
DWIDTH 12 0
BBX 9 18 1 0
BITMAP
3100
3100
0000
0000
0000
1F00
6180
0080
0080
0080
0780
1880
6080
4080
C080
C080
4380
3C80
ENDCHAR
STARTCHAR 00E5
ENCODING 229
SWIDTH 480 0
DWIDTH 12 0
BBX 9 19 1 0
BITMAP
0E00
1100
1100
1100
0E00
0000
1F00
6180
0080
0080
0080
0780
1880
6080
4080
C080
C080
4380
3C80
ENDCHAR
STARTCHAR 00E6
ENCODING 230
SWIDTH 800 0
DWIDTH 20 0
BBX 17 13 2 0
BITMAP
3C3C00
C26200
018100
018100
018080
070080
39FF80
410000
818000
808000
81C000
C66100
783E00
ENDCHAR
STARTCHAR 00E7
ENCODING 231
SWIDTH 440 0
DWIDTH 11 0
BBX 10 18 1 -5
BITMAP
0F00
3080
6000
4000
4000
C000
8000
C000
C000
4000
6000
30C0
1F00
0400
0400
0200
0200
0C00
ENDCHAR
STARTCHAR 00E8
ENCODING 232
SWIDTH 480 0
DWIDTH 12 0
BBX 10 19 1 0
BITMAP
1000
1800
0C00
0600
0000
0000
0F00
3180
6080
4040
4040
8040
FFC0
8000
C000
4000
6000
3080
1F00
ENDCHAR
STARTCHAR 00E9
ENCODING 233
SWIDTH 480 0
DWIDTH 12 0
BBX 10 19 1 0
BITMAP
0100
0300
0600
0C00
0000
0000
0F00
3180
6080
4040
4040
8040
FFC0
8000
C000
4000
6000
3080
1F00
ENDCHAR
STARTCHAR 00EA
ENCODING 234
SWIDTH 480 0
DWIDTH 12 0
BBX 10 19 1 0
BITMAP
0400
0A00
1100
2080
0000
0000
0F00
3180
6080
4040
4040
8040
FFC0
8000
C000
4000
6000
3080
1F00
ENDCHAR
STARTCHAR 00EB
ENCODING 235
SWIDTH 480 0
DWIDTH 12 0
BBX 10 18 1 0
BITMAP
1100
3180
0000
0000
0000
0F00
3180
6080
4040
4040
8040
FFC0
8000
C000
4000
6000
3080
1F00
ENDCHAR
STARTCHAR 00EC
ENCODING 236
SWIDTH 240 0
DWIDTH 6 0
BBX 4 18 0 1
BITMAP
C0
20
10
00
00
20
20
20
20
20
20
20
20
20
20
20
20
20
ENDCHAR
STARTCHAR 00ED
ENCODING 237
SWIDTH 240 0
DWIDTH 6 0
BBX 3 18 2 1
BITMAP
20
40
80
00
00
80
80
80
80
80
80
80
80
80
80
80
80
80
ENDCHAR
STARTCHAR 00EE
ENCODING 238
SWIDTH 240 0
DWIDTH 6 0
BBX 7 19 -1 0
BITMAP
18
2C
46
82
00
00
10
10
10
10
10
10
10
10
10
10
10
10
10
ENDCHAR
STARTCHAR 00EF
ENCODING 239
SWIDTH 240 0
DWIDTH 6 0
BBX 6 18 0 0
BITMAP
8C
8C
00
00
00
20
20
20
20
20
20
20
20
20
20
20
20
20
ENDCHAR
STARTCHAR 00F0
ENCODING 240
SWIDTH 520 0
DWIDTH 13 0
BBX 11 18 1 0
BITMAP
1000
0CC0
0700
0500
1980
0080
0040
1F40
30C0
4060
4020
4020
C020
4060
4040
6040
3080
1F00
ENDCHAR
STARTCHAR 00F1
ENCODING 241
SWIDTH 520 0
DWIDTH 13 0
BBX 9 19 2 0
BITMAP
3080
4880
4480
4300
0000
0000
8F00
B180
C080
8080
8080
8080
8080
8080
8080
8080
8080
8080
8080
ENDCHAR
STARTCHAR 00F2
ENCODING 242
SWIDTH 520 0
DWIDTH 13 0
BBX 11 19 1 0
BITMAP
1000
1800
0C00
0200
0000
0000
0F00
3080
6040
4060
4020
C020
8020
C020
4020
4060
6040
3080
1F00
ENDCHAR
STARTCHAR 00F3
ENCODING 243
SWIDTH 520 0
DWIDTH 13 0
BBX 11 19 1 0
BITMAP
0100
0100
0200
0400
0000
0000
0F00
3080
6040
4060
4020
C020
8020
C020
4020
4060
6040
3080
1F00
ENDCHAR
STARTCHAR 00F4
ENCODING 244
SWIDTH 520 0
DWIDTH 13 0
BBX 11 19 1 0
BITMAP
0600
0A00
1100
2080
0000
0000
0F00
3080
6040
4060
4020
C020
8020
C020
4020
4060
6040
3080
1F00
ENDCHAR
STARTCHAR 00F5
ENCODING 245
SWIDTH 520 0
DWIDTH 13 0
BBX 11 19 1 0
BITMAP
1840
2440
2280
0180
0000
0000
0F00
3080
6040
4060
4020
C020
8020
C020
4020
4060
6040
3080
1F00
ENDCHAR
STARTCHAR 00F6
ENCODING 246
SWIDTH 520 0
DWIDTH 13 0
BBX 11 18 1 0
BITMAP
1180
1180
0000
0000
0000
0F00
3080
6040
4060
4020
C020
8020
C020
4020
4060
6040
3080
1F00
ENDCHAR
STARTCHAR 00F7
ENCODING 247
SWIDTH 480 0
DWIDTH 12 0
BBX 10 11 1 3
BITMAP
0C00
0C00
0000
0000
0000
FFC0
0000
0000
0000
0C00
0C00
ENDCHAR
STARTCHAR 00F8
ENCODING 248
SWIDTH 520 0
DWIDTH 13 0
BBX 11 13 1 0
BITMAP
0F20
30C0
60C0
40E0
4120
C220
8420
C820
C820
5060
6040
7080
9F00
ENDCHAR
STARTCHAR 00F9
ENCODING 249
SWIDTH 520 0
DWIDTH 13 0
BBX 9 19 2 0
BITMAP
2000
3000
1800
0400
0000
0000
8080
8080
8080
8080
8080
8080
8080
8080
8080
8080
C180
4280
3C80
ENDCHAR
STARTCHAR 00FA
ENCODING 250
SWIDTH 520 0
DWIDTH 13 0
BBX 9 19 2 0
BITMAP
0200
0600
0C00
1800
0000
0000
8080
8080
8080
8080
8080
8080
8080
8080
8080
8080
C180
4280
3C80
ENDCHAR
STARTCHAR 00FB
ENCODING 251
SWIDTH 520 0
DWIDTH 13 0
BBX 9 19 2 0
BITMAP
0C00
1400
2200
4100
0000
0000
8080
8080
8080
8080
8080
8080
8080
8080
8080
8080
C180
4280
3C80
ENDCHAR
STARTCHAR 00FC
ENCODING 252
SWIDTH 520 0
DWIDTH 13 0
BBX 9 18 2 0
BITMAP
2300
2300
0000
0000
0000
8080
8080
8080
8080
8080
8080
8080
8080
8080
8080
C180
4280
3C80
ENDCHAR
STARTCHAR 00FD
ENCODING 253
SWIDTH 440 0
DWIDTH 11 0
BBX 10 23 0 -4
BITMAP
0100
0200
0400
0000
0000
C040
4040
4040
2080
2080
3080
1100
1100
0900
0A00
0A00
0600
0400
0400
0400
0800
1800
7000
ENDCHAR
STARTCHAR 00FE
ENCODING 254
SWIDTH 560 0
DWIDTH 14 0
BBX 10 23 2 -5
BITMAP
8000
8000
8000
8000
8000
8F00
A180
C0C0
8040
8040
8040
8040
8040
8040
8040
C080
E100
9E00
8000
8000
8000
8000
8000
ENDCHAR
STARTCHAR 00FF
ENCODING 255
SWIDTH 440 0
DWIDTH 11 0
BBX 10 23 0 -5
BITMAP
1180
1180
0000
0000
0000
C040
4040
4040
2080
2080
3080
1100
1100
0900
0A00
0A00
0600
0400
0400
0400
0800
1800
7000
ENDCHAR
STARTCHAR 0100
ENCODING 256
SWIDTH 520 0
DWIDTH 13 0
BBX 13 20 0 0
BITMAP
1FC0
0000
0000
0200
0500
0500
0500
0880
0880
0880
1040
1040
1040
3FE0
2020
2020
4010
4010
4010
C008
ENDCHAR
STARTCHAR 0101
ENCODING 257
SWIDTH 480 0
DWIDTH 12 0
BBX 9 16 1 0
BITMAP
3F00
0000
0000
1F00
6180
0080
0080
0080
0780
1880
6080
4080
C080
C080
4380
3C80
ENDCHAR
STARTCHAR 0102
ENCODING 258
SWIDTH 520 0
DWIDTH 13 0
BBX 13 21 0 0
BITMAP
1040
0880
0700
0000
0200
0500
0500
0500
0880
0880
0880
1040
1040
1040
3FE0
2020
2020
4010
4010
4010
C008
ENDCHAR
STARTCHAR 0103
ENCODING 259
SWIDTH 480 0
DWIDTH 12 0
BBX 9 18 1 0
BITMAP
2080
2180
1E00
0000
0000
1F00
6180
0080
0080
0080
0780
1880
6080
4080
C080
C080
4380
3C80
ENDCHAR
STARTCHAR 0104
ENCODING 260
SWIDTH 520 0
DWIDTH 13 0
BBX 14 22 0 -5
BITMAP
0200
0500
0500
0500
0880
0880
0880
1040
1040
1040
3FE0
2020
2020
4010
4010
4010
C008
0010
0010
0020
0020
001C
ENDCHAR
STARTCHAR 0105
ENCODING 261
SWIDTH 480 0
DWIDTH 12 0
BBX 10 18 1 -5
BITMAP
1F00
6180
0080
0080
0080
0780
1880
6080
4080
C080
C080
4380
3C80
0100
0100
0200
0200
01C0
ENDCHAR
STARTCHAR 0106
ENCODING 262
SWIDTH 560 0
DWIDTH 14 0
BBX 12 21 1 1
BITMAP
00C0
0100
0200
0000
07C0
1860
3000
2000
4000
4000
4000
C000
C000
C000
4000
4000
4000
6000
3010
1860
07C0
ENDCHAR
STARTCHAR 0107
ENCODING 263
SWIDTH 440 0
DWIDTH 11 0
BBX 9 18 1 1
BITMAP
0100
0200
0400
0000
0000
0F00
3080
6000
4000
4000
C000
8000
C000
4000
4000
6000
3080
1F00
ENDCHAR
STARTCHAR 0108
ENCODING 264
SWIDTH 560 0
DWIDTH 14 0
BBX 12 21 1 0
BITMAP
0300
0480
0840
0000
07C0
1860
3000
2000
4000
4000
4000
C000
C000
C000
4000
4000
4000
6000
3010
1860
07C0
ENDCHAR
STARTCHAR 0109
ENCODING 265
SWIDTH 440 0
DWIDTH 11 0
BBX 9 19 1 0
BITMAP
0600
0B00
1100
2080
0000
0000
0F00
3080
6000
4000
4000
C000
8000
C000
4000
4000
6000
3080
1F00
ENDCHAR
STARTCHAR 010A
ENCODING 266
SWIDTH 560 0
DWIDTH 14 0
BBX 12 20 1 0
BITMAP
0300
0300
0000
07C0
1860
3000
2000
4000
4000
4000
C000
C000
C000
4000
4000
4000
6000
3010
1860
07C0
ENDCHAR
STARTCHAR 010B
ENCODING 267
SWIDTH 440 0
DWIDTH 11 0
BBX 9 18 1 0
BITMAP
0600
0600
0000
0000
0000
0F00
3080
6000
4000
4000
C000
8000
C000
4000
4000
6000
3080
1F00
ENDCHAR
STARTCHAR 010C
ENCODING 268
SWIDTH 560 0
DWIDTH 14 0
BBX 12 21 1 0
BITMAP
0840
0480
0300
0000
07C0
1860
3000
2000
4000
4000
4000
C000
C000
C000
4000
4000
4000
6000
3010
1860
07C0
ENDCHAR
STARTCHAR 010D
ENCODING 269
SWIDTH 440 0
DWIDTH 11 0
BBX 9 19 1 0
BITMAP
2080
1100
0B00
0600
0000
0000
0F00
3080
6000
4000
4000
C000
8000
C000
4000
4000
6000
3080
1F00
ENDCHAR
STARTCHAR 010E
ENCODING 270
SWIDTH 600 0
DWIDTH 15 0
BBX 12 21 2 0
BITMAP
1100
0A00
0400
0000
FE00
C180
C0C0
C060
C020
C020
C030
C030
C010
C030
C030
C020
C020
C060
C040
C180
FE00
ENDCHAR
STARTCHAR 010F
ENCODING 271
SWIDTH 560 0
DWIDTH 14 0
BBX 13 19 1 0
BITMAP
0008
0048
0048
0048
0048
0040
0F40
30C0
6040
4040
4040
C040
8040
C040
C040
4040
6040
31C0
1E40
ENDCHAR
STARTCHAR 0110
ENCODING 272
SWIDTH 640 0
DWIDTH 16 0
BBX 13 17 1 0
BITMAP
3F80
20E0
2030
2010
2018
2008
2008
2008
FE08
2008
2008
2008
2018
2010
2030
2060
3F80
ENDCHAR
STARTCHAR 0111
ENCODING 273
SWIDTH 560 0
DWIDTH 14 0
BBX 12 18 1 0
BITMAP
0040
0040
0040
07F0
0040
0040
0F40
30C0
6040
4040
C040
C040
C040
C040
4040
4040
31C0
1E40
ENDCHAR
STARTCHAR 0112
ENCODING 274
SWIDTH 520 0
DWIDTH 13 0
BBX 10 20 2 0
BITMAP
3F00
0000
0000
FF80
C000
C000
C000
C000
C000
C000
FF00
C000
C000
C000
C000
C000
C000
C000
C000
FFC0
ENDCHAR
STARTCHAR 0113
ENCODING 275
SWIDTH 480 0
DWIDTH 12 0
BBX 10 16 1 0
BITMAP
3F80
0000
0000
0F00
3180
6080
4040
4040
8040
FFC0
8000
C000
4000
6000
3080
1F00
ENDCHAR
STARTCHAR 0114
ENCODING 276
SWIDTH 520 0
DWIDTH 13 0
BBX 10 21 2 0
BITMAP
2100
3100
1E00
0000
FF80
C000
C000
C000
C000
C000
C000
FF00
C000
C000
C000
C000
C000
C000
C000
C000
FFC0
ENDCHAR
STARTCHAR 0115
ENCODING 277
SWIDTH 480 0
DWIDTH 12 0
BBX 10 18 1 0
BITMAP
2080
3080
1F00
0000
0000
0F00
3180
6080
4040
4040
8040
FFC0
8000
C000
4000
6000
3080
1F00
ENDCHAR
STARTCHAR 0116
ENCODING 278
SWIDTH 520 0
DWIDTH 13 0
BBX 10 21 2 0
BITMAP
0C00
0C00
0000
0000
FF80
C000
C000
C000
C000
C000
C000
FF00
C000
C000
C000
C000
C000
C000
C000
C000
FFC0
ENDCHAR
STARTCHAR 0117
ENCODING 279
SWIDTH 480 0
DWIDTH 12 0
BBX 10 18 1 0
BITMAP
0400
0400
0000
0000
0000
0F00
3180
6080
4040
4040
8040
FFC0
8000
C000
4000
6000
3080
1F00
ENDCHAR
STARTCHAR 0118
ENCODING 280
SWIDTH 520 0
DWIDTH 13 0
BBX 10 22 2 -5
BITMAP
FF80
C000
C000
C000
C000
C000
C000
FF00
C000
C000
C000
C000
C000
C000
C000
C000
FFC0
0100
0100
0200
0200
01C0
ENDCHAR
STARTCHAR 0119
ENCODING 281
SWIDTH 480 0
DWIDTH 12 0
BBX 10 18 1 -5
BITMAP
0F00
3180
6080
4040
4040
8040
FFC0
8000
C000
4000
6000
3080
1F80
0100
0200
0200
0200
0180
ENDCHAR
STARTCHAR 011A
ENCODING 282
SWIDTH 520 0
DWIDTH 13 0
BBX 10 21 2 0
BITMAP
2100
1200
0C00
0000
FF80
C000
C000
C000
C000
C000
C000
FF00
C000
C000
C000
C000
C000
C000
C000
C000
FFC0
ENDCHAR
STARTCHAR 011B
ENCODING 283
SWIDTH 480 0
DWIDTH 12 0
BBX 10 19 1 0
BITMAP
2080
1100
0A00
0400
0000
0000
0F00
3180
6080
4040
4040
8040
FFC0
8000
C000
4000
6000
3080
1F00
ENDCHAR
STARTCHAR 011C
ENCODING 284
SWIDTH 600 0
DWIDTH 15 0
BBX 12 21 1 0
BITMAP
0180
02C0
0C20
0000
07C0
1830
3010
2000
4000
4000
4000
C000
C000
C1F0
C010
4010
4010
6010
3010
1830
07C0
ENDCHAR
STARTCHAR 011D
ENCODING 285
SWIDTH 480 0
DWIDTH 12 0
BBX 11 25 1 -6
BITMAP
0400
0A00
1100
2080
0000
0000
1FE0
2100
4080
4080
4080
4080
6080
3100
3E00
4000
4000
6000
3FC0
4060
4020
8020
C040
60C0
1F00
ENDCHAR
STARTCHAR 011E
ENCODING 286
SWIDTH 600 0
DWIDTH 15 0
BBX 12 21 1 0
BITMAP
0820
0440
0380
0000
07C0
1830
3010
2000
4000
4000
4000
C000
C000
C1F0
C010
4010
4010
6010
3010
1830
07C0
ENDCHAR
STARTCHAR 011F
ENCODING 287
SWIDTH 480 0
DWIDTH 12 0
BBX 11 24 1 -6
BITMAP
2080
3080
1F00
0000
0000
1FE0
2100
4080
4080
4080
4080
6080
3100
3E00
4000
4000
6000
3FC0
4060
4020
8020
C040
60C0
1F00
ENDCHAR
STARTCHAR 0120
ENCODING 288
SWIDTH 600 0
DWIDTH 15 0
BBX 12 20 1 0
BITMAP
0180
0180
0000
07C0
1830
3010
2000
4000
4000
4000
C000
C000
C1F0
C010
4010
4010
6010
3010
1830
07C0
ENDCHAR
STARTCHAR 0121
ENCODING 289
SWIDTH 480 0
DWIDTH 12 0
BBX 11 24 1 -6
BITMAP
0400
0400
0000
0000
0000
1FE0
2100
4080
4080
4080
4080
6080
3100
3E00
4000
4000
6000
3FC0
4060
4020
8020
C040
60C0
1F00
ENDCHAR
STARTCHAR 0122
ENCODING 290
SWIDTH 600 0
DWIDTH 15 0
BBX 12 22 1 -5
BITMAP
07C0
1830
3010
2000
4000
4000
4000
C000
C000
C1F0
C010
4010
4010
6010
3010
1830
07C0
0000
0300
0080
0080
0700
ENDCHAR
STARTCHAR 0123
ENCODING 291
SWIDTH 480 0
DWIDTH 12 0
BBX 11 26 1 -6
BITMAP
0300
0C00
0800
0C00
0000
0000
0000
1FE0
2100
4080
4080
4080
4080
6080
3100
3E00
4000
4000
6000
3FC0
4060
4020
8020
C040
60C0
1F00
ENDCHAR
STARTCHAR 0124
ENCODING 292
SWIDTH 640 0
DWIDTH 16 0
BBX 12 22 2 0
BITMAP
0600
0900
1080
0000
0000
C030
C030
C030
C030
C030
C030
C030
FFF0
C030
C030
C030
C030
C030
C030
C030
C030
C030
ENDCHAR
STARTCHAR 0125
ENCODING 293
SWIDTH 520 0
DWIDTH 13 0
BBX 11 22 0 0
BITMAP
3000
4800
8400
0000
2000
2000
2000
2000
2000
23C0
2C60
3020
2020
2020
2020
2020
2020
2020
2020
2020
2020
2020
ENDCHAR
STARTCHAR 0126
ENCODING 294
SWIDTH 680 0
DWIDTH 17 0
BBX 15 17 1 0
BITMAP
2008
2008
2008
FFFE
2008
2008
2008
3FF8
2008
2008
2008
2008
2008
2008
2008
2008
2008
ENDCHAR
STARTCHAR 0127
ENCODING 295
SWIDTH 520 0
DWIDTH 13 0
BBX 11 18 0 0
BITMAP
2000
2000
2000
FF00
2000
2000
2000
27C0
2860
3020
2020
2020
2020
2020
2020
2020
2020
2020
ENDCHAR
STARTCHAR 0128
ENCODING 296
SWIDTH 240 0
DWIDTH 6 0
BBX 8 21 -1 0
BITMAP
71
99
86
00
18
18
18
18
18
18
18
18
18
18
18
18
18
18
18
18
18
ENDCHAR
STARTCHAR 0129
ENCODING 297
SWIDTH 240 0
DWIDTH 6 0
BBX 8 19 -1 0
BITMAP
61
91
89
86
00
00
10
10
10
10
10
10
10
10
10
10
10
10
10
ENDCHAR
STARTCHAR 012A
ENCODING 298
SWIDTH 240 0
DWIDTH 6 0
BBX 6 20 0 0
BITMAP
FC
00
00
30
30
30
30
30
30
30
30
30
30
30
30
30
30
30
30
30
ENDCHAR
STARTCHAR 012B
ENCODING 299
SWIDTH 240 0
DWIDTH 6 0
BBX 6 16 0 0
BITMAP
FC
00
00
20
20
20
20
20
20
20
20
20
20
20
20
20
ENDCHAR
STARTCHAR 012C
ENCODING 300
SWIDTH 240 0
DWIDTH 6 0
BBX 6 21 0 0
BITMAP
84
84
78
00
30
30
30
30
30
30
30
30
30
30
30
30
30
30
30
30
30
ENDCHAR
STARTCHAR 012D
ENCODING 301
SWIDTH 240 0
DWIDTH 6 0
BBX 8 18 -1 0
BITMAP
81
42
3C
00
00
10
10
10
10
10
10
10
10
10
10
10
10
10
ENDCHAR
STARTCHAR 012E
ENCODING 302
SWIDTH 240 0
DWIDTH 6 0
BBX 4 22 1 -5
BITMAP
60
60
60
60
60
60
60
60
60
60
60
60
60
60
60
60
60
40
80
80
80
70
ENDCHAR
STARTCHAR 012F
ENCODING 303
SWIDTH 240 0
DWIDTH 6 0
BBX 3 23 1 -5
BITMAP
60
60
00
00
00
40
40
40
40
40
40
40
40
40
40
40
40
40
40
80
80
80
E0
ENDCHAR
STARTCHAR 0130
ENCODING 304
SWIDTH 240 0
DWIDTH 6 0
BBX 2 21 2 0
BITMAP
C0
C0
00
00
C0
C0
C0
C0
C0
C0
C0
C0
C0
C0
C0
C0
C0
C0
C0
C0
C0
ENDCHAR
STARTCHAR 0131
ENCODING 305
SWIDTH 240 0
DWIDTH 6 0
BBX 1 13 2 0
BITMAP
80
80
80
80
80
80
80
80
80
80
80
80
80
ENDCHAR
STARTCHAR 0132
ENCODING 306
SWIDTH 480 0
DWIDTH 12 0
BBX 8 21 2 -4
BITMAP
C3
C3
C3
C3
C3
C3
C3
C3
C3
C3
C3
C3
C3
C3
C3
C3
C3
03
03
02
1C
ENDCHAR
STARTCHAR 0133
ENCODING 307
SWIDTH 440 0
DWIDTH 11 0
BBX 7 22 2 -5
BITMAP
C2
C2
00
00
00
82
82
82
82
82
82
82
82
82
82
82
02
02
02
02
02
1C
ENDCHAR
STARTCHAR 0134
ENCODING 308
SWIDTH 480 0
DWIDTH 12 0
BBX 11 22 1 0
BITMAP
0100
0280
0440
0820
0000
0100
0100
0100
0100
0100
0100
0100
0100
0100
0100
0100
0100
0100
0100
8100
4200
3C00
ENDCHAR
STARTCHAR 0135
ENCODING 309
SWIDTH 240 0
DWIDTH 6 0
BBX 7 24 -1 -5
BITMAP
18
2C
46
02
00
00
10
10
10
10
10
10
10
10
10
10
10
10
10
10
10
10
10
E0
ENDCHAR
STARTCHAR 0136
ENCODING 310
SWIDTH 560 0
DWIDTH 14 0
BBX 11 22 2 -5
BITMAP
C060
C0C0
C180
C100
C200
C400
CC00
DC00
F200
E300
C100
C180
C080
C0C0
C040
C020
C020
0000
0400
0300
0100
0E00
ENDCHAR
STARTCHAR 0137
ENCODING 311
SWIDTH 480 0
DWIDTH 12 0
BBX 9 23 2 -5
BITMAP
8000
8000
8000
8000
8000
8100
8300
8600
8400
8800
9800
BC00
A400
C600
8200
8100
8100
8080
0000
1000
0C00
0400
3800
ENDCHAR
STARTCHAR 0138
ENCODING 312
SWIDTH 480 0
DWIDTH 12 0
BBX 9 13 2 0
BITMAP
8100
8300
8600
8400
8800
9800
9C00
A400
C600
8200
8100
8100
8080
ENDCHAR
STARTCHAR 0139
ENCODING 313
SWIDTH 480 0
DWIDTH 12 0
BBX 9 21 2 1
BITMAP
2000
4000
8000
0000
C000
C000
C000
C000
C000
C000
C000
C000
C000
C000
C000
C000
C000
C000
C000
C000
FF80
ENDCHAR
STARTCHAR 013A
ENCODING 314
SWIDTH 240 0
DWIDTH 6 0
BBX 3 22 2 1
BITMAP
20
40
80
00
80
80
80
80
80
80
80
80
80
80
80
80
80
80
80
80
80
40
ENDCHAR
STARTCHAR 013B
ENCODING 315
SWIDTH 480 0
DWIDTH 12 0
BBX 9 22 2 -5
BITMAP
C000
C000
C000
C000
C000
C000
C000
C000
C000
C000
C000
C000
C000
C000
C000
C000
FF80
0000
0800
0600
0200
1C00
ENDCHAR
STARTCHAR 013C
ENCODING 316
SWIDTH 240 0
DWIDTH 6 0
BBX 4 23 1 -5
BITMAP
40
40
40
40
40
40
40
40
40
40
40
40
40
40
40
40
40
20
00
60
10
10
E0
ENDCHAR
STARTCHAR 013D
ENCODING 317
SWIDTH 480 0
DWIDTH 12 0
BBX 9 19 2 0
BITMAP
0200
0200
C200
C200
C200
C200
C000
C000
C000
C000
C000
C000
C000
C000
C000
C000
C000
C000
FF80
ENDCHAR
STARTCHAR 013E
ENCODING 318
SWIDTH 240 0
DWIDTH 6 0
BBX 4 19 2 0
BITMAP
10
90
90
90
90
80
80
80
80
80
80
80
80
80
80
80
80
80
40
ENDCHAR
STARTCHAR 013F
ENCODING 319
SWIDTH 480 0
DWIDTH 12 0
BBX 9 17 2 0
BITMAP
C000
C000
C000
C000
C000
C000
C000
C000
C300
C300
C000
C000
C000
C000
C000
C000
FF80
ENDCHAR
STARTCHAR 0140
ENCODING 320
SWIDTH 320 0
DWIDTH 8 0
BBX 6 18 2 0
BITMAP
80
80
80
80
80
80
80
80
80
8C
8C
80
80
80
80
80
80
40
ENDCHAR
STARTCHAR 0141
ENCODING 321
SWIDTH 480 0
DWIDTH 12 0
BBX 11 17 0 0
BITMAP
1000
1000
1000
1000
1000
1000
1000
1300
1C00
3000
D000
1000
1000
1000
1000
1000
1FE0
ENDCHAR
STARTCHAR 0142
ENCODING 322
SWIDTH 240 0
DWIDTH 6 0
BBX 4 18 1 0
BITMAP
40
40
40
40
40
40
50
60
C0
40
40
40
40
40
40
40
40
30
ENDCHAR
STARTCHAR 0143
ENCODING 323
SWIDTH 640 0
DWIDTH 16 0
BBX 11 21 2 1
BITMAP
0100
0200
0400
0000
C020
C020
A020
B020
D020
C820
C820
C420
C620
C220
C320
C120
C0A0
C0A0
C060
C060
C020
ENDCHAR
STARTCHAR 0144
ENCODING 324
SWIDTH 520 0
DWIDTH 13 0
BBX 9 18 2 1
BITMAP
0200
0400
0800
0000
0000
8F00
B180
C080
8080
8080
8080
8080
8080
8080
8080
8080
8080
8080
ENDCHAR
STARTCHAR 0145
ENCODING 325
SWIDTH 640 0
DWIDTH 16 0
BBX 11 22 2 -5
BITMAP
C020
C020
A020
B020
D020
C820
C820
C420
C620
C220
C320
C120
C0A0
C0A0
C060
C060
C020
0000
0400
0300
0100
0E00
ENDCHAR
STARTCHAR 0146
ENCODING 326
SWIDTH 520 0
DWIDTH 13 0
BBX 9 18 2 -5
BITMAP
8F00
B180
C080
8080
8080
8080
8080
8080
8080
8080
8080
8080
8080
0000
0800
0400
0400
1800
ENDCHAR
STARTCHAR 0147
ENCODING 327
SWIDTH 640 0
DWIDTH 16 0
BBX 11 21 2 0
BITMAP
1080
0900
0600
0000
C020
C020
A020
B020
D020
C820
C820
C420
C620
C220
C320
C120
C0A0
C0A0
C060
C060
C020
ENDCHAR
STARTCHAR 0148
ENCODING 328
SWIDTH 520 0
DWIDTH 13 0
BBX 9 19 2 0
BITMAP
2100
1300
1A00
0C00
0000
0000
8F00
B180
C080
8080
8080
8080
8080
8080
8080
8080
8080
8080
8080
ENDCHAR
STARTCHAR 0149
ENCODING 329
SWIDTH 720 0
DWIDTH 18 0
BBX 14 18 2 0
BITMAP
C000
C000
4000
4000
8000
04F0
0508
060C
0404
0404
0404
0404
0404
0404
0404
0404
0404
0404
ENDCHAR
STARTCHAR 014A
ENCODING 330
SWIDTH 600 0
DWIDTH 15 0
BBX 12 17 2 0
BITMAP
CF80
D0C0
E060
C020
C030
C010
C010
C010
C010
C010
C010
C010
C010
C030
C020
C060
C3C0
ENDCHAR
STARTCHAR 014B
ENCODING 331
SWIDTH 520 0
DWIDTH 13 0
BBX 9 18 2 -5
BITMAP
8F00
B180
C080
8080
8080
8080
8080
8080
8080
8080
8080
8080
8080
0080
0080
0080
0080
0700
ENDCHAR
STARTCHAR 014C
ENCODING 332
SWIDTH 640 0
DWIDTH 16 0
BBX 14 20 1 0
BITMAP
0FC0
0000
0000
07C0
1860
3010
2018
4008
400C
4004
C004
C004
C004
4004
400C
4008
6008
3010
1860
07C0
ENDCHAR
STARTCHAR 014D
ENCODING 333
SWIDTH 520 0
DWIDTH 13 0
BBX 11 16 1 0
BITMAP
1F80
0000
0000
0F00
3080
6040
4060
4020
C020
8020
C020
4020
4060
6040
3080
1F00
ENDCHAR
STARTCHAR 014E
ENCODING 334
SWIDTH 640 0
DWIDTH 16 0
BBX 14 21 1 0
BITMAP
0840
0840
0780
0000
07C0
1860
3010
2018
4008
400C
4004
C004
C004
C004
4004
400C
4008
6008
3010
1860
07C0
ENDCHAR
STARTCHAR 014F
ENCODING 335
SWIDTH 520 0
DWIDTH 13 0
BBX 11 18 1 0
BITMAP
2080
3080
0F00
0000
0000
0F00
3080
6040
4060
4020
C020
8020
C020
4020
4060
6040
3080
1F00
ENDCHAR
STARTCHAR 0150
ENCODING 336
SWIDTH 640 0
DWIDTH 16 0
BBX 14 22 1 0
BITMAP
0110
0220
0240
0440
0000
07C0
1860
3010
2018
4008
400C
4004
C004
C004
C004
4004
400C
4008
6008
3010
1860
07C0
ENDCHAR
STARTCHAR 0151
ENCODING 337
SWIDTH 520 0
DWIDTH 13 0
BBX 11 18 1 0
BITMAP
0440
0480
0900
0000
0000
0F00
3080
6040
4060
4020
C020
8020
C020
4020
4060
6040
3080
1F00
ENDCHAR
STARTCHAR 0152
ENCODING 338
SWIDTH 840 0
DWIDTH 21 0
BBX 19 17 1 0
BITMAP
07FFC0
182000
302000
602000
402000
402000
C02000
C03F80
C02000
C02000
402000
402000
402000
202000
302000
1C2000
07FFE0
ENDCHAR
STARTCHAR 0153
ENCODING 339
SWIDTH 840 0
DWIDTH 21 0
BBX 19 13 1 0
BITMAP
0F0780
3188C0
60D060
406020
406020
C02020
803FE0
C02000
C02000
406000
605000
319860
1F0780
ENDCHAR
STARTCHAR 0154
ENCODING 340
SWIDTH 560 0
DWIDTH 14 0
BBX 11 21 2 1
BITMAP
0200
0400
0800
0000
FF00
C0C0
C040
C060
C060
C040
C040
C080
FF00
C600
C200
C300
C100
C080
C080
C040
C060
ENDCHAR
STARTCHAR 0155
ENCODING 341
SWIDTH 320 0
DWIDTH 8 0
BBX 6 18 2 1
BITMAP
08
10
20
00
00
9C
A0
C0
C0
80
80
80
80
80
80
80
80
80
ENDCHAR
STARTCHAR 0156
ENCODING 342
SWIDTH 560 0
DWIDTH 14 0
BBX 11 22 2 -5
BITMAP
FF00
C0C0
C040
C060
C060
C040
C040
C080
FF00
C600
C200
C300
C100
C080
C080
C040
C060
0000
0800
0600
0200
1C00
ENDCHAR
STARTCHAR 0157
ENCODING 343
SWIDTH 320 0
DWIDTH 8 0
BBX 7 18 1 -5
BITMAP
4E
50
60
60
40
40
40
40
40
40
40
40
40
00
40
20
20
C0
ENDCHAR
STARTCHAR 0158
ENCODING 344
SWIDTH 560 0
DWIDTH 14 0
BBX 11 21 2 0
BITMAP
2100
1200
0C00
0000
FF00
C0C0
C040
C060
C060
C040
C040
C080
FF00
C600
C200
C300
C100
C080
C080
C040
C060
ENDCHAR
STARTCHAR 0159
ENCODING 345
SWIDTH 320 0
DWIDTH 8 0
BBX 6 19 2 0
BITMAP
84
CC
58
30
00
00
9C
A0
C0
C0
80
80
80
80
80
80
80
80
80
ENDCHAR
STARTCHAR 015A
ENCODING 346
SWIDTH 520 0
DWIDTH 13 0
BBX 11 21 1 1
BITMAP
0100
0200
0400
0000
0F00
30C0
6040
4000
4000
6000
3000
1C00
0700
01C0
0060
0020
0020
0020
C060
70C0
1F00
ENDCHAR
STARTCHAR 015B
ENCODING 347
SWIDTH 400 0
DWIDTH 10 0
BBX 8 19 1 0
BITMAP
02
06
08
10
00
00
3C
43
C0
C0
40
70
1C
03
01
01
01
C3
3C
ENDCHAR
STARTCHAR 015C
ENCODING 348
SWIDTH 520 0
DWIDTH 13 0
BBX 11 21 1 0
BITMAP
0600
0900
1080
0000
0F00
30C0
6040
4000
4000
6000
3000
1C00
0700
01C0
0060
0020
0020
0020
C060
70C0
1F00
ENDCHAR
STARTCHAR 015D
ENCODING 349
SWIDTH 400 0
DWIDTH 10 0
BBX 8 19 1 0
BITMAP
18
14
22
41
00
00
3C
43
C0
C0
40
70
1C
03
01
01
01
C3
3C
ENDCHAR
STARTCHAR 015E
ENCODING 350
SWIDTH 520 0
DWIDTH 13 0
BBX 11 22 1 -5
BITMAP
0F00
30C0
6040
4000
4000
6000
3000
1C00
0700
01C0
0060
0020
0020
0020
C060
70C0
1F00
0400
0400
0200
0200
0C00
ENDCHAR
STARTCHAR 015F
ENCODING 351
SWIDTH 400 0
DWIDTH 10 0
BBX 8 18 1 -5
BITMAP
3C
43
C0
C0
40
70
1C
03
01
01
01
C3
3C
08
18
04
04
38
ENDCHAR
STARTCHAR 0160
ENCODING 352
SWIDTH 520 0
DWIDTH 13 0
BBX 11 21 1 0
BITMAP
1080
0900
0600
0000
0F00
30C0
6040
4000
4000
6000
3000
1C00
0700
01C0
0060
0020
0020
0020
C060
70C0
1F00
ENDCHAR
STARTCHAR 0161
ENCODING 353
SWIDTH 400 0
DWIDTH 10 0
BBX 8 19 1 0
BITMAP
41
22
14
18
00
00
3C
43
C0
C0
40
70
1C
03
01
01
01
C3
3C
ENDCHAR
STARTCHAR 0162
ENCODING 354
SWIDTH 520 0
DWIDTH 13 0
BBX 11 22 1 -5
BITMAP
FFE0
0400
0400
0400
0400
0400
0400
0400
0400
0400
0400
0400
0400
0400
0400
0400
0400
0400
0800
0600
0200
1C00
ENDCHAR
STARTCHAR 0163
ENCODING 355
SWIDTH 320 0
DWIDTH 8 0
BBX 7 21 1 -5
BITMAP
20
20
20
FC
20
20
20
20
20
20
20
20
20
20
20
1E
10
18
04
04
38
ENDCHAR
STARTCHAR 0164
ENCODING 356
SWIDTH 520 0
DWIDTH 13 0
BBX 11 21 1 0
BITMAP
1100
0A00
0400
0000
FFE0
0400
0400
0400
0400
0400
0400
0400
0400
0400
0400
0400
0400
0400
0400
0400
0400
ENDCHAR
STARTCHAR 0165
ENCODING 357
SWIDTH 320 0
DWIDTH 8 0
BBX 7 20 1 0
BITMAP
04
04
04
24
24
20
20
FC
20
20
20
20
20
20
20
20
20
20
20
1E
ENDCHAR
STARTCHAR 0166
ENCODING 358
SWIDTH 520 0
DWIDTH 13 0
BBX 11 17 1 0
BITMAP
FFE0
0400
0400
0400
0400
0400
0400
0400
3F80
0400
0400
0400
0400
0400
0400
0400
0400
ENDCHAR
STARTCHAR 0167
ENCODING 359
SWIDTH 320 0
DWIDTH 8 0
BBX 7 16 1 0
BITMAP
20
20
20
FC
20
20
20
20
20
FC
20
20
20
20
20
1E
ENDCHAR
STARTCHAR 0168
ENCODING 360
SWIDTH 640 0
DWIDTH 16 0
BBX 11 21 2 0
BITMAP
1C40
2640
2380
0000
C020
C020
C020
C020
C020
C020
C020
C020
C020
C020
C020
C020
4020
4020
6060
30C0
1F00
ENDCHAR
STARTCHAR 0169
ENCODING 361
SWIDTH 520 0
DWIDTH 13 0
BBX 9 19 2 0
BITMAP
3080
4880
4D00
0700
0000
0000
8080
8080
8080
8080
8080
8080
8080
8080
8080
8080
C180
4280
3C80
ENDCHAR
STARTCHAR 016A
ENCODING 362
SWIDTH 640 0
DWIDTH 16 0
BBX 11 20 2 0
BITMAP
1F80
0000
0000
C020
C020
C020
C020
C020
C020
C020
C020
C020
C020
C020
C020
4020
4020
6060
30C0
1F00
ENDCHAR
STARTCHAR 016B
ENCODING 363
SWIDTH 520 0
DWIDTH 13 0
BBX 9 16 2 0
BITMAP
7F00
0000
0000
8080
8080
8080
8080
8080
8080
8080
8080
8080
8080
C180
4280
3C80
ENDCHAR
STARTCHAR 016C
ENCODING 364
SWIDTH 640 0
DWIDTH 16 0
BBX 11 21 2 0
BITMAP
1080
1080
0E00
0000
C020
C020
C020
C020
C020
C020
C020
C020
C020
C020
C020
C020
4020
4020
6060
30C0
1F00
ENDCHAR
STARTCHAR 016D
ENCODING 365
SWIDTH 520 0
DWIDTH 13 0
BBX 9 18 2 0
BITMAP
4100
6100
1E00
0000
0000
8080
8080
8080
8080
8080
8080
8080
8080
8080
8080
C180
4280
3C80
ENDCHAR
STARTCHAR 016E
ENCODING 366
SWIDTH 640 0
DWIDTH 16 0
BBX 11 22 2 0
BITMAP
0600
0900
1100
0900
0600
C020
C020
C020
C020
C020
C020
C020
C020
C020
C020
C020
C020
4020
4020
6060
30C0
1F00
ENDCHAR
STARTCHAR 016F
ENCODING 367
SWIDTH 520 0
DWIDTH 13 0
BBX 9 19 2 0
BITMAP
1C00
2200
2200
2200
1C00
0000
8080
8080
8080
8080
8080
8080
8080
8080
8080
8080
C180
4280
3C80
ENDCHAR
STARTCHAR 0170
ENCODING 368
SWIDTH 640 0
DWIDTH 16 0
BBX 11 22 2 0
BITMAP
0240
0440
0880
0800
0000
C020
C020
C020
C020
C020
C020
C020
C020
C020
C020
C020
C020
4020
4020
6060
30C0
1F00
ENDCHAR
STARTCHAR 0171
ENCODING 369
SWIDTH 520 0
DWIDTH 13 0
BBX 9 18 2 0
BITMAP
0880
0900
1200
0000
0000
8080
8080
8080
8080
8080
8080
8080
8080
8080
8080
C180
4280
3C80
ENDCHAR
STARTCHAR 0172
ENCODING 370
SWIDTH 640 0
DWIDTH 16 0
BBX 11 22 2 -5
BITMAP
C020
C020
C020
C020
C020
C020
C020
C020
C020
C020
C020
C020
4020
4020
6060
30C0
1F00
0200
0400
0400
0400
0700
ENDCHAR
STARTCHAR 0173
ENCODING 371
SWIDTH 520 0
DWIDTH 13 0
BBX 9 18 2 -5
BITMAP
8080
8080
8080
8080
8080
8080
8080
8080
8080
8080
C180
4280
3C80
0100
0200
0200
0200
0180
ENDCHAR
STARTCHAR 0174
ENCODING 372
SWIDTH 760 0
DWIDTH 19 0
BBX 17 22 1 0
BITMAP
00C000
014000
022000
001000
000000
808080
80C080
814080
C14080
414180
412100
422100
422100
222100
221200
241200
241200
341200
140A00
180C00
180C00
180C00
ENDCHAR
STARTCHAR 0175
ENCODING 373
SWIDTH 680 0
DWIDTH 17 0
BBX 15 19 1 0
BITMAP
0180
0280
0440
0820
0000
0000
8102
8282
8282
4282
4284
4444
4444
2444
2448
2828
2828
1830
1830
ENDCHAR
STARTCHAR 0176
ENCODING 374
SWIDTH 440 0
DWIDTH 11 0
BBX 11 22 0 0
BITMAP
0400
0A00
1100
2080
0000
C020
4040
4040
2080
2080
1100
1100
0A00
0A00
0400
0400
0400
0400
0400
0400
0400
0400
ENDCHAR
STARTCHAR 0177
ENCODING 375
SWIDTH 440 0
DWIDTH 11 0
BBX 10 24 0 -5
BITMAP
0600
0B00
1100
2080
0000
0000
C040
4040
4040
2080
2080
3080
1100
1100
0900
0A00
0A00
0600
0400
0400
0400
0800
1800
7000
ENDCHAR
STARTCHAR 0178
ENCODING 376
SWIDTH 440 0
DWIDTH 11 0
BBX 11 21 0 0
BITMAP
3180
3180
0000
0000
C020
4040
4040
2080
2080
1100
1100
0A00
0A00
0400
0400
0400
0400
0400
0400
0400
0400
ENDCHAR
STARTCHAR 0179
ENCODING 377
SWIDTH 520 0
DWIDTH 13 0
BBX 11 21 1 1
BITMAP
0100
0200
0400
0000
7FE0
0060
0040
0080
0080
0100
0300
0200
0400
0C00
0800
1000
1000
2000
6000
4000
FFE0
ENDCHAR
STARTCHAR 017A
ENCODING 378
SWIDTH 400 0
DWIDTH 10 0
BBX 8 19 1 0
BITMAP
02
06
0C
10
00
00
FF
03
02
04
04
08
18
10
20
60
40
80
FF
ENDCHAR
STARTCHAR 017B
ENCODING 379
SWIDTH 520 0
DWIDTH 13 0
BBX 11 21 1 0
BITMAP
0600
0600
0000
0000
7FE0
0060
0040
0080
0080
0100
0300
0200
0400
0C00
0800
1000
1000
2000
6000
4000
FFE0
ENDCHAR
STARTCHAR 017C
ENCODING 380
SWIDTH 400 0
DWIDTH 10 0
BBX 8 18 1 0
BITMAP
08
08
00
00
00
FF
03
02
04
04
08
18
10
20
60
40
80
FF
ENDCHAR
STARTCHAR 017D
ENCODING 381
SWIDTH 520 0
DWIDTH 13 0
BBX 11 21 1 0
BITMAP
1080
0900
0600
0000
7FE0
0060
0040
0080
0080
0100
0300
0200
0400
0C00
0800
1000
1000
2000
6000
4000
FFE0
ENDCHAR
STARTCHAR 017E
ENCODING 382
SWIDTH 400 0
DWIDTH 10 0
BBX 8 19 1 0
BITMAP
41
22
14
08
00
00
FF
03
02
04
04
08
18
10
20
60
40
80
FF
ENDCHAR
STARTCHAR 0180
ENCODING 384
SWIDTH 520 0
DWIDTH 13 0
BBX 12 18 0 0
BITMAP
2000
2000
2000
FF00
2000
2000
23C0
2860
3030
2010
2010
2010
2010
2010
2010
2020
3860
2780
ENDCHAR
STARTCHAR 018F
ENCODING 399
SWIDTH 640 0
DWIDTH 16 0
BBX 13 17 2 0
BITMAP
0F80
3060
0020
0010
0010
0018
0008
0008
FFF8
8008
8008
8010
8010
4010
6020
30C0
0F80
ENDCHAR
STARTCHAR 0192
ENCODING 402
SWIDTH 480 0
DWIDTH 12 0
BBX 11 19 0 -2
BITMAP
00E0
0100
0200
0200
0200
0200
0600
1FC0
0400
0400
0400
0400
0400
0400
0400
0800
0800
1800
F000
ENDCHAR
STARTCHAR 0193
ENCODING 403
SWIDTH 600 0
DWIDTH 15 0
BBX 14 20 1 0
BITMAP
001C
0030
0020
07D0
1830
3000
2000
4000
4000
4000
C000
C000
C1F0
C010
4010
4010
6010
3010
1830
07C0
ENDCHAR
STARTCHAR 01A0
ENCODING 416
SWIDTH 640 0
DWIDTH 16 0
BBX 14 20 1 0
BITMAP
000C
0004
0004
07D8
1860
3010
2008
4008
400C
4004
4004
C004
4004
4004
400C
4008
2008
3010
1860
07C0
ENDCHAR
STARTCHAR 01A1
ENCODING 417
SWIDTH 520 0
DWIDTH 13 0
BBX 12 16 1 1
BITMAP
0030
0020
0020
0FC0
3080
6040
4060
4020
C020
8020
C020
4020
4060
6040
3080
1F00
ENDCHAR
STARTCHAR 01AF
ENCODING 431
SWIDTH 640 0
DWIDTH 16 0
BBX 14 21 2 0
BITMAP
0004
0004
0004
000C
C030
C020
C020
C020
C020
C020
C020
C020
C020
C020
C020
C020
4020
4020
6060
30C0
1F00
ENDCHAR
STARTCHAR 01B0
ENCODING 432
SWIDTH 520 0
DWIDTH 13 0
BBX 11 17 2 0
BITMAP
0020
0020
0020
0060
8080
8080
8080
8080
8080
8080
8080
8080
8080
8080
C180
4280
3C80
ENDCHAR
STARTCHAR 01C2
ENCODING 450
SWIDTH 280 0
DWIDTH 7 0
BBX 6 25 0 -6
BITMAP
10
10
10
10
10
10
10
10
10
10
FC
10
10
10
FC
10
10
10
10
10
10
10
10
10
10
ENDCHAR
STARTCHAR 01CD
ENCODING 461
SWIDTH 520 0
DWIDTH 13 0
BBX 13 21 0 0
BITMAP
0880
0500
0200
0000
0200
0500
0500
0500
0880
0880
0880
1040
1040
1040
3FE0
2020
2020
4010
4010
4010
C008
ENDCHAR
STARTCHAR 01CE
ENCODING 462
SWIDTH 480 0
DWIDTH 12 0
BBX 9 19 1 0
BITMAP
2080
1100
0A00
0C00
0000
0000
1F00
6180
0080
0080
0080
0780
1880
6080
4080
C080
C080
4380
3C80
ENDCHAR
STARTCHAR 01CF
ENCODING 463
SWIDTH 240 0
DWIDTH 6 0
BBX 6 21 0 0
BITMAP
84
48
30
00
30
30
30
30
30
30
30
30
30
30
30
30
30
30
30
30
30
ENDCHAR
STARTCHAR 01D0
ENCODING 464
SWIDTH 240 0
DWIDTH 6 0
BBX 7 19 -1 0
BITMAP
82
44
2C
18
00
00
10
10
10
10
10
10
10
10
10
10
10
10
10
ENDCHAR
STARTCHAR 01D1
ENCODING 465
SWIDTH 640 0
DWIDTH 16 0
BBX 14 21 1 0
BITMAP
0840
0480
0300
0000
07C0
1860
3010
2018
4008
400C
4004
C004
C004
C004
4004
400C
4008
6008
3010
1860
07C0
ENDCHAR
STARTCHAR 01D2
ENCODING 466
SWIDTH 520 0
DWIDTH 13 0
BBX 11 19 1 0
BITMAP
2080
1100
0A00
0600
0000
0000
0F00
3080
6040
4060
4020
C020
8020
C020
4020
4060
6040
3080
1F00
ENDCHAR
STARTCHAR 01D3
ENCODING 467
SWIDTH 640 0
DWIDTH 16 0
BBX 11 21 2 0
BITMAP
1080
0900
0600
0000
C020
C020
C020
C020
C020
C020
C020
C020
C020
C020
C020
C020
4020
4020
6060
30C0
1F00
ENDCHAR
STARTCHAR 01D4
ENCODING 468
SWIDTH 520 0
DWIDTH 13 0
BBX 9 19 2 0
BITMAP
4100
2200
1400
0C00
0000
0000
8080
8080
8080
8080
8080
8080
8080
8080
8080
8080
C180
4280
3C80
ENDCHAR
STARTCHAR 01D5
ENCODING 469
SWIDTH 640 0
DWIDTH 16 0
BBX 11 23 2 0
BITMAP
1F80
0000
1080
1080
0000
0000
C020
C020
C020
C020
C020
C020
C020
C020
C020
C020
C020
C020
4020
4020
6060
30C0
1F00
ENDCHAR
STARTCHAR 01D6
ENCODING 470
SWIDTH 520 0
DWIDTH 13 0
BBX 9 20 2 0
BITMAP
7F00
0000
0000
2300
2200
0000
0000
8080
8080
8080
8080
8080
8080
8080
8080
8080
8080
C180
4280
3C80
ENDCHAR
STARTCHAR 01D7
ENCODING 471
SWIDTH 640 0
DWIDTH 16 0
BBX 11 24 2 0
BITMAP
0100
0200
0000
1080
1080
0000
0000
C020
C020
C020
C020
C020
C020
C020
C020
C020
C020
C020
C020
4020
4020
6060
30C0
1F00
ENDCHAR
STARTCHAR 01D8
ENCODING 472
SWIDTH 520 0
DWIDTH 13 0
BBX 9 20 2 1
BITMAP
0400
0800
0000
2300
2200
0000
0000
8080
8080
8080
8080
8080
8080
8080
8080
8080
8080
C180
4280
3C80
ENDCHAR
STARTCHAR 01D9
ENCODING 473
SWIDTH 640 0
DWIDTH 16 0
BBX 11 24 2 0
BITMAP
1080
0900
0600
0000
1080
1080
0000
C020
C020
C020
C020
C020
C020
C020
C020
C020
C020
C020
C020
4020
4020
6060
30C0
1F00
ENDCHAR
STARTCHAR 01DA
ENCODING 474
SWIDTH 520 0
DWIDTH 13 0
BBX 9 21 2 0
BITMAP
2000
1600
0C00
0000
2300
2200
0000
0000
8080
8080
8080
8080
8080
8080
8080
8080
8080
8080
C180
4280
3C80
ENDCHAR
STARTCHAR 01DB
ENCODING 475
SWIDTH 640 0
DWIDTH 16 0
BBX 11 24 2 0
BITMAP
0800
0400
0000
1080
1080
0000
0000
C020
C020
C020
C020
C020
C020
C020
C020
C020
C020
C020
C020
4020
4020
6060
30C0
1F00
ENDCHAR
STARTCHAR 01DC
ENCODING 476
SWIDTH 520 0
DWIDTH 13 0
BBX 9 21 2 0
BITMAP
1000
1800
0800
0000
2300
2200
0000
0000
8080
8080
8080
8080
8080
8080
8080
8080
8080
8080
C180
4280
3C80
ENDCHAR
STARTCHAR 01E2
ENCODING 482
SWIDTH 800 0
DWIDTH 20 0
BBX 18 20 1 0
BITMAP
003F80
000000
000000
00FFC0
00C000
014000
014000
024000
024000
044000
047F80
084000
084000
1FC000
204000
204000
404000
404000
804000
807FC0
ENDCHAR
STARTCHAR 01E3
ENCODING 483
SWIDTH 800 0
DWIDTH 20 0
BBX 17 16 2 0
BITMAP
07E000
000000
000000
3C3C00
C26200
018100
018100
018080
070080
39FF80
410000
818000
808000
81C000
C66100
783E00
ENDCHAR
STARTCHAR 01E6
ENCODING 486
SWIDTH 600 0
DWIDTH 15 0
BBX 12 21 1 0
BITMAP
0420
02C0
0180
0000
07C0
1830
3010
2000
4000
4000
4000
C000
C000
C1F0
C010
4010
4010
6010
3010
1830
07C0
ENDCHAR
STARTCHAR 01E7
ENCODING 487
SWIDTH 480 0
DWIDTH 12 0
BBX 11 25 1 -6
BITMAP
2080
1100
0A00
0400
0000
0000
1FE0
2100
4080
4080
4080
4080
6080
3100
3E00
4000
4000
6000
3FC0
4060
4020
8020
C040
60C0
1F00
ENDCHAR
STARTCHAR 01EA
ENCODING 490
SWIDTH 640 0
DWIDTH 16 0
BBX 14 22 1 -5
BITMAP
07C0
1860
3010
2018
4008
400C
4004
C004
C004
C004
4004
400C
4008
6008
3010
1860
07C0
0100
0200
0200
0200
0180
ENDCHAR
STARTCHAR 01EB
ENCODING 491
SWIDTH 520 0
DWIDTH 13 0
BBX 11 18 1 -5
BITMAP
0F00
3080
6040
4060
4020
C020
8020
C020
4020
4060
6040
3080
1F00
0400
0400
0800
0C00
0700
ENDCHAR
STARTCHAR 01F4
ENCODING 500
SWIDTH 600 0
DWIDTH 15 0
BBX 12 21 1 1
BITMAP
0040
0080
0100
0000
07C0
1830
3010
2000
4000
4000
4000
C000
C000
C1F0
C010
4010
4010
6010
3010
1830
07C0
ENDCHAR
STARTCHAR 01F5
ENCODING 501
SWIDTH 480 0
DWIDTH 12 0
BBX 11 25 1 -6
BITMAP
0100
0300
0600
0800
0000
0000
1FE0
2100
4080
4080
4080
4080
6080
3100
3E00
4000
4000
6000
3FC0
4060
4020
8020
C040
60C0
1F00
ENDCHAR
STARTCHAR 01F8
ENCODING 504
SWIDTH 640 0
DWIDTH 16 0
BBX 11 21 2 1
BITMAP
0800
0400
0200
0000
C020
C020
A020
B020
D020
C820
C820
C420
C620
C220
C320
C120
C0A0
C0A0
C060
C060
C020
ENDCHAR
STARTCHAR 01F9
ENCODING 505
SWIDTH 520 0
DWIDTH 13 0
BBX 9 18 2 1
BITMAP
1000
0800
0400
0000
0000
8F00
B180
C080
8080
8080
8080
8080
8080
8080
8080
8080
8080
8080
ENDCHAR
STARTCHAR 01FC
ENCODING 508
SWIDTH 800 0
DWIDTH 20 0
BBX 18 22 1 0
BITMAP
000100
000300
000400
000000
000000
00FFC0
00C000
014000
014000
024000
024000
044000
047F80
084000
084000
1FC000
204000
204000
404000
404000
804000
807FC0
ENDCHAR
STARTCHAR 01FD
ENCODING 509
SWIDTH 800 0
DWIDTH 20 0
BBX 17 19 2 1
BITMAP
006000
004000
008000
010000
000000
000000
3C3C00
C26200
018100
018100
018080
070080
39FF80
410000
818000
808000
81C000
C66100
783E00
ENDCHAR
STARTCHAR 0218
ENCODING 536
SWIDTH 520 0
DWIDTH 13 0
BBX 11 22 1 -5
BITMAP
0F00
30C0
6040
4000
4000
6000
3000
1C00
0700
01C0
0060
0020
0020
0020
C060
70C0
1F00
0000
0400
0200
0200
0C00
ENDCHAR
STARTCHAR 0219
ENCODING 537
SWIDTH 400 0
DWIDTH 10 0
BBX 8 18 1 -5
BITMAP
3C
43
C0
C0
40
70
1C
03
01
01
01
C3
3C
00
18
04
04
38
ENDCHAR
STARTCHAR 021A
ENCODING 538
SWIDTH 520 0
DWIDTH 13 0
BBX 11 22 1 -5
BITMAP
FFE0
0400
0400
0400
0400
0400
0400
0400
0400
0400
0400
0400
0400
0400
0400
0400
0400
0000
0400
0200
0200
0C00
ENDCHAR
STARTCHAR 021B
ENCODING 539
SWIDTH 320 0
DWIDTH 8 0
BBX 7 21 1 -5
BITMAP
20
20
20
FC
20
20
20
20
20
20
20
20
20
20
20
1E
00
18
04
04
30
ENDCHAR
STARTCHAR 0237
ENCODING 567
SWIDTH 240 0
DWIDTH 6 0
BBX 4 18 -1 -5
BITMAP
10
10
10
10
10
10
10
10
10
10
10
10
10
10
10
10
10
E0
ENDCHAR
STARTCHAR 0243
ENCODING 579
SWIDTH 600 0
DWIDTH 15 0
BBX 13 17 1 0
BITMAP
3F80
2060
2020
2030
2030
2020
2060
3F80
2060
2010
2018
FE08
2008
2010
2010
2060
3F80
ENDCHAR
STARTCHAR 0250
ENCODING 592
SWIDTH 480 0
DWIDTH 12 0
BBX 9 13 2 0
BITMAP
8F00
A180
C080
8080
8080
8100
8E00
F000
8000
8000
4000
6180
3E00
ENDCHAR
STARTCHAR 0251
ENCODING 593
SWIDTH 560 0
DWIDTH 14 0
BBX 10 13 1 0
BITMAP
0F40
30C0
6040
4040
4040
C040
8040
C040
C040
4040
6040
31C0
1E40
ENDCHAR
STARTCHAR 0252
ENCODING 594
SWIDTH 560 0
DWIDTH 14 0
BBX 10 13 2 0
BITMAP
8F00
A180
C0C0
8040
8040
8040
8040
8040
8040
8040
C080
E100
9E00
ENDCHAR
STARTCHAR 0253
ENCODING 595
SWIDTH 560 0
DWIDTH 14 0
BBX 10 18 2 0
BITMAP
3C00
4000
C000
8000
8000
8F00
A180
C0C0
8040
8040
8040
8040
8040
8040
8040
C080
E100
9E00
ENDCHAR
STARTCHAR 0254
ENCODING 596
SWIDTH 440 0
DWIDTH 11 0
BBX 9 13 1 0
BITMAP
7C00
C600
0100
0100
0180
0080
0080
0080
0080
0100
0100
C600
7C00
ENDCHAR
STARTCHAR 0255
ENCODING 597
SWIDTH 440 0
DWIDTH 11 0
BBX 9 14 1 -1
BITMAP
0F00
3080
6000
4000
4000
C000
8000
C000
4700
4880
7080
3080
2F00
4000
ENDCHAR
STARTCHAR 0256
ENCODING 598
SWIDTH 560 0
DWIDTH 14 0
BBX 13 22 1 -4
BITMAP
0040
0040
0040
0040
0040
0F40
30C0
6040
4040
4040
C040
8040
C040
C040
4040
6040
31C0
1E40
0040
0040
0060
0038
ENDCHAR
STARTCHAR 0257
ENCODING 599
SWIDTH 560 0
DWIDTH 14 0
BBX 13 18 1 0
BITMAP
0038
0060
0040
0040
0040
0F40
30C0
6040
4040
4040
C040
8040
C040
C040
4040
6040
31C0
1E40
ENDCHAR
STARTCHAR 0258
ENCODING 600
SWIDTH 480 0
DWIDTH 12 0
BBX 10 13 1 0
BITMAP
1E00
6100
4080
8080
80C0
8040
FFC0
0040
00C0
0080
0080
4300
3E00
ENDCHAR
STARTCHAR 0259
ENCODING 601
SWIDTH 480 0
DWIDTH 12 0
BBX 10 13 1 0
BITMAP
3E00
4300
0080
0080
00C0
0040
FFC0
8040
80C0
8080
4080
6100
1E00
ENDCHAR
STARTCHAR 025A
ENCODING 602
SWIDTH 600 0
DWIDTH 15 0
BBX 15 13 1 0
BITMAP
3E00
4300
0080
0090
00F0
03C8
0C4E
7040
8040
8080
4080
6100
1E00
ENDCHAR
STARTCHAR 025B
ENCODING 603
SWIDTH 440 0
DWIDTH 11 0
BBX 9 13 1 0
BITMAP
1E00
2100
4000
4000
4000
2000
1E00
6000
4000
8000
C000
6180
3F00
ENDCHAR
STARTCHAR 025C
ENCODING 604
SWIDTH 440 0
DWIDTH 11 0
BBX 9 13 1 0
BITMAP
3E00
4300
0100
0100
0100
0200
3C00
0300
0180
0080
0180
C300
3E00
ENDCHAR
STARTCHAR 025E
ENCODING 606
SWIDTH 520 0
DWIDTH 13 0
BBX 11 13 1 0
BITMAP
1F00
2180
4040
4060
4020
2020
1C20
6020
4020
8060
C040
6080
3F00
ENDCHAR
STARTCHAR 025F
ENCODING 607
SWIDTH 240 0
DWIDTH 6 0
BBX 7 18 -1 -5
BITMAP
18
18
18
18
18
7E
18
18
18
18
18
18
18
18
18
18
10
F0
ENDCHAR
STARTCHAR 0260
ENCODING 608
SWIDTH 560 0
DWIDTH 14 0
BBX 13 21 1 -5
BITMAP
0038
0020
0040
0F40
30C0
6040
4040
4040
C040
8040
C040
C040
4040
6040
31C0
1E40
0040
0040
0040
6080
1F00
ENDCHAR
STARTCHAR 0261
ENCODING 609
SWIDTH 560 0
DWIDTH 14 0
BBX 10 18 1 -5
BITMAP
0F40
30C0
6040
4040
4040
C040
8040
C040
C040
4040
6040
31C0
1E40
0040
0040
0040
6080
1F00
ENDCHAR
STARTCHAR 0262
ENCODING 610
SWIDTH 480 0
DWIDTH 12 0
BBX 10 13 1 0
BITMAP
0F00
30C0
6000
4000
C000
8000
83C0
C040
4040
4040
6040
30C0
0F00
ENDCHAR
STARTCHAR 0263
ENCODING 611
SWIDTH 440 0
DWIDTH 11 0
BBX 10 18 0 -6
BITMAP
C040
4040
4040
2080
2080
3100
1100
1100
0A00
0A00
0E00
0400
0A00
0A00
1A00
1100
1A00
0E00
ENDCHAR
STARTCHAR 0264
ENCODING 612
SWIDTH 480 0
DWIDTH 12 0
BBX 12 13 0 0
BITMAP
F0F0
1900
0600
0600
0900
1080
1080
2040
2040
2040
2040
1080
0F00
ENDCHAR
STARTCHAR 0265
ENCODING 613
SWIDTH 520 0
DWIDTH 13 0
BBX 9 17 2 -5
BITMAP
8080
8080
8080
8080
8080
8080
8080
8080
8080
C180
4280
3C80
0080
0080
0080
0080
0080
ENDCHAR
STARTCHAR 0266
ENCODING 614
SWIDTH 520 0
DWIDTH 13 0
BBX 9 18 2 0
BITMAP
3C00
4000
C000
8000
8000
8F00
B180
C080
8080
8080
8080
8080
8080
8080
8080
8080
8080
8080
ENDCHAR
STARTCHAR 0267
ENCODING 615
SWIDTH 520 0
DWIDTH 13 0
BBX 9 23 2 -5
BITMAP
3C00
4000
C000
8000
8000
8F00
B180
C080
8080
8080
8080
8080
8080
8080
8080
8080
8080
8080
0080
0080
0080
0080
0700
ENDCHAR
STARTCHAR 0268
ENCODING 616
SWIDTH 240 0
DWIDTH 6 0
BBX 6 18 0 0
BITMAP
30
30
00
00
00
30
30
30
30
30
30
FC
30
30
30
30
30
30
ENDCHAR
STARTCHAR 026A
ENCODING 618
SWIDTH 320 0
DWIDTH 8 0
BBX 6 13 1 0
BITMAP
FC
20
20
20
20
20
20
20
20
20
20
20
FC
ENDCHAR
STARTCHAR 026C
ENCODING 620
SWIDTH 240 0
DWIDTH 6 0
BBX 6 19 0 0
BITMAP
10
10
10
10
10
10
F0
90
90
7C
10
10
10
10
10
10
10
10
18
ENDCHAR
STARTCHAR 026D
ENCODING 621
SWIDTH 240 0
DWIDTH 6 0
BBX 4 23 2 -5
BITMAP
80
80
80
80
80
80
80
80
80
80
80
80
80
80
80
80
80
80
80
80
80
40
70
ENDCHAR
STARTCHAR 026E
ENCODING 622
SWIDTH 560 0
DWIDTH 14 0
BBX 11 24 2 -5
BITMAP
8000
8000
8000
8000
8000
8000
FFE0
8040
8080
8180
8100
8200
8400
8400
8F80
80C0
8060
8020
0020
0020
0020
0040
30C0
0F00
ENDCHAR
STARTCHAR 026F
ENCODING 623
SWIDTH 800 0
DWIDTH 20 0
BBX 16 12 2 0
BITMAP
8081
8081
8081
8081
8081
8081
8081
8081
8081
C183
42C5
3C79
ENDCHAR
STARTCHAR 0270
ENCODING 624
SWIDTH 800 0
DWIDTH 20 0
BBX 16 17 2 -5
BITMAP
8081
8081
8081
8081
8081
8081
8081
8081
8081
C183
42C5
3C79
0001
0001
0001
0001
0001
ENDCHAR
STARTCHAR 0271
ENCODING 625
SWIDTH 800 0
DWIDTH 20 0
BBX 16 18 2 -5
BITMAP
8E1E
A123
C1C1
8081
8081
8081
8081
8081
8081
8081
8081
8081
8081
0001
0001
0001
0001
000E
ENDCHAR
STARTCHAR 0272
ENCODING 626
SWIDTH 520 0
DWIDTH 13 0
BBX 11 18 0 -5
BITMAP
23C0
2C60
3020
2020
2020
2020
2020
2020
2020
2020
2020
2020
2020
2000
2000
2000
2000
C000
ENDCHAR
STARTCHAR 0273
ENCODING 627
SWIDTH 520 0
DWIDTH 13 0
BBX 12 18 2 -5
BITMAP
8F00
B180
C080
8080
8080
8080
8080
8080
8080
8080
8080
8080
8080
0080
0080
0080
00C0
0070
ENDCHAR
STARTCHAR 0274
ENCODING 628
SWIDTH 520 0
DWIDTH 13 0
BBX 9 13 2 0
BITMAP
C080
C080
A080
A080
9080
9880
8880
8480
8480
8280
8280
8180
8080
ENDCHAR
STARTCHAR 0275
ENCODING 629
SWIDTH 520 0
DWIDTH 13 0
BBX 11 13 1 0
BITMAP
0F00
3080
6040
4060
4020
8020
FFE0
8020
C020
4020
6040
3080
1F00
ENDCHAR
STARTCHAR 0276
ENCODING 630
SWIDTH 680 0
DWIDTH 17 0
BBX 16 13 1 0
BITMAP
0FFE
3080
6080
4080
4080
C080
C0FC
C080
C080
4080
6080
3080
0FFF
ENDCHAR
STARTCHAR 0278
ENCODING 632
SWIDTH 640 0
DWIDTH 16 0
BBX 14 24 1 -5
BITMAP
0100
0100
0100
0100
0100
0100
0FC0
1130
2118
4108
410C
C104
8104
C104
410C
4108
2118
3130
0FC0
0100
0100
0100
0100
0100
ENDCHAR
STARTCHAR 0279
ENCODING 633
SWIDTH 320 0
DWIDTH 8 0
BBX 6 12 0 0
BITMAP
04
04
04
04
04
04
04
04
0C
14
14
E4
ENDCHAR
STARTCHAR 027A
ENCODING 634
SWIDTH 320 0
DWIDTH 8 0
BBX 6 18 0 0
BITMAP
04
04
04
04
04
04
04
04
04
04
04
04
04
04
0C
14
14
E4
ENDCHAR
STARTCHAR 027B
ENCODING 635
SWIDTH 320 0
DWIDTH 8 0
BBX 8 16 0 -4
BITMAP
04
04
04
04
04
04
04
04
0C
14
14
E4
04
04
04
07
ENDCHAR
STARTCHAR 027D
ENCODING 637
SWIDTH 320 0
DWIDTH 8 0
BBX 6 18 2 -5
BITMAP
9C
A0
C0
C0
80
80
80
80
80
80
80
80
80
80
80
C0
40
70
ENDCHAR
STARTCHAR 027E
ENCODING 638
SWIDTH 320 0
DWIDTH 8 0
BBX 6 12 2 1
BITMAP
3C
60
40
C0
80
80
80
80
80
80
80
80
ENDCHAR
STARTCHAR 0280
ENCODING 640
SWIDTH 480 0
DWIDTH 12 0
BBX 8 12 2 1
BITMAP
FE
83
81
81
81
83
FE
84
84
82
83
81
ENDCHAR
STARTCHAR 0281
ENCODING 641
SWIDTH 480 0
DWIDTH 12 0
BBX 9 12 1 0
BITMAP
C180
4180
2180
3180
1180
1F80
6180
4180
C180
4180
6180
3F80
ENDCHAR
STARTCHAR 0282
ENCODING 642
SWIDTH 400 0
DWIDTH 10 0
BBX 8 17 1 -4
BITMAP
3C
43
C0
C0
40
70
1C
03
01
01
01
C3
FC
80
80
80
70
ENDCHAR
STARTCHAR 0283
ENCODING 643
SWIDTH 240 0
DWIDTH 6 0
BBX 7 23 -1 -5
BITMAP
0E
08
18
10
10
10
10
10
10
10
10
10
10
10
10
10
10
10
10
10
10
10
E0
ENDCHAR
STARTCHAR 0284
ENCODING 644
SWIDTH 240 0
DWIDTH 6 0
BBX 8 23 -1 -5
BITMAP
07
08
08
18
18
18
18
18
18
18
18
7E
18
18
18
18
18
18
18
18
18
10
F0
ENDCHAR
STARTCHAR 0288
ENCODING 648
SWIDTH 320 0
DWIDTH 8 0
BBX 7 21 1 -5
BITMAP
20
20
20
FC
20
20
20
20
20
20
20
20
20
20
20
20
20
20
20
20
1E
ENDCHAR
STARTCHAR 0289
ENCODING 649
SWIDTH 560 0
DWIDTH 14 0
BBX 13 13 0 0
BITMAP
3020
3020
3020
3020
3020
FFF8
3020
3020
3020
1020
1060
18A0
0F20
ENDCHAR
STARTCHAR 028A
ENCODING 650
SWIDTH 520 0
DWIDTH 13 0
BBX 11 13 1 0
BITMAP
F1E0
2080
2040
4040
4020
4020
C020
C020
C020
4060
6040
3080
1F00
ENDCHAR
STARTCHAR 028B
ENCODING 651
SWIDTH 520 0
DWIDTH 13 0
BBX 9 13 2 0
BITMAP
8700
8180
8080
8080
8080
8080
8080
8080
8080
8080
4100
6300
3C00
ENDCHAR
STARTCHAR 028C
ENCODING 652
SWIDTH 440 0
DWIDTH 11 0
BBX 10 12 0 1
BITMAP
0400
0A00
0A00
1200
1100
1100
2100
2080
2080
40C0
4040
C040
ENDCHAR
STARTCHAR 028D
ENCODING 653
SWIDTH 680 0
DWIDTH 17 0
BBX 15 13 1 0
BITMAP
1830
1830
2828
2828
2448
2448
4444
4444
4284
4286
8282
8282
8102
ENDCHAR
STARTCHAR 028E
ENCODING 654
SWIDTH 440 0
DWIDTH 11 0
BBX 10 18 1 0
BITMAP
01C0
0200
0400
0400
0800
0800
1800
1800
1400
2400
2400
2200
4200
4100
4100
8100
8080
8080
ENDCHAR
STARTCHAR 028F
ENCODING 655
SWIDTH 400 0
DWIDTH 10 0
BBX 9 12 0 0
BITMAP
C080
4080
6100
2100
1200
1200
0C00
0800
0800
0800
0800
0800
ENDCHAR
STARTCHAR 0290
ENCODING 656
SWIDTH 400 0
DWIDTH 10 0
BBX 11 18 1 -5
BITMAP
FF00
0300
0200
0400
0400
0800
1800
1000
2000
6000
4000
8000
FF00
0100
0100
0100
0180
00E0
ENDCHAR
STARTCHAR 0291
ENCODING 657
SWIDTH 400 0
DWIDTH 10 0
BBX 10 15 1 -2
BITMAP
FF00
0300
0200
0400
0400
0800
1800
1000
2380
6440
4440
8880
FF00
0800
1000
ENDCHAR
STARTCHAR 0292
ENCODING 658
SWIDTH 400 0
DWIDTH 10 0
BBX 10 18 0 -5
BITMAP
7F80
0180
0100
0200
0400
0400
0800
1000
3E00
0180
0080
00C0
0040
00C0
0080
0080
C100
3E00
ENDCHAR
STARTCHAR 0294
ENCODING 660
SWIDTH 400 0
DWIDTH 10 0
BBX 9 18 0 0
BITMAP
3E00
4100
8080
0080
0080
0080
0080
0180
0300
0600
0800
0800
0800
0800
0800
0800
0800
0800
ENDCHAR
STARTCHAR 0295
ENCODING 661
SWIDTH 400 0
DWIDTH 10 0
BBX 9 18 1 0
BITMAP
3E00
4100
8080
8000
8000
8000
8000
C000
6000
3000
0800
0800
0800
0800
0800
0800
0800
0800
ENDCHAR
STARTCHAR 0298
ENCODING 664
SWIDTH 520 0
DWIDTH 13 0
BBX 9 18 2 0
BITMAP
1C00
6200
4100
C100
8180
8080
8080
8080
8880
8880
8080
8080
8080
8080
C100
4100
6200
3C00
ENDCHAR
STARTCHAR 0299
ENCODING 665
SWIDTH 480 0
DWIDTH 12 0
BBX 9 13 2 0
BITMAP
FE00
8100
8080
8080
8080
8100
FE00
8180
8080
8080
8080
8180
FE00
ENDCHAR
STARTCHAR 029C
ENCODING 668
SWIDTH 560 0
DWIDTH 14 0
BBX 9 12 2 0
BITMAP
8080
8080
8080
8080
8080
FF80
8080
8080
8080
8080
8080
8080
ENDCHAR
STARTCHAR 029D
ENCODING 669
SWIDTH 240 0
DWIDTH 6 0
BBX 8 23 -2 -6
BITMAP
0C
0C
00
00
00
04
04
04
04
04
04
04
04
04
04
04
04
04
F4
88
8C
F2
01
ENDCHAR
STARTCHAR 029F
ENCODING 671
SWIDTH 400 0
DWIDTH 10 0
BBX 7 12 2 0
BITMAP
80
80
80
80
80
80
80
80
80
80
80
FE
ENDCHAR
STARTCHAR 02A1
ENCODING 673
SWIDTH 440 0
DWIDTH 11 0
BBX 10 18 0 0
BITMAP
1E00
6180
0080
0040
0040
0040
0080
0080
0100
0600
FFC0
0800
0800
0800
0800
0800
0800
0800
ENDCHAR
STARTCHAR 02A2
ENCODING 674
SWIDTH 440 0
DWIDTH 11 0
BBX 10 18 0 0
BITMAP
1F00
30C0
4040
4000
4000
4000
4000
2000
3000
0800
FFC0
0400
0400
0400
0400
0400
0400
0400
ENDCHAR
STARTCHAR 02B0
ENCODING 688
SWIDTH 360 0
DWIDTH 9 0
BBX 7 12 1 10
BITMAP
80
80
80
80
BC
C4
82
82
82
82
82
82
ENDCHAR
STARTCHAR 02B2
ENCODING 690
SWIDTH 160 0
DWIDTH 4 0
BBX 4 15 -1 7
BITMAP
30
00
00
20
20
20
20
20
20
20
20
20
20
20
E0
ENDCHAR
STARTCHAR 02B3
ENCODING 691
SWIDTH 240 0
DWIDTH 6 0
BBX 4 8 1 10
BITMAP
B0
C0
C0
80
80
80
80
80
ENDCHAR
STARTCHAR 02B7
ENCODING 695
SWIDTH 480 0
DWIDTH 12 0
BBX 10 8 1 10
BITMAP
8840
8C40
9480
9480
5280
5280
6300
2100
ENDCHAR
STARTCHAR 02B8
ENCODING 696
SWIDTH 280 0
DWIDTH 7 0
BBX 6 11 1 7
BITMAP
84
84
88
48
48
30
30
20
20
20
C0
ENDCHAR
STARTCHAR 02B9
ENCODING 697
SWIDTH 200 0
DWIDTH 5 0
BBX 2 5 2 12
BITMAP
40
80
80
80
80
ENDCHAR
STARTCHAR 02BB
ENCODING 699
SWIDTH 200 0
DWIDTH 5 0
BBX 3 6 1 12
BITMAP
20
40
40
80
C0
40
ENDCHAR
STARTCHAR 02BC
ENCODING 700
SWIDTH 200 0
DWIDTH 5 0
BBX 2 5 2 12
BITMAP
C0
C0
40
40
80
ENDCHAR
STARTCHAR 02BE
ENCODING 702
SWIDTH 160 0
DWIDTH 4 0
BBX 3 5 1 14
BITMAP
C0
40
20
40
80
ENDCHAR
STARTCHAR 02BF
ENCODING 703
SWIDTH 160 0
DWIDTH 4 0
BBX 3 5 0 14
BITMAP
60
80
80
40
20
ENDCHAR
STARTCHAR 02C1
ENCODING 705
SWIDTH 280 0
DWIDTH 7 0
BBX 7 12 0 10
BITMAP
3C
42
80
80
40
60
30
10
10
10
10
10
ENDCHAR
STARTCHAR 02C6
ENCODING 710
SWIDTH 520 0
DWIDTH 13 0
BBX 7 4 3 14
BITMAP
18
28
44
82
ENDCHAR
STARTCHAR 02C7
ENCODING 711
SWIDTH 520 0
DWIDTH 13 0
BBX 7 4 3 14
BITMAP
82
44
28
18
ENDCHAR
STARTCHAR 02C8
ENCODING 712
SWIDTH 80 0
DWIDTH 2 0
BBX 1 5 1 13
BITMAP
80
80
80
80
80
ENDCHAR
STARTCHAR 02C9
ENCODING 713
SWIDTH 240 0
DWIDTH 6 0
BBX 6 1 0 15
BITMAP
FC
ENDCHAR
STARTCHAR 02CA
ENCODING 714
SWIDTH 200 0
DWIDTH 5 0
BBX 3 4 2 15
BITMAP
20
60
40
80
ENDCHAR
STARTCHAR 02CB
ENCODING 715
SWIDTH 200 0
DWIDTH 5 0
BBX 4 4 0 15
BITMAP
80
40
60
30
ENDCHAR
STARTCHAR 02CC
ENCODING 716
SWIDTH 80 0
DWIDTH 2 0
BBX 1 5 1 -7
BITMAP
80
80
80
80
80
ENDCHAR
STARTCHAR 02D0
ENCODING 720
SWIDTH 200 0
DWIDTH 5 0
BBX 2 11 2 0
BITMAP
C0
80
00
00
00
00
00
00
00
80
C0
ENDCHAR
STARTCHAR 02D1
ENCODING 721
SWIDTH 200 0
DWIDTH 5 0
BBX 2 2 2 6
BITMAP
C0
80
ENDCHAR
STARTCHAR 02D8
ENCODING 728
SWIDTH 520 0
DWIDTH 13 0
BBX 7 4 3 14
BITMAP
82
82
46
38
ENDCHAR
STARTCHAR 02D9
ENCODING 729
SWIDTH 520 0
DWIDTH 13 0
BBX 2 2 6 15
BITMAP
C0
80
ENDCHAR
STARTCHAR 02DA
ENCODING 730
SWIDTH 520 0
DWIDTH 13 0
BBX 5 5 4 14
BITMAP
70
88
88
48
30
ENDCHAR
STARTCHAR 02DB
ENCODING 731
SWIDTH 520 0
DWIDTH 13 0
BBX 4 5 5 -5
BITMAP
60
40
80
80
70
ENDCHAR
STARTCHAR 02DC
ENCODING 732
SWIDTH 520 0
DWIDTH 13 0
BBX 8 4 3 14
BITMAP
61
91
8A
06
ENDCHAR
STARTCHAR 02DD
ENCODING 733
SWIDTH 520 0
DWIDTH 13 0
BBX 6 4 5 15
BITMAP
44
48
88
90
ENDCHAR
STARTCHAR 02DE
ENCODING 734
SWIDTH 120 0
DWIDTH 3 0
BBX 6 4 -2 6
BITMAP
20
E0
20
1C
ENDCHAR
STARTCHAR 02E0
ENCODING 736
SWIDTH 280 0
DWIDTH 7 0
BBX 7 12 0 6
BITMAP
82
42
44
44
28
28
18
10
28
28
28
10
ENDCHAR
STARTCHAR 02E1
ENCODING 737
SWIDTH 160 0
DWIDTH 4 0
BBX 2 12 1 10
BITMAP
80
80
80
80
80
80
80
80
80
80
80
40
ENDCHAR
STARTCHAR 02E2
ENCODING 738
SWIDTH 280 0
DWIDTH 7 0
BBX 5 8 1 10
BITMAP
70
80
80
60
18
08
08
F0
ENDCHAR
STARTCHAR 02E3
ENCODING 739
SWIDTH 280 0
DWIDTH 7 0
BBX 7 8 0 10
BITMAP
44
64
28
10
28
28
44
86
ENDCHAR
STARTCHAR 0300
ENCODING 768
SWIDTH 0 0
DWIDTH 0 0
BBX 4 4 -3 15
BITMAP
80
40
20
10
ENDCHAR
STARTCHAR 0301
ENCODING 769
SWIDTH 0 0
DWIDTH 0 0
BBX 4 4 -1 15
BITMAP
10
20
40
80
ENDCHAR
STARTCHAR 0302
ENCODING 770
SWIDTH 0 0
DWIDTH 0 0
BBX 6 4 -3 14
BITMAP
30
48
CC
84
ENDCHAR
STARTCHAR 0303
ENCODING 771
SWIDTH 0 0
DWIDTH 0 0
BBX 8 4 -4 14
BITMAP
61
91
89
86
ENDCHAR
STARTCHAR 0304
ENCODING 772
SWIDTH 0 0
DWIDTH 0 0
BBX 6 1 -3 15
BITMAP
FC
ENDCHAR
STARTCHAR 0305
ENCODING 773
SWIDTH 0 0
DWIDTH 0 0
BBX 6 1 -3 15
BITMAP
FC
ENDCHAR
STARTCHAR 0306
ENCODING 774
SWIDTH 0 0
DWIDTH 0 0
BBX 8 4 -4 14
BITMAP
81
42
62
3C
ENDCHAR
STARTCHAR 0307
ENCODING 775
SWIDTH 0 0
DWIDTH 0 0
BBX 2 2 -1 15
BITMAP
C0
C0
ENDCHAR
STARTCHAR 0308
ENCODING 776
SWIDTH 0 0
DWIDTH 0 0
BBX 6 2 -3 15
BITMAP
C4
CC
ENDCHAR
STARTCHAR 0309
ENCODING 777
SWIDTH 0 0
DWIDTH 0 0
BBX 3 4 -1 15
BITMAP
80
60
20
C0
ENDCHAR
STARTCHAR 030A
ENCODING 778
SWIDTH 0 0
DWIDTH 0 0
BBX 4 5 -2 14
BITMAP
70
90
90
90
60
ENDCHAR
STARTCHAR 030B
ENCODING 779
SWIDTH 0 0
DWIDTH 0 0
BBX 6 4 -2 15
BITMAP
24
44
48
90
ENDCHAR
STARTCHAR 030C
ENCODING 780
SWIDTH 0 0
DWIDTH 0 0
BBX 6 4 -3 14
BITMAP
84
CC
58
30
ENDCHAR
STARTCHAR 030F
ENCODING 783
SWIDTH 0 0
DWIDTH 0 0
BBX 6 4 -4 15
BITMAP
90
88
48
44
ENDCHAR
STARTCHAR 0311
ENCODING 785
SWIDTH 0 0
DWIDTH 0 0
BBX 8 4 -4 14
BITMAP
3C
42
42
81
ENDCHAR
STARTCHAR 0312
ENCODING 786
SWIDTH 0 0
DWIDTH 0 0
BBX 2 4 -1 14
BITMAP
40
80
C0
C0
ENDCHAR
STARTCHAR 0313
ENCODING 787
SWIDTH 0 0
DWIDTH 0 0
BBX 2 4 -1 14
BITMAP
C0
C0
40
80
ENDCHAR
STARTCHAR 0318
ENCODING 792
SWIDTH 0 0
DWIDTH 0 0
BBX 4 5 -2 -6
BITMAP
10
10
F0
10
10
ENDCHAR
STARTCHAR 0319
ENCODING 793
SWIDTH 0 0
DWIDTH 0 0
BBX 4 5 -2 -6
BITMAP
80
80
F0
80
80
ENDCHAR
STARTCHAR 031A
ENCODING 794
SWIDTH 0 0
DWIDTH 0 0
BBX 4 4 -2 14
BITMAP
F0
10
10
10
ENDCHAR
STARTCHAR 031B
ENCODING 795
SWIDTH 0 0
DWIDTH 0 0
BBX 3 5 0 11
BITMAP
20
20
20
20
C0
ENDCHAR
STARTCHAR 031C
ENCODING 796
SWIDTH 0 0
DWIDTH 0 0
BBX 2 5 -1 -7
BITMAP
C0
80
80
80
40
ENDCHAR
STARTCHAR 031D
ENCODING 797
SWIDTH 0 0
DWIDTH 0 0
BBX 4 3 -2 -5
BITMAP
40
40
F0
ENDCHAR
STARTCHAR 031E
ENCODING 798
SWIDTH 0 0
DWIDTH 0 0
BBX 4 3 -2 -6
BITMAP
F0
40
40
ENDCHAR
STARTCHAR 031F
ENCODING 799
SWIDTH 0 0
DWIDTH 0 0
BBX 4 3 -2 -5
BITMAP
40
F0
40
ENDCHAR
STARTCHAR 0320
ENCODING 800
SWIDTH 0 0
DWIDTH 0 0
BBX 4 1 -2 -4
BITMAP
F0
ENDCHAR
STARTCHAR 0323
ENCODING 803
SWIDTH 0 0
DWIDTH 0 0
BBX 2 2 -1 -5
BITMAP
C0
C0
ENDCHAR
STARTCHAR 0324
ENCODING 804
SWIDTH 0 0
DWIDTH 0 0
BBX 6 2 -3 -5
BITMAP
CC
8C
ENDCHAR
STARTCHAR 0325
ENCODING 805
SWIDTH 0 0
DWIDTH 0 0
BBX 4 6 -2 -7
BITMAP
60
90
90
90
90
60
ENDCHAR
STARTCHAR 0326
ENCODING 806
SWIDTH 0 0
DWIDTH 0 0
BBX 4 4 -2 -5
BITMAP
60
10
10
C0
ENDCHAR
STARTCHAR 0327
ENCODING 807
SWIDTH 0 0
DWIDTH 0 0
BBX 4 6 -2 -5
BITMAP
20
40
60
10
10
C0
ENDCHAR
STARTCHAR 0328
ENCODING 808
SWIDTH 0 0
DWIDTH 0 0
BBX 3 5 -1 -5
BITMAP
40
80
80
80
E0
ENDCHAR
STARTCHAR 0329
ENCODING 809
SWIDTH 0 0
DWIDTH 0 0
BBX 2 5 -1 -7
BITMAP
80
80
80
80
C0
ENDCHAR
STARTCHAR 032A
ENCODING 810
SWIDTH 0 0
DWIDTH 0 0
BBX 6 4 -3 -6
BITMAP
FC
84
84
84
ENDCHAR
STARTCHAR 032C
ENCODING 812
SWIDTH 0 0
DWIDTH 0 0
BBX 6 4 -3 -5
BITMAP
84
CC
48
30
ENDCHAR
STARTCHAR 032E
ENCODING 814
SWIDTH 0 0
DWIDTH 0 0
BBX 8 4 -4 -6
BITMAP
81
42
62
3C
ENDCHAR
STARTCHAR 032F
ENCODING 815
SWIDTH 0 0
DWIDTH 0 0
BBX 8 4 -4 -6
BITMAP
3C
42
42
81
ENDCHAR
STARTCHAR 0330
ENCODING 816
SWIDTH 0 0
DWIDTH 0 0
BBX 8 3 -4 -5
BITMAP
71
99
8E
ENDCHAR
STARTCHAR 0331
ENCODING 817
SWIDTH 0 0
DWIDTH 0 0
BBX 6 1 -3 -4
BITMAP
FC
ENDCHAR
STARTCHAR 0334
ENCODING 820
SWIDTH 0 0
DWIDTH 0 0
BBX 8 3 -4 5
BITMAP
71
99
8E
ENDCHAR
STARTCHAR 0339
ENCODING 825
SWIDTH 0 0
DWIDTH 0 0
BBX 2 5 -1 -7
BITMAP
C0
40
40
40
80
ENDCHAR
STARTCHAR 033A
ENCODING 826
SWIDTH 0 0
DWIDTH 0 0
BBX 6 4 -3 -6
BITMAP
84
84
84
FC
ENDCHAR
STARTCHAR 033B
ENCODING 827
SWIDTH 0 0
DWIDTH 0 0
BBX 6 4 -3 -6
BITMAP
FC
84
84
FC
ENDCHAR
STARTCHAR 033C
ENCODING 828
SWIDTH 0 0
DWIDTH 0 0
BBX 8 4 -4 -6
BITMAP
66
99
91
81
ENDCHAR
STARTCHAR 033D
ENCODING 829
SWIDTH 0 0
DWIDTH 0 0
BBX 4 4 -2 14
BITMAP
80
60
60
90
ENDCHAR
STARTCHAR 0342
ENCODING 834
SWIDTH 0 0
DWIDTH 0 0
BBX 8 4 -4 14
BITMAP
61
91
89
86
ENDCHAR
STARTCHAR 0345
ENCODING 837
SWIDTH 0 0
DWIDTH 0 0
BBX 2 3 0 -5
BITMAP
80
80
C0
ENDCHAR
STARTCHAR 0361
ENCODING 865
SWIDTH 0 0
DWIDTH 0 0
BBX 22 4 -11 14
BITMAP
01FE00
1E01E0
600018
800004
ENDCHAR
STARTCHAR 0374
ENCODING 884
SWIDTH 200 0
DWIDTH 5 0
BBX 2 5 2 12
BITMAP
40
80
80
80
80
ENDCHAR
STARTCHAR 0375
ENCODING 885
SWIDTH 200 0
DWIDTH 5 0
BBX 1 5 2 0
BITMAP
80
80
80
80
80
ENDCHAR
STARTCHAR 037A
ENCODING 890
SWIDTH 520 0
DWIDTH 13 0
BBX 3 3 6 -5
BITMAP
80
80
60
ENDCHAR
STARTCHAR 037E
ENCODING 894
SWIDTH 200 0
DWIDTH 5 0
BBX 3 16 1 -4
BITMAP
60
60
00
00
00
00
00
00
00
00
60
60
20
20
40
80
ENDCHAR
STARTCHAR 0384
ENCODING 900
SWIDTH 520 0
DWIDTH 13 0
BBX 3 5 6 14
BITMAP
60
40
40
80
80
ENDCHAR
STARTCHAR 0385
ENCODING 901
SWIDTH 520 0
DWIDTH 13 0
BBX 6 5 4 14
BITMAP
10
10
94
A4
20
ENDCHAR
STARTCHAR 0386
ENCODING 902
SWIDTH 520 0
DWIDTH 13 0
BBX 13 17 0 0
BITMAP
4200
4300
4500
8500
0480
0880
08C0
0840
1040
1060
1FE0
2020
2030
2010
4010
4018
4008
ENDCHAR
STARTCHAR 0387
ENCODING 903
SWIDTH 200 0
DWIDTH 5 0
BBX 2 2 2 9
BITMAP
C0
C0
ENDCHAR
STARTCHAR 0388
ENCODING 904
SWIDTH 560 0
DWIDTH 14 0
BBX 13 17 -1 0
BITMAP
4FF8
4800
4800
8800
0800
0800
0800
0FF0
0800
0800
0800
0800
0800
0800
0800
0800
0FF8
ENDCHAR
STARTCHAR 0389
ENCODING 905
SWIDTH 680 0
DWIDTH 17 0
BBX 15 17 -1 0
BITMAP
4802
4802
4802
8802
0802
0802
0802
0FFE
0802
0802
0802
0802
0802
0802
0802
0802
0802
ENDCHAR
STARTCHAR 038A
ENCODING 906
SWIDTH 280 0
DWIDTH 7 0
BBX 4 17 0 0
BITMAP
90
90
90
90
10
10
10
10
10
10
10
10
10
10
10
10
10
ENDCHAR
STARTCHAR 038C
ENCODING 908
SWIDTH 680 0
DWIDTH 17 0
BBX 16 17 -1 0
BITMAP
41F0
430C
4406
4802
8801
1001
1001
1001
1001
1001
1001
1001
0801
0802
0406
030C
01F0
ENDCHAR
STARTCHAR 038E
ENCODING 910
SWIDTH 520 0
DWIDTH 13 0
BBX 13 17 0 0
BITMAP
9008
9008
8810
8810
0420
0420
0240
0240
0380
0180
0100
0100
0100
0100
0100
0100
0100
ENDCHAR
STARTCHAR 038F
ENCODING 911
SWIDTH 680 0
DWIDTH 17 0
BBX 17 17 -1 0
BITMAP
41F000
430C00
440600
480200
880100
180100
100100
100180
100180
100100
100100
180100
080100
0C0200
040400
020C00
1F1F80
ENDCHAR
STARTCHAR 0390
ENCODING 912
SWIDTH 240 0
DWIDTH 6 0
BBX 6 19 0 0
BITMAP
10
10
A4
A4
00
00
20
20
20
20
20
20
20
20
20
20
20
20
18
ENDCHAR
STARTCHAR 0391
ENCODING 913
SWIDTH 520 0
DWIDTH 13 0
BBX 13 17 0 0
BITMAP
0200
0500
0500
0500
0880
0880
0880
1040
1040
1040
3FE0
2020
2020
4010
4010
4010
C008
ENDCHAR
STARTCHAR 0392
ENCODING 914
SWIDTH 560 0
DWIDTH 14 0
BBX 11 17 2 0
BITMAP
FF00
C0C0
C040
C040
C040
C040
C080
FF00
C0C0
C060
C020
C020
C020
C020
C060
C0C0
FF00
ENDCHAR
STARTCHAR 0393
ENCODING 915
SWIDTH 480 0
DWIDTH 12 0
BBX 9 17 2 0
BITMAP
FF80
C000
C000
C000
C000
C000
C000
C000
C000
C000
C000
C000
C000
C000
C000
C000
C000
ENDCHAR
STARTCHAR 0394
ENCODING 916
SWIDTH 560 0
DWIDTH 14 0
BBX 12 17 1 0
BITMAP
0600
0600
0A00
0900
0900
1900
1080
1080
20C0
2040
2040
4060
4020
4020
8030
8010
FFF0
ENDCHAR
STARTCHAR 0395
ENCODING 917
SWIDTH 520 0
DWIDTH 13 0
BBX 10 17 2 0
BITMAP
FF80
C000
C000
C000
C000
C000
C000
FF00
C000
C000
C000
C000
C000
C000
C000
C000
FFC0
ENDCHAR
STARTCHAR 0396
ENCODING 918
SWIDTH 520 0
DWIDTH 13 0
BBX 11 17 1 0
BITMAP
7FE0
0060
0040
0080
0080
0100
0300
0200
0400
0C00
0800
1000
1000
2000
6000
4000
FFE0
ENDCHAR
STARTCHAR 0397
ENCODING 919
SWIDTH 640 0
DWIDTH 16 0
BBX 12 17 2 0
BITMAP
C030
C030
C030
C030
C030
C030
C030
FFF0
C030
C030
C030
C030
C030
C030
C030
C030
C030
ENDCHAR
STARTCHAR 0398
ENCODING 920
SWIDTH 640 0
DWIDTH 16 0
BBX 14 17 1 0
BITMAP
07C0
1860
2010
6008
4008
400C
C004
CFC4
C004
C004
4004
400C
4008
2018
3010
1860
07C0
ENDCHAR
STARTCHAR 0399
ENCODING 921
SWIDTH 240 0
DWIDTH 6 0
BBX 2 17 2 0
BITMAP
C0
C0
C0
C0
C0
C0
C0
C0
C0
C0
C0
C0
C0
C0
C0
C0
C0
ENDCHAR
STARTCHAR 039A
ENCODING 922
SWIDTH 560 0
DWIDTH 14 0
BBX 11 17 2 0
BITMAP
C060
C0C0
C180
C100
C200
C400
CC00
DC00
F200
E300
C100
C180
C080
C0C0
C040
C020
C020
ENDCHAR
STARTCHAR 039B
ENCODING 923
SWIDTH 480 0
DWIDTH 12 0
BBX 12 17 0 0
BITMAP
0600
0600
0500
0900
0900
0980
1080
1080
1080
3040
2040
2040
2020
4020
4020
4030
8010
ENDCHAR
STARTCHAR 039C
ENCODING 924
SWIDTH 720 0
DWIDTH 18 0
BBX 13 17 2 0
BITMAP
C018
A018
A018
A028
9028
9028
9048
8848
8848
8888
8488
8488
8508
8308
8208
8008
8008
ENDCHAR
STARTCHAR 039D
ENCODING 925
SWIDTH 640 0
DWIDTH 16 0
BBX 11 17 2 0
BITMAP
C020
C020
A020
B020
D020
C820
C820
C420
C620
C220
C320
C120
C0A0
C0A0
C060
C060
C020
ENDCHAR
STARTCHAR 039E
ENCODING 926
SWIDTH 520 0
DWIDTH 13 0
BBX 11 17 1 0
BITMAP
FFC0
0000
0000
0000
0000
0000
0000
3F80
0000
0000
0000
0000
0000
0000
0000
0000
FFE0
ENDCHAR
STARTCHAR 039F
ENCODING 927
SWIDTH 640 0
DWIDTH 16 0
BBX 14 17 1 0
BITMAP
07C0
1860
3010
2018
4008
400C
4004
C004
C004
C004
4004
400C
4008
6008
3010
1860
07C0
ENDCHAR
STARTCHAR 03A0
ENCODING 928
SWIDTH 640 0
DWIDTH 16 0
BBX 11 17 2 0
BITMAP
FFE0
C020
C020
C020
C020
C020
C020
C020
C020
C020
C020
C020
C020
C020
C020
C020
C020
ENDCHAR
STARTCHAR 03A1
ENCODING 929
SWIDTH 560 0
DWIDTH 14 0
BBX 11 17 2 0
BITMAP
FF00
C180
C040
C040
C060
C060
C040
C040
C180
FF00
C000
C000
C000
C000
C000
C000
C000
ENDCHAR
STARTCHAR 03A3
ENCODING 931
SWIDTH 520 0
DWIDTH 13 0
BBX 11 17 1 0
BITMAP
FFE0
4000
2000
3000
1000
0800
0400
0200
0200
0400
0400
0800
1000
3000
2000
4000
FFE0
ENDCHAR
STARTCHAR 03A4
ENCODING 932
SWIDTH 520 0
DWIDTH 13 0
BBX 11 17 1 0
BITMAP
FFE0
0400
0400
0400
0400
0400
0400
0400
0400
0400
0400
0400
0400
0400
0400
0400
0400
ENDCHAR
STARTCHAR 03A5
ENCODING 933
SWIDTH 440 0
DWIDTH 11 0
BBX 11 17 0 0
BITMAP
C020
4040
4040
2080
2080
1100
1100
0A00
0A00
0400
0400
0400
0400
0400
0400
0400
0400
ENDCHAR
STARTCHAR 03A6
ENCODING 934
SWIDTH 680 0
DWIDTH 17 0
BBX 15 17 1 0
BITMAP
0100
0100
0FE0
3118
610C
4106
C102
8102
8102
8102
C102
4106
610C
3918
0FE0
0100
0100
ENDCHAR
STARTCHAR 03A7
ENCODING 935
SWIDTH 480 0
DWIDTH 12 0
BBX 10 17 1 0
BITMAP
8040
4080
4080
2100
2100
1200
1A00
0C00
0C00
0C00
1200
1300
2100
6180
4080
8040
8040
ENDCHAR
STARTCHAR 03A8
ENCODING 936
SWIDTH 680 0
DWIDTH 17 0
BBX 13 17 2 0
BITMAP
8208
8208
8208
8208
8208
8208
8218
4210
6220
1FC0
0200
0200
0200
0200
0200
0200
0200
ENDCHAR
STARTCHAR 03A9
ENCODING 937
SWIDTH 640 0
DWIDTH 16 0
BBX 14 17 1 0
BITMAP
07C0
1860
3010
2008
4008
400C
4004
C004
C004
4004
4004
400C
6008
2018
3010
1820
F87C
ENDCHAR
STARTCHAR 03AA
ENCODING 938
SWIDTH 240 0
DWIDTH 6 0
BBX 6 21 0 0
BITMAP
84
84
00
00
30
30
30
30
30
30
30
30
30
30
30
30
30
30
30
30
30
ENDCHAR
STARTCHAR 03AB
ENCODING 939
SWIDTH 440 0
DWIDTH 11 0
BBX 11 21 0 0
BITMAP
3180
3180
0000
0000
C020
4040
4040
2080
2080
1100
1100
0A00
0A00
0400
0400
0400
0400
0400
0400
0400
0400
ENDCHAR
STARTCHAR 03AC
ENCODING 940
SWIDTH 560 0
DWIDTH 14 0
BBX 12 19 1 1
BITMAP
0300
0200
0200
0200
0000
0000
0E20
31A0
60A0
40A0
4040
C040
8040
C040
C040
40C0
40C0
2140
1E70
ENDCHAR
STARTCHAR 03AD
ENCODING 941
SWIDTH 440 0
DWIDTH 11 0
BBX 9 19 1 1
BITMAP
0600
0400
0400
0400
0000
0000
1E00
2180
4000
4000
4000
2000
1E00
6000
C000
8000
C000
6080
3F00
ENDCHAR
STARTCHAR 03AE
ENCODING 942
SWIDTH 520 0
DWIDTH 13 0
BBX 9 23 2 -3
BITMAP
0600
0400
0400
0400
0000
0000
8F00
9180
A080
C080
8080
8080
8080
8080
8080
8080
8080
8080
8080
0080
0080
0080
0080
ENDCHAR
STARTCHAR 03AF
ENCODING 943
SWIDTH 240 0
DWIDTH 6 0
BBX 3 20 2 0
BITMAP
60
40
40
40
80
00
00
80
80
80
80
80
80
80
80
80
80
80
80
60
ENDCHAR
STARTCHAR 03B0
ENCODING 944
SWIDTH 480 0
DWIDTH 12 0
BBX 9 19 2 0
BITMAP
0800
0800
5200
5200
0000
0000
8100
8100
8100
8180
8080
8080
8080
8080
8080
8100
8100
4200
3C00
ENDCHAR
STARTCHAR 03B1
ENCODING 945
SWIDTH 560 0
DWIDTH 14 0
BBX 12 13 1 0
BITMAP
0E20
31A0
60A0
40A0
4040
C040
8040
C040
C040
40C0
40C0
2140
1E70
ENDCHAR
STARTCHAR 03B2
ENCODING 946
SWIDTH 560 0
DWIDTH 14 0
BBX 10 22 2 -4
BITMAP
1E00
6100
4180
C080
8080
8180
8100
8200
8F00
8180
8040
8040
8040
8040
8040
C040
A080
9F00
8000
8000
8000
8000
ENDCHAR
STARTCHAR 03B3
ENCODING 947
SWIDTH 440 0
DWIDTH 11 0
BBX 11 17 0 -4
BITMAP
C020
4020
2040
2040
1040
10C0
1880
0880
0900
0900
0600
0600
0400
0400
0400
0400
0400
ENDCHAR
STARTCHAR 03B4
ENCODING 948
SWIDTH 520 0
DWIDTH 13 0
BBX 11 18 1 0
BITMAP
1F80
2040
2000
2000
1000
0800
0600
0F00
1080
2040
4040
4060
C020
4020
4040
6040
3080
1F00
ENDCHAR
STARTCHAR 03B5
ENCODING 949
SWIDTH 440 0
DWIDTH 11 0
BBX 9 13 1 0
BITMAP
1E00
2180
4000
4000
4000
2000
1E00
6000
C000
8000
C000
6080
3F00
ENDCHAR
STARTCHAR 03B6
ENCODING 950
SWIDTH 400 0
DWIDTH 10 0
BBX 9 23 1 -5
BITMAP
7F80
0100
0200
0400
0800
1000
3000
2000
6000
4000
4000
C000
8000
C000
4000
4000
2000
1E00
0380
0080
0080
0100
0100
ENDCHAR
STARTCHAR 03B7
ENCODING 951
SWIDTH 520 0
DWIDTH 13 0
BBX 9 17 2 -4
BITMAP
8F00
9180
A080
C080
8080
8080
8080
8080
8080
8080
8080
8080
8080
0080
0080
0080
0080
ENDCHAR
STARTCHAR 03B8
ENCODING 952
SWIDTH 520 0
DWIDTH 13 0
BBX 9 18 2 0
BITMAP
1C00
6200
4100
C100
8180
8080
8080
8080
FF80
8080
8080
8080
8080
8180
C100
4100
6200
3C00
ENDCHAR
STARTCHAR 03B9
ENCODING 953
SWIDTH 240 0
DWIDTH 6 0
BBX 3 13 2 0
BITMAP
80
80
80
80
80
80
80
80
80
80
80
80
60
ENDCHAR
STARTCHAR 03BA
ENCODING 954
SWIDTH 480 0
DWIDTH 12 0
BBX 9 13 2 0
BITMAP
8080
8100
8200
8400
8800
9800
A800
A400
C400
C200
C100
8100
8080
ENDCHAR
STARTCHAR 03BB
ENCODING 955
SWIDTH 480 0
DWIDTH 12 0
BBX 11 18 0 0
BITMAP
F000
0800
0C00
0400
0400
0200
0600
0600
0500
0900
0980
1080
1080
2040
2040
2040
4020
4020
ENDCHAR
STARTCHAR 03BC
ENCODING 956
SWIDTH 560 0
DWIDTH 14 0
BBX 11 17 2 -4
BITMAP
8080
8080
8080
8080
8080
8080
8080
8080
8080
C080
C180
E280
BCE0
8000
8000
8000
8000
ENDCHAR
STARTCHAR 03BD
ENCODING 957
SWIDTH 440 0
DWIDTH 11 0
BBX 11 13 0 0
BITMAP
C060
4040
6040
2040
3040
1080
1080
1880
0900
0900
0A00
0600
0400
ENDCHAR
STARTCHAR 03BE
ENCODING 958
SWIDTH 400 0
DWIDTH 10 0
BBX 9 22 1 -5
BITMAP
FF80
1000
2000
2000
2000
2000
2000
1800
0F00
3000
6000
4000
C000
C000
C000
4000
6000
1E00
0380
0080
0080
0180
ENDCHAR
STARTCHAR 03BF
ENCODING 959
SWIDTH 520 0
DWIDTH 13 0
BBX 11 13 1 0
BITMAP
1F00
3180
6040
4040
4060
C020
8020
C020
4060
4040
6040
3080
1F00
ENDCHAR
STARTCHAR 03C0
ENCODING 960
SWIDTH 560 0
DWIDTH 14 0
BBX 12 13 1 0
BITMAP
FFF0
2040
2040
2040
2040
2040
2040
2040
2040
2040
2040
2040
2070
ENDCHAR
STARTCHAR 03C1
ENCODING 961
SWIDTH 520 0
DWIDTH 13 0
BBX 10 17 2 -4
BITMAP
1F00
2180
4080
4040
8040
8040
8040
8040
8040
80C0
C080
A100
9E00
8000
8000
8000
8000
ENDCHAR
STARTCHAR 03C2
ENCODING 962
SWIDTH 440 0
DWIDTH 11 0
BBX 9 17 1 -4
BITMAP
1E00
3180
4000
4000
C000
8000
8000
C000
4000
6000
3000
0E00
0300
0100
0100
0200
0200
ENDCHAR
STARTCHAR 03C3
ENCODING 963
SWIDTH 520 0
DWIDTH 13 0
BBX 12 13 1 0
BITMAP
1FF0
3180
60C0
4040
4040
C060
8060
C060
4040
4040
60C0
3180
1F00
ENDCHAR
STARTCHAR 03C4
ENCODING 964
SWIDTH 440 0
DWIDTH 11 0
BBX 9 13 1 0
BITMAP
FF80
0800
0800
0800
0800
0800
0800
0800
0800
0800
0800
0800
0E00
ENDCHAR
STARTCHAR 03C5
ENCODING 965
SWIDTH 480 0
DWIDTH 12 0
BBX 9 13 2 0
BITMAP
8100
8100
8100
8180
8080
8080
8080
8080
8080
8100
8100
4200
3C00
ENDCHAR
STARTCHAR 03C6
ENCODING 966
SWIDTH 640 0
DWIDTH 16 0
BBX 14 20 1 -4
BITMAP
0100
0100
0100
0FC0
1130
2118
4108
410C
C104
8104
C104
410C
4108
2118
3130
0FC0
0100
0100
0100
0100
ENDCHAR
STARTCHAR 03C7
ENCODING 967
SWIDTH 440 0
DWIDTH 11 0
BBX 11 17 0 -4
BITMAP
C040
4040
2080
3080
1100
1B00
0A00
0600
0400
0A00
0B00
1100
1080
2080
2040
4060
C020
ENDCHAR
STARTCHAR 03C8
ENCODING 968
SWIDTH 640 0
DWIDTH 16 0
BBX 13 20 2 -4
BITMAP
0200
0200
0200
8210
8210
8210
8218
8208
8208
8208
8208
8210
8210
4230
6260
1F80
0200
0200
0200
0200
ENDCHAR
STARTCHAR 03C9
ENCODING 969
SWIDTH 680 0
DWIDTH 17 0
BBX 14 13 1 0
BITMAP
1010
2008
600C
4004
4004
4104
C104
C104
4104
4104
4104
2288
1C70
ENDCHAR
STARTCHAR 03CA
ENCODING 970
SWIDTH 240 0
DWIDTH 6 0
BBX 6 18 0 0
BITMAP
8C
8C
00
00
00
20
20
20
20
20
20
20
20
20
20
20
20
18
ENDCHAR
STARTCHAR 03CB
ENCODING 971
SWIDTH 480 0
DWIDTH 12 0
BBX 9 18 2 0
BITMAP
4600
4600
0000
0000
0000
8100
8100
8100
8180
8080
8080
8080
8080
8080
8100
8100
4200
3C00
ENDCHAR
STARTCHAR 03CC
ENCODING 972
SWIDTH 520 0
DWIDTH 13 0
BBX 11 20 1 0
BITMAP
0200
0200
0200
0400
0400
0000
0000
1F00
3180
6040
4040
4060
C020
8020
C020
4060
4040
6040
3080
1F00
ENDCHAR
STARTCHAR 03CD
ENCODING 973
SWIDTH 480 0
DWIDTH 12 0
BBX 9 20 2 0
BITMAP
0800
0800
0800
0800
1000
0000
0000
8100
8100
8100
8180
8080
8080
8080
8080
8080
8100
8100
4200
3C00
ENDCHAR
STARTCHAR 03CE
ENCODING 974
SWIDTH 680 0
DWIDTH 17 0
BBX 14 20 1 0
BITMAP
0080
0080
0080
0100
0100
0000
0000
1010
2008
600C
4004
4004
4104
C104
C104
4104
4104
4104
2288
1C70
ENDCHAR
STARTCHAR 03D0
ENCODING 976
SWIDTH 560 0
DWIDTH 14 0
BBX 10 18 2 0
BITMAP
1E00
6300
4100
C080
8080
8100
8100
8600
BE00
C180
80C0
8040
8040
8040
C040
4040
2180
1F00
ENDCHAR
STARTCHAR 03D1
ENCODING 977
SWIDTH 520 0
DWIDTH 13 0
BBX 9 18 2 0
BITMAP
3C00
4200
8100
8100
8180
8080
4080
6080
1F80
0080
8080
8080
8080
8180
C100
4100
6200
3C00
ENDCHAR
STARTCHAR 03D5
ENCODING 981
SWIDTH 640 0
DWIDTH 16 0
BBX 14 17 1 -4
BITMAP
10E0
2118
6108
410C
4104
8104
8104
8104
410C
4108
6118
3130
0FC0
0100
0100
0100
0100
ENDCHAR
STARTCHAR 03D7
ENCODING 983
SWIDTH 480 0
DWIDTH 12 0
BBX 10 17 2 -4
BITMAP
8080
8300
8600
8C00
8800
9800
A800
A400
C200
C200
8100
8080
00C0
0080
0100
0200
0600
ENDCHAR
STARTCHAR 03D9
ENCODING 985
SWIDTH 520 0
DWIDTH 13 0
BBX 11 17 1 -4
BITMAP
1F00
3180
6040
4040
4060
C020
8020
C020
C060
4040
6040
3080
1F00
0400
0400
0400
0400
ENDCHAR
STARTCHAR 03DB
ENCODING 987
SWIDTH 440 0
DWIDTH 11 0
BBX 10 16 1 -4
BITMAP
0FC0
3000
6000
4000
C000
8000
8000
C000
4000
6000
3000
0E00
0100
0080
0080
0100
ENDCHAR
STARTCHAR 03DD
ENCODING 989
SWIDTH 400 0
DWIDTH 10 0
BBX 7 17 2 -4
BITMAP
FE
80
80
80
80
80
80
80
FE
80
80
80
80
80
80
80
80
ENDCHAR
STARTCHAR 03E1
ENCODING 993
SWIDTH 480 0
DWIDTH 12 0
BBX 10 22 1 -5
BITMAP
4000
6000
1000
0800
0400
0200
0300
0100
0780
1880
E080
80C0
01C0
0640
3840
2040
0040
0040
0040
0040
0040
0040
ENDCHAR
STARTCHAR 0400
ENCODING 1024
SWIDTH 520 0
DWIDTH 13 0
BBX 10 21 2 1
BITMAP
1000
0800
0400
0000
FF80
C000
C000
C000
C000
C000
C000
FF00
C000
C000
C000
C000
C000
C000
C000
C000
FFC0
ENDCHAR
STARTCHAR 0401
ENCODING 1025
SWIDTH 520 0
DWIDTH 13 0
BBX 10 21 2 0
BITMAP
2100
2100
0000
0000
FF80
C000
C000
C000
C000
C000
C000
FF00
C000
C000
C000
C000
C000
C000
C000
C000
FFC0
ENDCHAR
STARTCHAR 0402
ENCODING 1026
SWIDTH 680 0
DWIDTH 17 0
BBX 15 17 1 0
BITMAP
FFF0
0C00
0C00
0C00
0C00
0C00
0C00
0FF0
0C18
0C04
0C04
0C06
0C06
0C04
0C04
0C0C
0C70
ENDCHAR
STARTCHAR 0403
ENCODING 1027
SWIDTH 480 0
DWIDTH 12 0
BBX 9 22 2 0
BITMAP
0100
0200
0400
0800
0000
FF80
C000
C000
C000
C000
C000
C000
C000
C000
C000
C000
C000
C000
C000
C000
C000
C000
ENDCHAR
STARTCHAR 0404
ENCODING 1028
SWIDTH 560 0
DWIDTH 14 0
BBX 12 17 1 0
BITMAP
07C0
1860
2000
6000
4000
4000
C000
FF80
C000
C000
4000
4000
4000
2000
3010
1860
07C0
ENDCHAR
STARTCHAR 0405
ENCODING 1029
SWIDTH 520 0
DWIDTH 13 0
BBX 11 17 1 0
BITMAP
0F00
30C0
6040
4000
4000
6000
3000
1C00
0700
01C0
0060
0020
0020
0020
C060
70C0
1F00
ENDCHAR
STARTCHAR 0406
ENCODING 1030
SWIDTH 240 0
DWIDTH 6 0
BBX 2 17 2 0
BITMAP
C0
C0
C0
C0
C0
C0
C0
C0
C0
C0
C0
C0
C0
C0
C0
C0
C0
ENDCHAR
STARTCHAR 0407
ENCODING 1031
SWIDTH 240 0
DWIDTH 6 0
BBX 6 21 0 0
BITMAP
84
84
00
00
30
30
30
30
30
30
30
30
30
30
30
30
30
30
30
30
30
ENDCHAR
STARTCHAR 0408
ENCODING 1032
SWIDTH 480 0
DWIDTH 12 0
BBX 8 17 1 0
BITMAP
01
01
01
01
01
01
01
01
01
01
01
01
01
01
81
42
3C
ENDCHAR
STARTCHAR 0409
ENCODING 1033
SWIDTH 880 0
DWIDTH 22 0
BBX 21 17 0 0
BITMAP
07F000
041000
041000
041000
041000
041000
081000
081FC0
081030
081018
081008
181008
101008
101008
101018
201030
E01FC0
ENDCHAR
STARTCHAR 040A
ENCODING 1034
SWIDTH 920 0
DWIDTH 23 0
BBX 20 17 2 0
BITMAP
C02000
C02000
C02000
C02000
C02000
C02000
C02000
FFFF80
C02060
C02030
C02010
C02010
C02010
C02010
C02020
C02060
C03F80
ENDCHAR
STARTCHAR 040B
ENCODING 1035
SWIDTH 680 0
DWIDTH 17 0
BBX 14 17 1 0
BITMAP
FFF0
0C00
0C00
0C00
0C00
0C00
0C00
0FF0
0C18
0C04
0C04
0C04
0C04
0C04
0C04
0C04
0C04
ENDCHAR
STARTCHAR 040C
ENCODING 1036
SWIDTH 560 0
DWIDTH 14 0
BBX 11 21 2 1
BITMAP
0100
0200
0400
0000
C060
C0C0
C080
C100
C100
C200
C200
C400
FC00
C600
C200
C100
C180
C080
C040
C060
C020
ENDCHAR
STARTCHAR 040D
ENCODING 1037
SWIDTH 640 0
DWIDTH 16 0
BBX 12 21 2 1
BITMAP
0800
0400
0200
0000
C030
C030
C050
C0D0
C090
C110
C110
C210
C610
C410
C810
C810
D010
D010
A010
E010
C010
ENDCHAR
STARTCHAR 040E
ENCODING 1038
SWIDTH 480 0
DWIDTH 12 0
BBX 12 21 0 0
BITMAP
1080
1880
0E00
0000
C010
4030
4020
2020
2040
1040
10C0
1880
0880
0900
0500
0500
0200
0200
0400
0C00
3800
ENDCHAR
STARTCHAR 040F
ENCODING 1039
SWIDTH 640 0
DWIDTH 16 0
BBX 11 22 2 -5
BITMAP
C020
C020
C020
C020
C020
C020
C020
C020
C020
C020
C020
C020
C020
C020
C020
C020
FFE0
0600
0600
0400
0400
0400
ENDCHAR
STARTCHAR 0410
ENCODING 1040
SWIDTH 520 0
DWIDTH 13 0
BBX 13 17 0 0
BITMAP
0200
0500
0500
0500
0880
0880
0880
1040
1040
1040
3FE0
2020
2020
4010
4010
4010
C008
ENDCHAR
STARTCHAR 0411
ENCODING 1041
SWIDTH 560 0
DWIDTH 14 0
BBX 11 17 2 0
BITMAP
FFC0
C000
C000
C000
C000
C000
C000
FF00
C0C0
C060
C020
C020
C020
C020
C060
C0C0
FF00
ENDCHAR
STARTCHAR 0412
ENCODING 1042
SWIDTH 560 0
DWIDTH 14 0
BBX 11 17 2 0
BITMAP
FF00
C0C0
C040
C040
C040
C040
C080
FF00
C0C0
C060
C020
C020
C020
C020
C060
C0C0
FF00
ENDCHAR
STARTCHAR 0413
ENCODING 1043
SWIDTH 480 0
DWIDTH 12 0
BBX 9 17 2 0
BITMAP
FF80
C000
C000
C000
C000
C000
C000
C000
C000
C000
C000
C000
C000
C000
C000
C000
C000
ENDCHAR
STARTCHAR 0414
ENCODING 1044
SWIDTH 600 0
DWIDTH 15 0
BBX 14 22 1 -5
BITMAP
0FF0
0810
0810
0810
0810
0810
1010
1010
1010
1010
1010
1010
2010
2010
2010
4010
FFFC
800C
800C
800C
8008
8008
ENDCHAR
STARTCHAR 0415
ENCODING 1045
SWIDTH 520 0
DWIDTH 13 0
BBX 10 17 2 0
BITMAP
FF80
C000
C000
C000
C000
C000
C000
FF00
C000
C000
C000
C000
C000
C000
C000
C000
FFC0
ENDCHAR
STARTCHAR 0416
ENCODING 1046
SWIDTH 760 0
DWIDTH 19 0
BBX 19 17 0 0
BITMAP
E04060
304080
104100
184100
084200
084200
044600
044400
07FC00
044400
084200
084300
104100
304080
204080
404040
404060
ENDCHAR
STARTCHAR 0417
ENCODING 1047
SWIDTH 560 0
DWIDTH 14 0
BBX 12 17 1 0
BITMAP
1F00
20C0
0040
0020
0020
0040
00C0
1F00
00C0
0020
0020
0030
0030
0020
C020
60C0
1F00
ENDCHAR
STARTCHAR 0418
ENCODING 1048
SWIDTH 640 0
DWIDTH 16 0
BBX 12 17 2 0
BITMAP
C030
C030
C050
C0D0
C090
C110
C110
C210
C610
C410
C810
C810
D010
D010
A010
E010
C010
ENDCHAR
STARTCHAR 0419
ENCODING 1049
SWIDTH 640 0
DWIDTH 16 0
BBX 12 21 2 0
BITMAP
1080
1880
0700
0000
C030
C030
C050
C0D0
C090
C110
C110
C210
C610
C410
C810
C810
D010
D010
A010
E010
C010
ENDCHAR
STARTCHAR 041A
ENCODING 1050
SWIDTH 560 0
DWIDTH 14 0
BBX 11 17 2 0
BITMAP
C060
C0C0
C080
C100
C100
C200
C200
C400
FC00
C600
C200
C100
C180
C080
C040
C060
C020
ENDCHAR
STARTCHAR 041B
ENCODING 1051
SWIDTH 600 0
DWIDTH 15 0
BBX 13 17 0 0
BITMAP
07F8
0408
0408
0408
0408
0408
0808
0808
0808
0808
0808
1808
1008
1008
1008
2008
E008
ENDCHAR
STARTCHAR 041C
ENCODING 1052
SWIDTH 720 0
DWIDTH 18 0
BBX 13 17 2 0
BITMAP
C018
A018
A018
A028
9028
9028
9048
8848
8848
8888
8488
8488
8508
8308
8208
8008
8008
ENDCHAR
STARTCHAR 041D
ENCODING 1053
SWIDTH 640 0
DWIDTH 16 0
BBX 12 17 2 0
BITMAP
C030
C030
C030
C030
C030
C030
C030
FFF0
C030
C030
C030
C030
C030
C030
C030
C030
C030
ENDCHAR
STARTCHAR 041E
ENCODING 1054
SWIDTH 640 0
DWIDTH 16 0
BBX 14 17 1 0
BITMAP
07C0
1860
3010
2018
4008
400C
4004
C004
C004
C004
4004
400C
4008
6008
3010
1860
07C0
ENDCHAR
STARTCHAR 041F
ENCODING 1055
SWIDTH 640 0
DWIDTH 16 0
BBX 11 17 2 0
BITMAP
FFE0
C020
C020
C020
C020
C020
C020
C020
C020
C020
C020
C020
C020
C020
C020
C020
C020
ENDCHAR
STARTCHAR 0420
ENCODING 1056
SWIDTH 560 0
DWIDTH 14 0
BBX 11 17 2 0
BITMAP
FF00
C180
C040
C040
C060
C060
C040
C040
C180
FF00
C000
C000
C000
C000
C000
C000
C000
ENDCHAR
STARTCHAR 0421
ENCODING 1057
SWIDTH 560 0
DWIDTH 14 0
BBX 12 17 1 0
BITMAP
07C0
1860
3000
2000
4000
4000
4000
C000
C000
C000
4000
4000
4000
6000
3010
1860
07C0
ENDCHAR
STARTCHAR 0422
ENCODING 1058
SWIDTH 520 0
DWIDTH 13 0
BBX 11 17 1 0
BITMAP
FFE0
0400
0400
0400
0400
0400
0400
0400
0400
0400
0400
0400
0400
0400
0400
0400
0400
ENDCHAR
STARTCHAR 0423
ENCODING 1059
SWIDTH 480 0
DWIDTH 12 0
BBX 12 17 0 0
BITMAP
C010
4030
4020
2020
2040
1040
10C0
1880
0880
0900
0500
0500
0200
0200
0400
0C00
3800
ENDCHAR
STARTCHAR 0424
ENCODING 1060
SWIDTH 720 0
DWIDTH 18 0
BBX 16 17 1 0
BITMAP
0100
0100
0FF0
311C
6104
4102
C102
8103
8103
8103
C102
4102
6104
3918
0FE0
0100
0100
ENDCHAR
STARTCHAR 0425
ENCODING 1061
SWIDTH 480 0
DWIDTH 12 0
BBX 10 17 1 0
BITMAP
8040
4080
4080
2100
2100
1200
1A00
0C00
0C00
0C00
1200
1300
2100
6180
4080
8040
8040
ENDCHAR
STARTCHAR 0426
ENCODING 1062
SWIDTH 640 0
DWIDTH 16 0
BBX 13 22 2 -5
BITMAP
C020
C020
C020
C020
C020
C020
C020
C020
C020
C020
C020
C020
C020
C020
C020
C020
FFF8
0008
0008
0008
0008
0008
ENDCHAR
STARTCHAR 0427
ENCODING 1063
SWIDTH 560 0
DWIDTH 14 0
BBX 10 17 2 0
BITMAP
8040
8040
8040
8040
8040
8040
C040
6040
3FC0
0040
0040
0040
0040
0040
0040
0040
0040
ENDCHAR
STARTCHAR 0428
ENCODING 1064
SWIDTH 840 0
DWIDTH 21 0
BBX 17 17 2 0
BITMAP
C08180
C08180
C08180
C08180
C08180
C08180
C08180
C08180
C08180
C08180
C08180
C08180
C08180
C08180
C08180
C08180
FFFF80
ENDCHAR
STARTCHAR 0429
ENCODING 1065
SWIDTH 840 0
DWIDTH 21 0
BBX 18 22 2 -5
BITMAP
C08180
C08180
C08180
C08180
C08180
C08180
C08180
C08180
C08180
C08180
C08180
C08180
C08180
C08180
C08180
C08180
FFFFC0
000040
000040
000040
000040
000040
ENDCHAR
STARTCHAR 042A
ENCODING 1066
SWIDTH 720 0
DWIDTH 18 0
BBX 16 17 1 0
BITMAP
FC00
0400
0400
0400
0400
0400
0400
07F8
040C
0402
0403
0403
0403
0402
0402
0404
07F8
ENDCHAR
STARTCHAR 042B
ENCODING 1067
SWIDTH 760 0
DWIDTH 19 0
BBX 15 17 2 0
BITMAP
C002
C002
C002
C002
C002
C002
C002
FF02
C182
C042
C042
C062
C062
C042
C042
C182
FF02
ENDCHAR
STARTCHAR 042C
ENCODING 1068
SWIDTH 560 0
DWIDTH 14 0
BBX 11 17 2 0
BITMAP
C000
C000
C000
C000
C000
C000
C000
FF00
C0C0
C060
C020
C020
C020
C020
C040
C0C0
FF00
ENDCHAR
STARTCHAR 042D
ENCODING 1069
SWIDTH 560 0
DWIDTH 14 0
BBX 12 17 1 0
BITMAP
1F00
6180
0040
0020
0020
0030
0010
1FF0
0010
0010
0030
0020
0020
0060
8040
6180
1F00
ENDCHAR
STARTCHAR 042E
ENCODING 1070
SWIDTH 880 0
DWIDTH 22 0
BBX 19 17 2 0
BITMAP
C03E00
C0C300
C18080
C100C0
C30040
C20040
C20060
FE0060
C20060
C20060
C20060
C20040
C30040
C100C0
C08080
C0C300
C03C00
ENDCHAR
STARTCHAR 042F
ENCODING 1071
SWIDTH 560 0
DWIDTH 14 0
BBX 11 17 1 0
BITMAP
1FE0
6060
4060
4060
C060
4060
4060
2060
1FE0
0860
0860
1060
3060
2060
6060
4060
8060
ENDCHAR
STARTCHAR 0430
ENCODING 1072
SWIDTH 480 0
DWIDTH 12 0
BBX 9 13 1 0
BITMAP
1F00
6180
0080
0080
0080
0780
1880
6080
4080
C080
C080
4380
3C80
ENDCHAR
STARTCHAR 0431
ENCODING 1073
SWIDTH 520 0
DWIDTH 13 0
BBX 11 18 1 0
BITMAP
0040
0F80
1000
2000
4000
4000
4F00
50C0
6040
4060
C020
4020
4020
4020
4060
2040
3080
0F00
ENDCHAR
STARTCHAR 0432
ENCODING 1074
SWIDTH 480 0
DWIDTH 12 0
BBX 9 13 2 0
BITMAP
FE00
8100
8080
8080
8080
8100
FE00
8180
8080
8080
8080
8180
FE00
ENDCHAR
STARTCHAR 0433
ENCODING 1075
SWIDTH 400 0
DWIDTH 10 0
BBX 7 13 2 0
BITMAP
FE
80
80
80
80
80
80
80
80
80
80
80
80
ENDCHAR
STARTCHAR 0434
ENCODING 1076
SWIDTH 520 0
DWIDTH 13 0
BBX 11 17 1 -4
BITMAP
1F80
2080
2080
2080
2080
2080
2080
2080
2080
4080
4080
4080
FFE0
8020
8020
8020
8020
ENDCHAR
STARTCHAR 0435
ENCODING 1077
SWIDTH 480 0
DWIDTH 12 0
BBX 10 13 1 0
BITMAP
0F00
3180
6080
4040
4040
8040
FFC0
8000
C000
4000
6000
3080
1F00
ENDCHAR
STARTCHAR 0436
ENCODING 1078
SWIDTH 640 0
DWIDTH 16 0
BBX 14 13 1 0
BITMAP
C20C
4208
2210
2210
1220
1220
1FE0
1220
2210
6210
4208
820C
8204
ENDCHAR
STARTCHAR 0437
ENCODING 1079
SWIDTH 440 0
DWIDTH 11 0
BBX 9 13 1 0
BITMAP
3E00
C300
0100
0100
0100
0300
1E00
0100
0080
0080
0080
C100
3E00
ENDCHAR
STARTCHAR 0438
ENCODING 1080
SWIDTH 560 0
DWIDTH 14 0
BBX 10 13 2 0
BITMAP
80C0
8140
8140
8240
82C0
84C0
88C0
88C0
90C0
90C0
A0C0
C0C0
C0C0
ENDCHAR
STARTCHAR 0439
ENCODING 1081
SWIDTH 560 0
DWIDTH 14 0
BBX 10 18 2 0
BITMAP
4080
2100
1E00
0000
0000
80C0
8140
8140
8240
82C0
84C0
88C0
88C0
90C0
90C0
A0C0
C0C0
C0C0
ENDCHAR
STARTCHAR 043A
ENCODING 1082
SWIDTH 480 0
DWIDTH 12 0
BBX 9 13 2 0
BITMAP
8180
8200
8200
8400
8400
8400
F800
8400
8600
8200
8100
8100
8080
ENDCHAR
STARTCHAR 043B
ENCODING 1083
SWIDTH 520 0
DWIDTH 13 0
BBX 10 13 0 0
BITMAP
0FC0
0840
0840
0840
1040
1040
1040
1040
1040
1040
1040
2040
E040
ENDCHAR
STARTCHAR 043C
ENCODING 1084
SWIDTH 600 0
DWIDTH 15 0
BBX 11 13 2 0
BITMAP
C020
C060
A060
A0A0
A0A0
90A0
9120
9920
8920
8A20
8620
8420
8020
ENDCHAR
STARTCHAR 043D
ENCODING 1085
SWIDTH 560 0
DWIDTH 14 0
BBX 9 13 2 0
BITMAP
8080
8080
8080
8080
8080
8080
FF80
8080
8080
8080
8080
8080
8080
ENDCHAR
STARTCHAR 043E
ENCODING 1086
SWIDTH 520 0
DWIDTH 13 0
BBX 11 13 1 0
BITMAP
0F00
3080
6040
4060
4020
C020
8020
C020
4020
4060
6040
3080
1F00
ENDCHAR
STARTCHAR 043F
ENCODING 1087
SWIDTH 560 0
DWIDTH 14 0
BBX 9 13 2 0
BITMAP
FF80
8080
8080
8080
8080
8080
8080
8080
8080
8080
8080
8080
8080
ENDCHAR
STARTCHAR 0440
ENCODING 1088
SWIDTH 560 0
DWIDTH 14 0
BBX 10 18 2 -5
BITMAP
8F00
A180
C0C0
8040
8040
8040
8040
8040
8040
8040
C080
E100
9E00
8000
8000
8000
8000
8000
ENDCHAR
STARTCHAR 0441
ENCODING 1089
SWIDTH 440 0
DWIDTH 11 0
BBX 9 13 1 0
BITMAP
0F00
3080
6000
4000
4000
C000
8000
C000
4000
4000
6000
3080
1F00
ENDCHAR
STARTCHAR 0442
ENCODING 1090
SWIDTH 440 0
DWIDTH 11 0
BBX 9 13 1 0
BITMAP
FF80
0800
0800
0800
0800
0800
0800
0800
0800
0800
0800
0800
0800
ENDCHAR
STARTCHAR 0443
ENCODING 1091
SWIDTH 440 0
DWIDTH 11 0
BBX 10 18 0 -5
BITMAP
C040
4040
4040
2080
2080
3080
1100
1100
0900
0A00
0A00
0600
0400
0400
0400
0800
1800
7000
ENDCHAR
STARTCHAR 0444
ENCODING 1092
SWIDTH 720 0
DWIDTH 18 0
BBX 15 23 1 -5
BITMAP
0100
0100
0100
0100
0100
1F78
2184
4106
4102
4102
C102
8102
C102
C102
4102
4106
218C
1F78
0100
0100
0100
0100
0100
ENDCHAR
STARTCHAR 0445
ENCODING 1093
SWIDTH 400 0
DWIDTH 10 0
BBX 9 13 1 0
BITMAP
8100
4300
4200
2400
3400
1800
1800
1800
2400
6600
4200
8100
8180
ENDCHAR
STARTCHAR 0446
ENCODING 1094
SWIDTH 520 0
DWIDTH 13 0
BBX 11 17 2 -4
BITMAP
8080
8080
8080
8080
8080
8080
8080
8080
8080
8080
8080
8080
FFE0
0020
0020
0020
0020
ENDCHAR
STARTCHAR 0447
ENCODING 1095
SWIDTH 480 0
DWIDTH 12 0
BBX 8 13 2 0
BITMAP
81
81
81
81
81
81
C1
3F
01
01
01
01
01
ENDCHAR
STARTCHAR 0448
ENCODING 1096
SWIDTH 720 0
DWIDTH 18 0
BBX 14 13 2 0
BITMAP
8304
8304
8304
8304
8304
8304
8304
8304
8304
8304
8304
8304
FFFC
ENDCHAR
STARTCHAR 0449
ENCODING 1097
SWIDTH 720 0
DWIDTH 18 0
BBX 15 17 2 -4
BITMAP
8304
8304
8304
8304
8304
8304
8304
8304
8304
8304
8304
8304
FFFE
0002
0002
0002
0002
ENDCHAR
STARTCHAR 044A
ENCODING 1098
SWIDTH 600 0
DWIDTH 15 0
BBX 12 13 1 0
BITMAP
F800
0800
0800
0800
0800
0FC0
0830
0810
0810
0810
0810
0830
0FC0
ENDCHAR
STARTCHAR 044B
ENCODING 1099
SWIDTH 640 0
DWIDTH 16 0
BBX 12 13 2 0
BITMAP
8030
8030
8030
8030
8030
FC30
8230
8130
8130
8130
8130
8230
FC30
ENDCHAR
STARTCHAR 044C
ENCODING 1100
SWIDTH 480 0
DWIDTH 12 0
BBX 9 13 2 0
BITMAP
8000
8000
8000
8000
8000
FE00
8300
8180
8080
8080
8180
8300
FE00
ENDCHAR
STARTCHAR 044D
ENCODING 1101
SWIDTH 440 0
DWIDTH 11 0
BBX 9 13 1 0
BITMAP
7C00
C200
0100
0100
0080
0080
3F80
0080
0080
0180
0100
8200
7C00
ENDCHAR
STARTCHAR 044E
ENCODING 1102
SWIDTH 720 0
DWIDTH 18 0
BBX 15 13 2 0
BITMAP
80F0
8318
860C
8404
8404
8406
FC06
8406
8404
8404
860C
8318
81F0
ENDCHAR
STARTCHAR 044F
ENCODING 1103
SWIDTH 480 0
DWIDTH 12 0
BBX 9 13 1 0
BITMAP
1F80
6080
4080
4080
4080
6080
1F80
0880
1080
3080
2080
4080
C080
ENDCHAR
STARTCHAR 0450
ENCODING 1104
SWIDTH 480 0
DWIDTH 12 0
BBX 10 20 1 0
BITMAP
1000
1000
0800
0400
0200
0000
0000
0F00
3180
6080
4040
4040
8040
FFC0
8000
C000
4000
6000
3080
1F00
ENDCHAR
STARTCHAR 0451
ENCODING 1105
SWIDTH 480 0
DWIDTH 12 0
BBX 10 18 1 0
BITMAP
1100
3180
0000
0000
0000
0F00
3180
6080
4040
4040
8040
FFC0
8000
C000
4000
6000
3080
1F00
ENDCHAR
STARTCHAR 0452
ENCODING 1106
SWIDTH 520 0
DWIDTH 13 0
BBX 12 23 0 -5
BITMAP
2000
2000
2000
FF00
2000
2000
2000
23C0
2860
3020
2030
2010
2010
2010
2010
2010
2010
2010
0030
0020
0020
0040
0380
ENDCHAR
STARTCHAR 0453
ENCODING 1107
SWIDTH 400 0
DWIDTH 10 0
BBX 7 19 2 0
BITMAP
02
04
08
10
00
00
FE
80
80
80
80
80
80
80
80
80
80
80
80
ENDCHAR
STARTCHAR 0454
ENCODING 1108
SWIDTH 440 0
DWIDTH 11 0
BBX 10 13 1 0
BITMAP
0F00
3080
6000
4000
4000
C000
FF00
8000
C000
4000
4000
30C0
1F00
ENDCHAR
STARTCHAR 0455
ENCODING 1109
SWIDTH 400 0
DWIDTH 10 0
BBX 8 13 1 0
BITMAP
3C
43
C0
C0
40
70
1C
03
01
01
01
C3
3C
ENDCHAR
STARTCHAR 0456
ENCODING 1110
SWIDTH 240 0
DWIDTH 6 0
BBX 2 18 2 0
BITMAP
C0
C0
00
00
00
80
80
80
80
80
80
80
80
80
80
80
80
80
ENDCHAR
STARTCHAR 0457
ENCODING 1111
SWIDTH 240 0
DWIDTH 6 0
BBX 6 18 0 0
BITMAP
8C
8C
00
00
00
20
20
20
20
20
20
20
20
20
20
20
20
20
ENDCHAR
STARTCHAR 0458
ENCODING 1112
SWIDTH 240 0
DWIDTH 6 0
BBX 5 23 -1 -5
BITMAP
18
18
00
00
00
10
10
10
10
10
10
10
10
10
10
10
10
10
10
10
10
10
E0
ENDCHAR
STARTCHAR 0459
ENCODING 1113
SWIDTH 720 0
DWIDTH 18 0
BBX 17 13 0 0
BITMAP
0FC000
084000
084000
084000
184000
107E00
104300
104100
104180
104180
104100
204300
E07E00
ENDCHAR
STARTCHAR 045A
ENCODING 1114
SWIDTH 760 0
DWIDTH 19 0
BBX 15 13 2 0
BITMAP
8080
8080
8080
8080
8080
80F8
FF86
8082
8082
8082
8082
8086
80F8
ENDCHAR
STARTCHAR 045B
ENCODING 1115
SWIDTH 520 0
DWIDTH 13 0
BBX 11 18 0 0
BITMAP
2000
2000
2000
FF00
2000
2000
2000
27C0
2860
3020
2020
2020
2020
2020
2020
2020
2020
2020
ENDCHAR
STARTCHAR 045C
ENCODING 1116
SWIDTH 480 0
DWIDTH 12 0
BBX 9 19 2 0
BITMAP
0200
0600
0C00
1800
0000
0000
8180
8200
8200
8400
8400
8400
F800
8400
8600
8200
8100
8100
8080
ENDCHAR
STARTCHAR 045D
ENCODING 1117
SWIDTH 560 0
DWIDTH 14 0
BBX 10 18 2 1
BITMAP
1000
0800
0400
0000
0000
80C0
8140
8140
8240
82C0
84C0
88C0
88C0
90C0
90C0
A0C0
C0C0
C0C0
ENDCHAR
STARTCHAR 045E
ENCODING 1118
SWIDTH 440 0
DWIDTH 11 0
BBX 10 24 0 -5
BITMAP
2080
2080
1180
0E00
0000
0000
C040
4040
4040
2080
2080
3080
1100
1100
0900
0A00
0A00
0600
0400
0400
0400
0800
1800
7000
ENDCHAR
STARTCHAR 045F
ENCODING 1119
SWIDTH 560 0
DWIDTH 14 0
BBX 9 17 2 -4
BITMAP
8080
8080
8080
8080
8080
8080
8080
8080
8080
8080
8080
8080
FF80
0800
0800
0800
0800
ENDCHAR
STARTCHAR 0462
ENCODING 1122
SWIDTH 600 0
DWIDTH 15 0
BBX 13 18 1 0
BITMAP
1800
1800
1800
1800
FFE0
1800
1800
1800
1800
1FC0
1830
1818
1808
1808
1808
1818
1830
1FC0
ENDCHAR
STARTCHAR 0463
ENCODING 1123
SWIDTH 560 0
DWIDTH 14 0
BBX 12 16 1 0
BITMAP
0800
0800
0800
FFC0
0800
0800
0800
0800
0FC0
0820
0830
0810
0810
0810
0820
0FC0
ENDCHAR
STARTCHAR 0472
ENCODING 1138
SWIDTH 640 0
DWIDTH 16 0
BBX 14 17 1 0
BITMAP
07C0
1870
2010
6008
4008
4004
C004
FFFC
C004
C004
4004
400C
4008
2008
3010
1860
07C0
ENDCHAR
STARTCHAR 0473
ENCODING 1139
SWIDTH 520 0
DWIDTH 13 0
BBX 11 13 1 0
BITMAP
0F00
3080
6040
4060
4020
8020
FFE0
8020
C020
4020
6040
3080
1F00
ENDCHAR
STARTCHAR 0474
ENCODING 1140
SWIDTH 520 0
DWIDTH 13 0
BBX 13 17 0 0
BITMAP
8018
4030
4020
4020
2060
2040
2040
3040
1080
1080
1880
0900
0900
0900
0500
0600
0600
ENDCHAR
STARTCHAR 0475
ENCODING 1141
SWIDTH 440 0
DWIDTH 11 0
BBX 12 13 0 0
BITMAP
C070
4040
40C0
6080
2080
2180
1100
1100
1100
0A00
0A00
0A00
0400
ENDCHAR
STARTCHAR 0490
ENCODING 1168
SWIDTH 480 0
DWIDTH 12 0
BBX 10 21 2 0
BITMAP
0040
0040
0080
0080
FF80
C000
C000
C000
C000
C000
C000
C000
C000
C000
C000
C000
C000
C000
C000
C000
C000
ENDCHAR
STARTCHAR 0491
ENCODING 1169
SWIDTH 400 0
DWIDTH 10 0
BBX 8 17 2 0
BITMAP
01
01
01
01
FF
80
80
80
80
80
80
80
80
80
80
80
80
ENDCHAR
STARTCHAR 0492
ENCODING 1170
SWIDTH 520 0
DWIDTH 13 0
BBX 11 17 1 0
BITMAP
3FE0
2000
2000
2000
2000
2000
2000
2000
FE00
2000
2000
2000
2000
2000
2000
2000
2000
ENDCHAR
STARTCHAR 0493
ENCODING 1171
SWIDTH 400 0
DWIDTH 10 0
BBX 8 12 1 1
BITMAP
7F
60
60
60
60
60
FC
60
60
60
60
60
ENDCHAR
STARTCHAR 0496
ENCODING 1174
SWIDTH 800 0
DWIDTH 20 0
BBX 19 22 0 -5
BITMAP
E04060
204080
104100
104100
084200
084200
044600
044400
07FC00
044400
084200
084300
104100
304080
204080
404040
404060
000020
000020
000020
000020
000020
ENDCHAR
STARTCHAR 0497
ENCODING 1175
SWIDTH 680 0
DWIDTH 17 0
BBX 15 17 1 -4
BITMAP
C20C
4208
2210
2210
1220
1220
1FE0
1220
2210
6210
4208
820C
8206
0002
0002
0002
0002
ENDCHAR
STARTCHAR 0498
ENCODING 1176
SWIDTH 560 0
DWIDTH 14 0
BBX 12 21 1 -4
BITMAP
1F00
30C0
4040
0060
0020
0060
0040
0080
1F00
00C0
0020
0030
0030
0020
C020
60C0
1F80
0400
0400
0400
0400
ENDCHAR
STARTCHAR 0499
ENCODING 1177
SWIDTH 440 0
DWIDTH 11 0
BBX 9 17 1 -4
BITMAP
3E00
C300
0100
0100
0100
0300
1E00
0100
0080
0080
0080
C100
3E00
0800
0800
0800
0800
ENDCHAR
STARTCHAR 049A
ENCODING 1178
SWIDTH 600 0
DWIDTH 15 0
BBX 12 22 2 -5
BITMAP
C060
C0C0
C080
C100
C100
C200
C200
C400
FC00
C600
C200
C100
C180
C080
C040
C060
C030
0010
0010
0010
0010
0010
ENDCHAR
STARTCHAR 049B
ENCODING 1179
SWIDTH 520 0
DWIDTH 13 0
BBX 10 17 2 -4
BITMAP
8180
8200
8200
8400
8400
8400
F800
8400
8600
8200
8100
8100
80C0
0040
0040
0040
0040
ENDCHAR
STARTCHAR 04A0
ENCODING 1184
SWIDTH 680 0
DWIDTH 17 0
BBX 16 16 1 1
BITMAP
FC03
0404
0408
0408
0410
0430
0420
07E0
0420
0430
0410
0408
040C
0404
0402
0403
ENDCHAR
STARTCHAR 04A1
ENCODING 1185
SWIDTH 600 0
DWIDTH 15 0
BBX 13 13 1 0
BITMAP
F818
0820
0820
0840
0840
0840
0F80
0840
0860
0820
0810
0818
0808
ENDCHAR
STARTCHAR 04A2
ENCODING 1186
SWIDTH 640 0
DWIDTH 16 0
BBX 13 21 2 -5
BITMAP
C030
C030
C030
C030
C030
C030
C030
FFF0
C030
C030
C030
C030
C030
C030
C030
C038
0008
0008
0008
0008
0008
ENDCHAR
STARTCHAR 04A3
ENCODING 1187
SWIDTH 560 0
DWIDTH 14 0
BBX 11 16 2 -4
BITMAP
8080
8080
8080
8080
8080
FF80
8080
8080
8080
8080
8080
80E0
0020
0020
0020
0020
ENDCHAR
STARTCHAR 04AA
ENCODING 1194
SWIDTH 560 0
DWIDTH 14 0
BBX 12 21 1 -4
BITMAP
07C0
1860
3000
2000
4000
4000
4000
C000
C000
C000
4000
4000
4000
6000
3010
1820
07C0
0100
0100
0100
0100
ENDCHAR
STARTCHAR 04AB
ENCODING 1195
SWIDTH 440 0
DWIDTH 11 0
BBX 10 17 1 -4
BITMAP
0F00
3080
6000
4000
4000
C000
8000
C000
4000
4000
6000
30C0
1F00
0400
0400
0400
0400
ENDCHAR
STARTCHAR 04AE
ENCODING 1198
SWIDTH 440 0
DWIDTH 11 0
BBX 10 16 1 0
BITMAP
80C0
8080
4180
4100
2100
2200
1200
1400
0C00
0800
0800
0800
0800
0800
0800
0800
ENDCHAR
STARTCHAR 04AF
ENCODING 1199
SWIDTH 440 0
DWIDTH 11 0
BBX 10 17 0 -4
BITMAP
C040
4040
40C0
2080
2080
3100
1100
1100
0A00
0A00
0A00
0400
0400
0400
0400
0400
0400
ENDCHAR
STARTCHAR 04B0
ENCODING 1200
SWIDTH 440 0
DWIDTH 11 0
BBX 11 16 0 0
BITMAP
C020
4040
6040
2080
3080
1100
1900
0A00
0E00
3FC0
0400
0400
0400
0400
0400
0400
ENDCHAR
STARTCHAR 04B1
ENCODING 1201
SWIDTH 440 0
DWIDTH 11 0
BBX 10 17 0 -5
BITMAP
C040
4040
4040
2080
2080
3100
1100
1100
0A00
0A00
0A00
7FC0
0400
0400
0400
0400
0400
ENDCHAR
STARTCHAR 04B2
ENCODING 1202
SWIDTH 520 0
DWIDTH 13 0
BBX 11 21 1 -5
BITMAP
C040
4080
6180
2100
1200
1200
0C00
0C00
0C00
1200
1200
2100
6180
4080
80C0
8060
0020
0020
0020
0020
0020
ENDCHAR
STARTCHAR 04B3
ENCODING 1203
SWIDTH 440 0
DWIDTH 11 0
BBX 9 16 1 -4
BITMAP
8100
4300
4200
2400
1400
1800
1800
2400
2600
4200
8100
8180
0080
0080
0080
0080
ENDCHAR
STARTCHAR 04B6
ENCODING 1206
SWIDTH 600 0
DWIDTH 15 0
BBX 12 22 2 -5
BITMAP
8040
8040
8040
8040
8040
8040
C040
6040
3FC0
0040
0040
0040
0040
0040
0040
0040
0070
0010
0010
0010
0010
0010
ENDCHAR
STARTCHAR 04B7
ENCODING 1207
SWIDTH 480 0
DWIDTH 12 0
BBX 10 16 2 -4
BITMAP
8100
8100
8100
8100
8100
C100
7F00
0100
0100
0100
0100
01C0
0040
0040
0040
0080
ENDCHAR
STARTCHAR 04BA
ENCODING 1210
SWIDTH 560 0
DWIDTH 14 0
BBX 11 16 2 0
BITMAP
C000
C000
C000
C000
C000
C000
FF00
C0C0
C040
C060
C020
C020
C020
C020
C020
C020
ENDCHAR
STARTCHAR 04BB
ENCODING 1211
SWIDTH 520 0
DWIDTH 13 0
BBX 9 18 2 1
BITMAP
8000
8000
8000
8000
8000
8000
8F00
B180
C080
8080
8080
8080
8080
8080
8080
8080
8080
8080
ENDCHAR
STARTCHAR 04C0
ENCODING 1216
SWIDTH 240 0
DWIDTH 6 0
BBX 2 16 2 0
BITMAP
C0
C0
C0
C0
C0
C0
C0
C0
C0
C0
C0
C0
C0
C0
C0
C0
ENDCHAR
STARTCHAR 04C1
ENCODING 1217
SWIDTH 760 0
DWIDTH 19 0
BBX 19 21 0 0
BITMAP
020800
011800
00F000
000000
E04060
204080
104100
104100
084200
084200
044600
044400
07FC00
044400
084200
084300
104100
304180
204080
604040
404060
ENDCHAR
STARTCHAR 04C2
ENCODING 1218
SWIDTH 640 0
DWIDTH 16 0
BBX 14 19 1 0
BITMAP
1020
1040
0840
0780
0000
0000
C20C
4208
2210
2210
1220
1220
1FE0
3220
2210
4218
4208
820C
8204
ENDCHAR
STARTCHAR 04CF
ENCODING 1231
SWIDTH 240 0
DWIDTH 6 0
BBX 2 18 2 0
BITMAP
80
80
80
80
80
80
80
80
80
80
80
80
80
80
80
80
80
40
ENDCHAR
STARTCHAR 04D0
ENCODING 1232
SWIDTH 520 0
DWIDTH 13 0
BBX 13 21 0 0
BITMAP
1040
0880
0700
0000
0200
0500
0500
0500
0880
0880
0880
1040
1040
1040
3FE0
2020
2020
4010
4010
4010
C008
ENDCHAR
STARTCHAR 04D1
ENCODING 1233
SWIDTH 480 0
DWIDTH 12 0
BBX 9 19 1 0
BITMAP
2080
2080
3100
1E00
0000
0000
1F00
6180
0080
0080
0080
0780
1880
6080
4080
C080
C080
4380
3C80
ENDCHAR
STARTCHAR 04D4
ENCODING 1236
SWIDTH 800 0
DWIDTH 20 0
BBX 18 17 1 0
BITMAP
00FFC0
00C000
014000
014000
024000
024000
044000
047F80
084000
084000
1FC000
204000
204000
404000
404000
804000
807FC0
ENDCHAR
STARTCHAR 04D5
ENCODING 1237
SWIDTH 800 0
DWIDTH 20 0
BBX 17 13 2 0
BITMAP
3C3C00
C26200
018100
018100
018080
070080
39FF80
410000
818000
808000
81C000
C66100
783E00
ENDCHAR
STARTCHAR 04D6
ENCODING 1238
SWIDTH 520 0
DWIDTH 13 0
BBX 10 21 2 0
BITMAP
2100
3100
0E00
0000
FF80
C000
C000
C000
C000
C000
C000
FF00
C000
C000
C000
C000
C000
C000
C000
C000
FFC0
ENDCHAR
STARTCHAR 04D7
ENCODING 1239
SWIDTH 480 0
DWIDTH 12 0
BBX 10 19 1 0
BITMAP
2080
2080
3180
0E00
0000
0000
0F00
3180
6080
4040
4040
8040
FFC0
8000
C000
4000
6000
3080
1F00
ENDCHAR
STARTCHAR 04D8
ENCODING 1240
SWIDTH 640 0
DWIDTH 16 0
BBX 13 17 2 0
BITMAP
0F80
3060
0020
0010
0010
0018
0008
0008
FFF8
8008
8008
8010
8010
4010
6020
30C0
0F80
ENDCHAR
STARTCHAR 04D9
ENCODING 1241
SWIDTH 480 0
DWIDTH 12 0
BBX 10 13 1 0
BITMAP
3E00
4300
0080
0080
00C0
0040
FFC0
8040
80C0
8080
4080
6100
1E00
ENDCHAR
STARTCHAR 04E2
ENCODING 1250
SWIDTH 640 0
DWIDTH 16 0
BBX 12 20 2 0
BITMAP
1F80
0000
0000
C030
C030
C050
C0D0
C090
C110
C110
C210
C610
C410
C810
C810
D010
D010
A010
E010
C010
ENDCHAR
STARTCHAR 04E3
ENCODING 1251
SWIDTH 560 0
DWIDTH 14 0
BBX 10 16 2 0
BITMAP
3F00
0000
0000
80C0
8140
8140
8240
82C0
84C0
88C0
88C0
90C0
90C0
A0C0
C0C0
C0C0
ENDCHAR
STARTCHAR 04E6
ENCODING 1254
SWIDTH 640 0
DWIDTH 16 0
BBX 14 20 1 0
BITMAP
0C40
0840
0000
07C0
1860
3010
2018
4008
400C
4004
C004
C004
C004
4004
400C
4008
6008
3010
1860
07C0
ENDCHAR
STARTCHAR 04E7
ENCODING 1255
SWIDTH 520 0
DWIDTH 13 0
BBX 11 18 1 0
BITMAP
1180
1180
0000
0000
0000
0F00
3080
6040
4060
4020
C020
8020
C020
4020
4060
6040
3080
1F00
ENDCHAR
STARTCHAR 04E8
ENCODING 1256
SWIDTH 640 0
DWIDTH 16 0
BBX 14 17 1 0
BITMAP
07C0
1870
2010
6008
4008
4004
C004
FFFC
C004
C004
4004
400C
4008
2008
3010
1860
07C0
ENDCHAR
STARTCHAR 04E9
ENCODING 1257
SWIDTH 520 0
DWIDTH 13 0
BBX 11 13 1 0
BITMAP
0F00
3080
6040
4060
4020
8020
FFE0
8020
C020
4020
6040
3080
1F00
ENDCHAR
STARTCHAR 04EE
ENCODING 1262
SWIDTH 480 0
DWIDTH 12 0
BBX 12 20 0 0
BITMAP
1F80
0000
0000
C010
4030
4020
2020
2040
1040
10C0
1880
0880
0900
0500
0500
0200
0200
0400
0C00
3800
ENDCHAR
STARTCHAR 04EF
ENCODING 1263
SWIDTH 440 0
DWIDTH 11 0
BBX 10 21 0 -5
BITMAP
1F80
0000
0000
C040
4040
4040
2080
2080
3080
1100
1100
0900
0A00
0A00
0600
0400
0400
0400
0800
1800
7000
ENDCHAR
STARTCHAR 04F2
ENCODING 1266
SWIDTH 480 0
DWIDTH 12 0
BBX 12 22 0 0
BITMAP
0240
0440
0880
0900
0000
C010
4030
4020
2020
2040
3040
10C0
1880
0880
0900
0500
0500
0200
0200
0400
0C00
3800
ENDCHAR
STARTCHAR 04F3
ENCODING 1267
SWIDTH 440 0
DWIDTH 11 0
BBX 9 24 1 -5
BITMAP
0480
0900
0900
1200
0000
0000
0000
8080
8080
C180
4100
4100
2200
2200
3200
1400
1400
0C00
0800
0800
0800
1000
3000
E000
ENDCHAR
STARTCHAR 1D43
ENCODING 7491
SWIDTH 320 0
DWIDTH 8 0
BBX 6 8 1 10
BITMAP
78
04
04
3C
44
84
84
7C
ENDCHAR
STARTCHAR 1D47
ENCODING 7495
SWIDTH 360 0
DWIDTH 9 0
BBX 7 12 1 10
BITMAP
80
80
80
80
BC
C2
82
82
82
82
C6
B8
ENDCHAR
STARTCHAR 1D48
ENCODING 7496
SWIDTH 360 0
DWIDTH 9 0
BBX 7 12 1 10
BITMAP
02
02
02
02
3A
46
82
82
82
82
46
3A
ENDCHAR
STARTCHAR 1D49
ENCODING 7497
SWIDTH 320 0
DWIDTH 8 0
BBX 7 8 1 10
BITMAP
38
44
84
FE
80
80
40
3C
ENDCHAR
STARTCHAR 1D4D
ENCODING 7501
SWIDTH 320 0
DWIDTH 8 0
BBX 7 12 1 6
BITMAP
7E
84
84
84
4C
70
80
7C
82
82
84
78
ENDCHAR
STARTCHAR 1D4F
ENCODING 7503
SWIDTH 320 0
DWIDTH 8 0
BBX 7 12 1 10
BITMAP
80
80
80
80
84
88
90
B0
C8
C8
84
86
ENDCHAR
STARTCHAR 1D50
ENCODING 7504
SWIDTH 560 0
DWIDTH 14 0
BBX 11 8 1 10
BITMAP
B9E0
C620
8420
8420
8420
8420
8420
8420
ENDCHAR
STARTCHAR 1D52
ENCODING 7506
SWIDTH 360 0
DWIDTH 9 0
BBX 7 8 1 10
BITMAP
38
44
82
82
82
82
44
38
ENDCHAR
STARTCHAR 1D56
ENCODING 7510
SWIDTH 360 0
DWIDTH 9 0
BBX 7 11 1 7
BITMAP
BC
C2
82
82
82
82
C6
B8
80
80
80
ENDCHAR
STARTCHAR 1D57
ENCODING 7511
SWIDTH 200 0
DWIDTH 5 0
BBX 5 10 0 10
BITMAP
20
20
F8
20
20
20
20
20
20
38
ENDCHAR
STARTCHAR 1D58
ENCODING 7512
SWIDTH 360 0
DWIDTH 9 0
BBX 7 8 1 10
BITMAP
82
82
82
82
82
82
46
7A
ENDCHAR
STARTCHAR 1D5B
ENCODING 7515
SWIDTH 320 0
DWIDTH 8 0
BBX 7 8 0 10
BITMAP
82
42
44
44
24
28
18
10
ENDCHAR
STARTCHAR 1D9C
ENCODING 7580
SWIDTH 320 0
DWIDTH 8 0
BBX 6 8 1 10
BITMAP
38
40
80
80
80
80
40
3C
ENDCHAR
STARTCHAR 1DA0
ENCODING 7584
SWIDTH 200 0
DWIDTH 5 0
BBX 4 12 1 10
BITMAP
70
40
40
40
E0
40
40
40
40
40
40
40
ENDCHAR
STARTCHAR 1DBB
ENCODING 7611
SWIDTH 280 0
DWIDTH 7 0
BBX 6 8 0 10
BITMAP
7C
04
08
10
20
20
40
FC
ENDCHAR
STARTCHAR 1E06
ENCODING 7686
SWIDTH 560 0
DWIDTH 14 0
BBX 11 21 2 -4
BITMAP
FF00
C0C0
C040
C040
C040
C040
C080
FF00
C0C0
C060
C020
C020
C020
C020
C060
C0C0
FF00
0000
0000
0000
3F00
ENDCHAR
STARTCHAR 1E07
ENCODING 7687
SWIDTH 560 0
DWIDTH 14 0
BBX 10 22 2 -4
BITMAP
8000
8000
8000
8000
8000
8F00
A180
C0C0
8040
8040
8040
8040
8040
8040
8040
C080
E100
9E00
0000
0000
0000
3F00
ENDCHAR
STARTCHAR 1E0C
ENCODING 7692
SWIDTH 600 0
DWIDTH 15 0
BBX 12 22 2 -5
BITMAP
FE00
C180
C0C0
C060
C020
C020
C030
C030
C010
C030
C030
C020
C020
C060
C040
C180
FE00
0000
0000
0000
0400
0400
ENDCHAR
STARTCHAR 1E0D
ENCODING 7693
SWIDTH 560 0
DWIDTH 14 0
BBX 10 23 1 -5
BITMAP
0040
0040
0040
0040
0040
0F40
30C0
6040
4040
4040
C040
8040
C040
C040
4040
6040
31C0
1E40
0000
0000
0000
0200
0200
ENDCHAR
STARTCHAR 1E0E
ENCODING 7694
SWIDTH 600 0
DWIDTH 15 0
BBX 12 21 2 -4
BITMAP
FE00
C180
C0C0
C060
C020
C020
C030
C030
C010
C030
C030
C020
C020
C060
C040
C180
FE00
0000
0000
0000
3F80
ENDCHAR
STARTCHAR 1E0F
ENCODING 7695
SWIDTH 560 0
DWIDTH 14 0
BBX 10 22 1 -4
BITMAP
0040
0040
0040
0040
0040
0F40
30C0
6040
4040
4040
C040
8040
C040
C040
4040
6040
31C0
1E40
0000
0000
0000
1F80
ENDCHAR
STARTCHAR 1E16
ENCODING 7702
SWIDTH 520 0
DWIDTH 13 0
BBX 10 24 2 0
BITMAP
0200
0400
0800
0000
3F00
0000
0000
FF80
C000
C000
C000
C000
C000
C000
FF00
C000
C000
C000
C000
C000
C000
C000
C000
FFC0
ENDCHAR
STARTCHAR 1E17
ENCODING 7703
SWIDTH 480 0
DWIDTH 12 0
BBX 10 20 1 0
BITMAP
0300
0400
0800
0000
3F80
0000
0000
0F00
3180
6080
4040
4040
8040
FFC0
8000
C000
4000
6000
3080
1F00
ENDCHAR
STARTCHAR 1E20
ENCODING 7712
SWIDTH 600 0
DWIDTH 15 0
BBX 12 20 1 0
BITMAP
07E0
0000
0000
07C0
1830
3010
2000
4000
4000
4000
C000
C000
C1F0
C010
4010
4010
6010
3010
1830
07C0
ENDCHAR
STARTCHAR 1E21
ENCODING 7713
SWIDTH 480 0
DWIDTH 12 0
BBX 11 22 1 -6
BITMAP
3F80
0000
0000
1FE0
2100
4080
4080
4080
4080
6080
3100
3E00
4000
4000
6000
3FC0
4060
4020
8020
C040
60C0
1F00
ENDCHAR
STARTCHAR 1E24
ENCODING 7716
SWIDTH 640 0
DWIDTH 16 0
BBX 12 22 2 -5
BITMAP
C030
C030
C030
C030
C030
C030
C030
FFF0
C030
C030
C030
C030
C030
C030
C030
C030
C030
0000
0000
0000
0600
0600
ENDCHAR
STARTCHAR 1E25
ENCODING 7717
SWIDTH 520 0
DWIDTH 13 0
BBX 9 23 2 -5
BITMAP
8000
8000
8000
8000
8000
8F00
B180
C080
8080
8080
8080
8080
8080
8080
8080
8080
8080
8080
0000
0000
0000
0C00
0C00
ENDCHAR
STARTCHAR 1E2A
ENCODING 7722
SWIDTH 640 0
DWIDTH 16 0
BBX 12 23 2 -6
BITMAP
C030
C030
C030
C030
C030
C030
C030
FFF0
C030
C030
C030
C030
C030
C030
C030
C030
C030
0000
0000
2040
1080
1880
0F00
ENDCHAR
STARTCHAR 1E2B
ENCODING 7723
SWIDTH 520 0
DWIDTH 13 0
BBX 9 24 2 -6
BITMAP
8000
8000
8000
8000
8000
8F00
B180
C080
8080
8080
8080
8080
8080
8080
8080
8080
8080
8080
0000
0000
4080
2100
3100
1E00
ENDCHAR
STARTCHAR 1E32
ENCODING 7730
SWIDTH 560 0
DWIDTH 14 0
BBX 11 22 2 -5
BITMAP
C060
C0C0
C180
C100
C200
C400
CC00
DC00
F200
E300
C100
C180
C080
C0C0
C040
C020
C020
0000
0000
0000
0600
0600
ENDCHAR
STARTCHAR 1E33
ENCODING 7731
SWIDTH 480 0
DWIDTH 12 0
BBX 9 23 2 -5
BITMAP
8000
8000
8000
8000
8000
8100
8300
8600
8400
8800
9800
BC00
A400
C600
8200
8100
8100
8080
0000
0000
0000
0800
0800
ENDCHAR
STARTCHAR 1E34
ENCODING 7732
SWIDTH 560 0
DWIDTH 14 0
BBX 11 21 2 -4
BITMAP
C060
C0C0
C180
C100
C200
C400
CC00
DC00
F200
E300
C100
C180
C080
C0C0
C040
C020
C020
0000
0000
0000
1F80
ENDCHAR
STARTCHAR 1E35
ENCODING 7733
SWIDTH 480 0
DWIDTH 12 0
BBX 9 22 2 -4
BITMAP
8000
8000
8000
8000
8000
8100
8300
8600
8400
8800
9800
BC00
A400
C600
8200
8100
8100
8080
0000
0000
0000
7E00
ENDCHAR
STARTCHAR 1E36
ENCODING 7734
SWIDTH 480 0
DWIDTH 12 0
BBX 9 22 2 -5
BITMAP
C000
C000
C000
C000
C000
C000
C000
C000
C000
C000
C000
C000
C000
C000
C000
C000
FF80
0000
0000
0000
0C00
0C00
ENDCHAR
STARTCHAR 1E37
ENCODING 7735
SWIDTH 240 0
DWIDTH 6 0
BBX 2 23 2 -5
BITMAP
80
80
80
80
80
80
80
80
80
80
80
80
80
80
80
80
80
40
00
00
00
40
40
ENDCHAR
STARTCHAR 1E38
ENCODING 7736
SWIDTH 480 0
DWIDTH 12 0
BBX 11 25 0 -5
BITMAP
FC00
0000
0000
3000
3000
3000
3000
3000
3000
3000
3000
3000
3000
3000
3000
3000
3000
3000
3000
3FE0
0000
0000
0000
0300
0300
ENDCHAR
STARTCHAR 1E39
ENCODING 7737
SWIDTH 240 0
DWIDTH 6 0
BBX 6 27 0 -5
BITMAP
FC
00
00
00
20
20
20
20
20
20
20
20
20
20
20
20
20
20
20
20
20
10
00
00
00
10
10
ENDCHAR
STARTCHAR 1E3A
ENCODING 7738
SWIDTH 480 0
DWIDTH 12 0
BBX 9 21 2 -4
BITMAP
C000
C000
C000
C000
C000
C000
C000
C000
C000
C000
C000
C000
C000
C000
C000
C000
FF80
0000
0000
0000
3F00
ENDCHAR
STARTCHAR 1E3B
ENCODING 7739
SWIDTH 240 0
DWIDTH 6 0
BBX 7 22 0 -4
BITMAP
20
20
20
20
20
20
20
20
20
20
20
20
20
20
20
20
20
10
00
00
00
FE
ENDCHAR
STARTCHAR 1E3E
ENCODING 7742
SWIDTH 720 0
DWIDTH 18 0
BBX 13 21 2 1
BITMAP
0080
0100
0200
0000
C018
A018
A018
A028
9028
9028
9048
8848
8848
8888
8488
8488
8508
8308
8208
8008
8008
ENDCHAR
STARTCHAR 1E3F
ENCODING 7743
SWIDTH 800 0
DWIDTH 20 0
BBX 16 18 2 1
BITMAP
0060
0080
0100
0000
0000
8E1E
A123
C1C1
8081
8081
8081
8081
8081
8081
8081
8081
8081
8081
ENDCHAR
STARTCHAR 1E40
ENCODING 7744
SWIDTH 720 0
DWIDTH 18 0
BBX 13 21 2 0
BITMAP
0300
0300
0000
0000
C018
A018
A018
A028
9028
9028
9048
8848
8848
8888
8488
8488
8508
8308
8208
8008
8008
ENDCHAR
STARTCHAR 1E41
ENCODING 7745
SWIDTH 800 0
DWIDTH 20 0
BBX 16 18 2 0
BITMAP
0180
0180
0000
0000
0000
8E1E
A123
C1C1
8081
8081
8081
8081
8081
8081
8081
8081
8081
8081
ENDCHAR
STARTCHAR 1E42
ENCODING 7746
SWIDTH 720 0
DWIDTH 18 0
BBX 13 22 2 -5
BITMAP
C018
A018
A018
A028
9028
9028
9048
8848
8848
8888
8488
8488
8508
8308
8208
8008
8008
0000
0000
0000
0300
0300
ENDCHAR
STARTCHAR 1E43
ENCODING 7747
SWIDTH 800 0
DWIDTH 20 0
BBX 16 18 2 -5
BITMAP
8E1E
A123
C1C1
8081
8081
8081
8081
8081
8081
8081
8081
8081
8081
0000
0000
0000
0080
0080
ENDCHAR
STARTCHAR 1E44
ENCODING 7748
SWIDTH 640 0
DWIDTH 16 0
BBX 11 21 2 0
BITMAP
0600
0600
0000
0000
C020
C020
A020
B020
D020
C820
C820
C420
C620
C220
C320
C120
C0A0
C0A0
C060
C060
C020
ENDCHAR
STARTCHAR 1E45
ENCODING 7749
SWIDTH 520 0
DWIDTH 13 0
BBX 9 18 2 0
BITMAP
0C00
0C00
0000
0000
0000
8F00
B180
C080
8080
8080
8080
8080
8080
8080
8080
8080
8080
8080
ENDCHAR
STARTCHAR 1E46
ENCODING 7750
SWIDTH 640 0
DWIDTH 16 0
BBX 11 22 2 -5
BITMAP
C020
C020
A020
B020
D020
C820
C820
C420
C620
C220
C320
C120
C0A0
C0A0
C060
C060
C020
0000
0000
0000
0600
0600
ENDCHAR
STARTCHAR 1E47
ENCODING 7751
SWIDTH 520 0
DWIDTH 13 0
BBX 9 18 2 -5
BITMAP
8F00
B180
C080
8080
8080
8080
8080
8080
8080
8080
8080
8080
8080
0000
0000
0000
0C00
0C00
ENDCHAR
STARTCHAR 1E48
ENCODING 7752
SWIDTH 640 0
DWIDTH 16 0
BBX 11 21 2 -4
BITMAP
C020
C020
A020
B020
D020
C820
C820
C420
C620
C220
C320
C120
C0A0
C0A0
C060
C060
C020
0000
0000
0000
1F80
ENDCHAR
STARTCHAR 1E49
ENCODING 7753
SWIDTH 520 0
DWIDTH 13 0
BBX 9 17 2 -4
BITMAP
8F00
B180
C080
8080
8080
8080
8080
8080
8080
8080
8080
8080
8080
0000
0000
0000
3F00
ENDCHAR
STARTCHAR 1E52
ENCODING 7762
SWIDTH 640 0
DWIDTH 16 0
BBX 14 24 1 0
BITMAP
0080
0180
0200
0000
0FC0
0000
0000
07C0
1860
3010
2018
4008
400C
4004
C004
C004
C004
4004
400C
4008
6008
3010
1860
07C0
ENDCHAR
STARTCHAR 1E53
ENCODING 7763
SWIDTH 520 0
DWIDTH 13 0
BBX 11 20 1 0
BITMAP
0300
0400
0000
0000
1F80
0000
0000
0F00
3080
6040
4060
4020
C020
8020
C020
4020
4060
6040
3080
1F00
ENDCHAR
STARTCHAR 1E58
ENCODING 7768
SWIDTH 560 0
DWIDTH 14 0
BBX 11 21 2 0
BITMAP
0C00
0C00
0000
0000
FF00
C0C0
C040
C060
C060
C040
C040
C080
FF00
C600
C200
C300
C100
C080
C080
C040
C060
ENDCHAR
STARTCHAR 1E59
ENCODING 7769
SWIDTH 320 0
DWIDTH 8 0
BBX 6 18 2 0
BITMAP
30
30
00
00
00
9C
A0
C0
C0
80
80
80
80
80
80
80
80
80
ENDCHAR
STARTCHAR 1E5A
ENCODING 7770
SWIDTH 560 0
DWIDTH 14 0
BBX 11 22 2 -5
BITMAP
FF00
C0C0
C040
C060
C060
C040
C040
C080
FF00
C600
C200
C300
C100
C080
C080
C040
C060
0000
0000
0000
0C00
0C00
ENDCHAR
STARTCHAR 1E5B
ENCODING 7771
SWIDTH 320 0
DWIDTH 8 0
BBX 6 18 2 -5
BITMAP
9C
A0
C0
C0
80
80
80
80
80
80
80
80
80
00
00
00
C0
C0
ENDCHAR
STARTCHAR 1E5C
ENCODING 7772
SWIDTH 560 0
DWIDTH 14 0
BBX 11 25 2 -5
BITMAP
3F00
0000
0000
FF00
C0C0
C040
C060
C060
C040
C040
C080
FF00
C600
C200
C300
C100
C080
C080
C040
C060
0000
0000
0000
0C00
0C00
ENDCHAR
STARTCHAR 1E5D
ENCODING 7773
SWIDTH 320 0
DWIDTH 8 0
BBX 6 21 2 -5
BITMAP
FC
00
00
9C
A0
C0
C0
80
80
80
80
80
80
80
80
80
00
00
00
C0
C0
ENDCHAR
STARTCHAR 1E5E
ENCODING 7774
SWIDTH 560 0
DWIDTH 14 0
BBX 11 21 2 -4
BITMAP
FF00
C0C0
C040
C060
C060
C040
C040
C080
FF00
C600
C200
C300
C100
C080
C080
C040
C060
0000
0000
0000
3F00
ENDCHAR
STARTCHAR 1E5F
ENCODING 7775
SWIDTH 320 0
DWIDTH 8 0
BBX 8 17 0 -4
BITMAP
27
28
30
30
20
20
20
20
20
20
20
20
20
00
00
00
FC
ENDCHAR
STARTCHAR 1E60
ENCODING 7776
SWIDTH 520 0
DWIDTH 13 0
BBX 11 20 1 0
BITMAP
0600
0600
0000
0F00
30C0
6040
4000
4000
6000
3000
1C00
0700
01C0
0060
0020
0020
0020
C060
70C0
1F00
ENDCHAR
STARTCHAR 1E61
ENCODING 7777
SWIDTH 400 0
DWIDTH 10 0
BBX 8 18 1 0
BITMAP
18
18
00
00
00
3C
43
C0
C0
40
70
1C
03
01
01
01
C3
3C
ENDCHAR
STARTCHAR 1E62
ENCODING 7778
SWIDTH 520 0
DWIDTH 13 0
BBX 11 22 1 -5
BITMAP
0F00
30C0
6040
4000
4000
6000
3000
1C00
0700
01C0
0060
0020
0020
0020
C060
70C0
1F00
0000
0000
0000
0600
0600
ENDCHAR
STARTCHAR 1E63
ENCODING 7779
SWIDTH 400 0
DWIDTH 10 0
BBX 8 18 1 -5
BITMAP
3C
43
C0
C0
40
70
1C
03
01
01
01
C3
3C
00
00
00
08
08
ENDCHAR
STARTCHAR 1E6C
ENCODING 7788
SWIDTH 520 0
DWIDTH 13 0
BBX 11 22 1 -5
BITMAP
FFE0
0400
0400
0400
0400
0400
0400
0400
0400
0400
0400
0400
0400
0400
0400
0400
0400
0000
0000
0000
0400
0400
ENDCHAR
STARTCHAR 1E6D
ENCODING 7789
SWIDTH 320 0
DWIDTH 8 0
BBX 7 21 1 -5
BITMAP
20
20
20
FC
20
20
20
20
20
20
20
20
20
20
20
1E
00
00
00
18
18
ENDCHAR
STARTCHAR 1E6E
ENCODING 7790
SWIDTH 520 0
DWIDTH 13 0
BBX 11 21 1 -4
BITMAP
FFE0
0400
0400
0400
0400
0400
0400
0400
0400
0400
0400
0400
0400
0400
0400
0400
0400
0000
0000
0000
3F80
ENDCHAR
STARTCHAR 1E6F
ENCODING 7791
SWIDTH 320 0
DWIDTH 8 0
BBX 7 20 1 -4
BITMAP
20
20
20
FC
20
20
20
20
20
20
20
20
20
20
20
1E
00
00
00
7E
ENDCHAR
STARTCHAR 1E80
ENCODING 7808
SWIDTH 760 0
DWIDTH 19 0
BBX 17 22 1 0
BITMAP
020000
030000
008000
000000
000000
808080
80C080
814080
C14080
414180
412100
422100
422100
222100
221200
241200
241200
341200
140A00
180C00
180C00
180C00
ENDCHAR
STARTCHAR 1E81
ENCODING 7809
SWIDTH 680 0
DWIDTH 17 0
BBX 15 19 1 0
BITMAP
0400
0600
0300
0080
0000
0000
8102
8282
8282
4282
4284
4444
4444
2444
2448
2828
2828
1830
1830
ENDCHAR
STARTCHAR 1E82
ENCODING 7810
SWIDTH 760 0
DWIDTH 19 0
BBX 17 22 1 0
BITMAP
002000
006000
00C000
000000
000000
808080
80C080
814080
C14080
414180
412100
422100
422100
222100
221200
241200
241200
341200
140A00
180C00
180C00
180C00
ENDCHAR
STARTCHAR 1E83
ENCODING 7811
SWIDTH 680 0
DWIDTH 17 0
BBX 15 19 1 0
BITMAP
0040
00C0
0180
0300
0000
0000
8102
8282
8282
4282
4284
4444
4444
2444
2448
2828
2828
1830
1830
ENDCHAR
STARTCHAR 1E84
ENCODING 7812
SWIDTH 760 0
DWIDTH 19 0
BBX 17 21 1 0
BITMAP
063000
063000
000000
000000
808080
80C080
814080
C14080
414180
412100
422100
422100
222100
221200
241200
241200
341200
140A00
180C00
180C00
180C00
ENDCHAR
STARTCHAR 1E85
ENCODING 7813
SWIDTH 680 0
DWIDTH 17 0
BBX 15 18 1 0
BITMAP
0460
0460
0000
0000
0000
8102
8282
8282
4282
4284
4444
4444
2444
2448
2828
2828
1830
1830
ENDCHAR
STARTCHAR 1E8E
ENCODING 7822
SWIDTH 440 0
DWIDTH 11 0
BBX 11 21 0 0
BITMAP
0400
0400
0000
0000
C020
4040
4040
2080
2080
1100
1100
0A00
0A00
0400
0400
0400
0400
0400
0400
0400
0400
ENDCHAR
STARTCHAR 1E8F
ENCODING 7823
SWIDTH 440 0
DWIDTH 11 0
BBX 10 23 0 -5
BITMAP
0600
0600
0000
0000
0000
C040
4040
4040
2080
2080
3080
1100
1100
0900
0A00
0A00
0600
0400
0400
0400
0800
1800
7000
ENDCHAR
STARTCHAR 1E92
ENCODING 7826
SWIDTH 520 0
DWIDTH 13 0
BBX 11 22 1 -5
BITMAP
7FE0
0060
0040
0080
0080
0100
0300
0200
0400
0C00
0800
1000
1000
2000
6000
4000
FFE0
0000
0000
0000
0600
0600
ENDCHAR
STARTCHAR 1E93
ENCODING 7827
SWIDTH 400 0
DWIDTH 10 0
BBX 8 18 1 -5
BITMAP
FF
03
02
04
04
08
18
10
20
60
40
80
FF
00
00
00
08
08
ENDCHAR
STARTCHAR 1E94
ENCODING 7828
SWIDTH 520 0
DWIDTH 13 0
BBX 11 21 1 -4
BITMAP
7FE0
0060
0040
0080
0080
0100
0300
0200
0400
0C00
0800
1000
1000
2000
6000
4000
FFE0
0000
0000
0000
1F80
ENDCHAR
STARTCHAR 1E95
ENCODING 7829
SWIDTH 400 0
DWIDTH 10 0
BBX 8 17 1 -4
BITMAP
FF
03
02
04
04
08
18
10
20
60
40
80
FF
00
00
00
7F
ENDCHAR
STARTCHAR 1E96
ENCODING 7830
SWIDTH 520 0
DWIDTH 13 0
BBX 9 22 2 -4
BITMAP
8000
8000
8000
8000
8000
8F00
B180
C080
8080
8080
8080
8080
8080
8080
8080
8080
8080
8080
0000
0000
0000
3F00
ENDCHAR
STARTCHAR 1E97
ENCODING 7831
SWIDTH 320 0
DWIDTH 8 0
BBX 8 21 0 0
BITMAP
C4
C4
00
00
00
10
10
10
7E
10
10
10
10
10
10
10
10
10
10
10
0F
ENDCHAR
STARTCHAR 1E9E
ENCODING 7838
SWIDTH 640 0
DWIDTH 16 0
BBX 13 17 2 0
BITMAP
0F80
30C0
6020
4020
4040
C0C0
C180
C300
C3C0
C070
C018
C008
C008
C008
C818
CC30
C3E0
ENDCHAR
STARTCHAR 1EA0
ENCODING 7840
SWIDTH 520 0
DWIDTH 13 0
BBX 13 22 0 -5
BITMAP
0200
0500
0500
0500
0880
0880
0880
1040
1040
1040
3FE0
2020
2020
4010
4010
4010
C008
0000
0000
0000
0200
0200
ENDCHAR
STARTCHAR 1EA1
ENCODING 7841
SWIDTH 480 0
DWIDTH 12 0
BBX 9 18 1 -5
BITMAP
1F00
6180
0080
0080
0080
0780
1880
6080
4080
C080
C080
4380
3C80
0000
0000
0000
0C00
0C00
ENDCHAR
STARTCHAR 1EA2
ENCODING 7842
SWIDTH 520 0
DWIDTH 13 0
BBX 13 22 0 0
BITMAP
0600
0100
0100
0200
0000
0200
0500
0500
0500
0880
0880
0880
1040
1040
1040
3FE0
2020
2030
4010
4010
4018
8008
ENDCHAR
STARTCHAR 1EA3
ENCODING 7843
SWIDTH 480 0
DWIDTH 12 0
BBX 9 19 1 0
BITMAP
0C00
0200
0200
0400
0000
0000
1F00
6180
0080
0080
0080
0780
3880
6080
4080
C080
4080
4380
3C80
ENDCHAR
STARTCHAR 1EA4
ENCODING 7844
SWIDTH 520 0
DWIDTH 13 0
BBX 13 22 0 1
BITMAP
0020
0240
0580
0800
0000
0200
0500
0500
0500
0880
0880
0880
1040
1040
1040
3FE0
2020
2020
4010
4010
4010
C008
ENDCHAR
STARTCHAR 1EA5
ENCODING 7845
SWIDTH 480 0
DWIDTH 12 0
BBX 11 20 1 0
BITMAP
0060
0040
0C80
1A00
2100
0000
0000
1F00
6180
0080
0080
0080
0780
1880
6080
4080
C080
C080
4380
3C80
ENDCHAR
STARTCHAR 1EA6
ENCODING 7846
SWIDTH 520 0
DWIDTH 13 0
BBX 13 23 0 0
BITMAP
2000
3000
1200
0580
0800
0000
0200
0500
0500
0500
0880
0880
0880
1040
1040
1040
3FE0
2020
2020
4010
4010
4010
C008
ENDCHAR
STARTCHAR 1EA7
ENCODING 7847
SWIDTH 480 0
DWIDTH 12 0
BBX 9 20 1 0
BITMAP
8000
4000
2C00
1A00
2100
0000
0000
1F00
6180
0080
0080
0080
0780
1880
6080
4080
C080
C080
4380
3C80
ENDCHAR
STARTCHAR 1EA8
ENCODING 7848
SWIDTH 520 0
DWIDTH 13 0
BBX 13 23 0 0
BITMAP
00C0
0020
0220
05C0
0800
0000
0200
0500
0500
0500
0880
0880
0880
1040
1040
1040
3FE0
2020
2030
4010
4010
4018
8008
ENDCHAR
STARTCHAR 1EA9
ENCODING 7849
SWIDTH 480 0
DWIDTH 12 0
BBX 10 20 1 0
BITMAP
0180
0040
0CC0
1A00
2100
0000
0000
1F00
6180
0080
0080
0080
0780
3880
6080
4080
C080
4080
4380
3C80
ENDCHAR
STARTCHAR 1EAA
ENCODING 7850
SWIDTH 520 0
DWIDTH 13 0
BBX 13 24 0 0
BITMAP
0C40
1340
0080
0200
0580
0800
0000
0200
0500
0500
0500
0880
0880
0880
1040
1040
1040
3FE0
2020
2020
4010
4010
4010
C008
ENDCHAR
STARTCHAR 1EAB
ENCODING 7851
SWIDTH 480 0
DWIDTH 12 0
BBX 9 21 1 0
BITMAP
1800
2C80
2300
0000
0E00
1300
0000
0000
1F00
6180
0080
0080
0080
0780
1880
6080
4080
C080
C080
4380
3C80
ENDCHAR
STARTCHAR 1EAC
ENCODING 7852
SWIDTH 520 0
DWIDTH 13 0
BBX 13 27 0 -5
BITMAP
0200
0500
0880
1040
0000
0200
0500
0500
0500
0880
0880
0880
1040
1040
1040
3FE0
2020
2020
4010
4010
4010
C008
0000
0000
0000
0200
0200
ENDCHAR
STARTCHAR 1EAD
ENCODING 7853
SWIDTH 480 0
DWIDTH 12 0
BBX 9 24 1 -5
BITMAP
0C00
0A00
1100
2080
0000
0000
1F00
6180
0080
0080
0080
0780
1880
6080
4080
C080
C080
4380
3C80
0000
0000
0000
0C00
0C00
ENDCHAR
STARTCHAR 1EAE
ENCODING 7854
SWIDTH 520 0
DWIDTH 13 0
BBX 13 23 0 1
BITMAP
0180
0200
1040
0880
0700
0000
0200
0500
0500
0500
0880
0880
0880
1040
1040
1040
3FE0
2020
2020
4010
4010
4010
C008
ENDCHAR
STARTCHAR 1EAF
ENCODING 7855
SWIDTH 480 0
DWIDTH 12 0
BBX 9 20 1 0
BITMAP
0200
0600
2480
2180
1E00
0000
0000
1F00
6180
0080
0080
0080
0780
1880
6080
4080
C080
C080
4380
3C80
ENDCHAR
STARTCHAR 1EB0
ENCODING 7856
SWIDTH 520 0
DWIDTH 13 0
BBX 13 23 0 1
BITMAP
0400
0200
1040
0880
0700
0000
0200
0500
0500
0500
0880
0880
0880
1040
1040
1040
3FE0
2020
2020
4010
4010
4010
C008
ENDCHAR
STARTCHAR 1EB1
ENCODING 7857
SWIDTH 480 0
DWIDTH 12 0
BBX 9 20 1 0
BITMAP
0800
0800
2480
2180
1E00
0000
0000
1F00
6180
0080
0080
0080
0780
1880
6080
4080
C080
C080
4380
3C80
ENDCHAR
STARTCHAR 1EB2
ENCODING 7858
SWIDTH 520 0
DWIDTH 13 0
BBX 13 24 0 0
BITMAP
0700
0100
0100
1240
0880
0700
0000
0200
0500
0500
0500
0880
0880
0880
1040
1040
1040
3FE0
2020
2030
4010
4010
4018
8008
ENDCHAR
STARTCHAR 1EB3
ENCODING 7859
SWIDTH 480 0
DWIDTH 12 0
BBX 9 21 1 0
BITMAP
0C00
0200
0280
2480
3100
1E00
0000
0000
1F00
6180
0080
0080
0080
0780
3880
6080
4080
C080
4080
4380
3C80
ENDCHAR
STARTCHAR 1EB4
ENCODING 7860
SWIDTH 520 0
DWIDTH 13 0
BBX 13 24 0 0
BITMAP
0C40
1240
0180
1040
0880
0700
0000
0200
0500
0500
0500
0880
0880
0880
1040
1040
1040
3FE0
2020
2020
4010
4010
4010
C008
ENDCHAR
STARTCHAR 1EB5
ENCODING 7861
SWIDTH 480 0
DWIDTH 12 0
BBX 9 21 1 0
BITMAP
1800
2C80
2300
2000
2100
1E00
0000
0000
1F00
6180
0080
0080
0080
0780
1880
6080
4080
C080
C080
4380
3C80
ENDCHAR
STARTCHAR 1EB6
ENCODING 7862
SWIDTH 520 0
DWIDTH 13 0
BBX 13 26 0 -5
BITMAP
1040
0880
0700
0000
0200
0500
0500
0500
0880
0880
0880
1040
1040
1040
3FE0
2020
2020
4010
4010
4010
C008
0000
0000
0000
0200
0200
ENDCHAR
STARTCHAR 1EB7
ENCODING 7863
SWIDTH 480 0
DWIDTH 12 0
BBX 9 23 1 -5
BITMAP
2080
2180
1E00
0000
0000
1F00
6180
0080
0080
0080
0780
1880
6080
4080
C080
C080
4380
3C80
0000
0000
0000
0C00
0C00
ENDCHAR
STARTCHAR 1EB8
ENCODING 7864
SWIDTH 520 0
DWIDTH 13 0
BBX 10 22 2 -5
BITMAP
FF80
C000
C000
C000
C000
C000
C000
FF00
C000
C000
C000
C000
C000
C000
C000
C000
FFC0
0000
0000
0000
0400
0400
ENDCHAR
STARTCHAR 1EB9
ENCODING 7865
SWIDTH 480 0
DWIDTH 12 0
BBX 10 18 1 -5
BITMAP
0F00
3180
6080
4040
4040
8040
FFC0
8000
C000
4000
6000
3080
1F00
0000
0000
0000
0400
0400
ENDCHAR
STARTCHAR 1EBA
ENCODING 7866
SWIDTH 520 0
DWIDTH 13 0
BBX 10 22 2 0
BITMAP
0C00
0200
0200
0C00
0000
FF80
C000
C000
C000
C000
C000
C000
FF00
C000
C000
C000
C000
C000
C000
C000
C000
FFC0
ENDCHAR
STARTCHAR 1EBB
ENCODING 7867
SWIDTH 480 0
DWIDTH 12 0
BBX 10 19 1 0
BITMAP
0C00
0200
0200
0400
0000
0000
0F00
3180
6080
4040
4040
8040
FFC0
8000
C000
4000
6000
3080
1F00
ENDCHAR
STARTCHAR 1EBC
ENCODING 7868
SWIDTH 520 0
DWIDTH 13 0
BBX 10 21 2 0
BITMAP
3880
4C80
4300
0000
FF80
C000
C000
C000
C000
C000
C000
FF00
C000
C000
C000
C000
C000
C000
C000
C000
FFC0
ENDCHAR
STARTCHAR 1EBD
ENCODING 7869
SWIDTH 480 0
DWIDTH 12 0
BBX 10 19 1 0
BITMAP
1840
2480
4680
4300
0000
0000
0F00
3180
6080
4040
4040
8040
FFC0
8000
C000
4000
6000
3080
1F00
ENDCHAR
STARTCHAR 1EBE
ENCODING 7870
SWIDTH 520 0
DWIDTH 13 0
BBX 10 23 2 0
BITMAP
0040
00C0
0D00
1200
2100
0000
FF80
C000
C000
C000
C000
C000
C000
FF00
C000
C000
C000
C000
C000
C000
C000
C000
FFC0
ENDCHAR
STARTCHAR 1EBF
ENCODING 7871
SWIDTH 480 0
DWIDTH 12 0
BBX 11 20 1 0
BITMAP
0020
0040
0480
1B00
0080
0000
0000
0F00
3180
6080
4040
4040
8040
FFC0
8000
C000
4000
6000
3080
1F00
ENDCHAR
STARTCHAR 1EC0
ENCODING 7872
SWIDTH 520 0
DWIDTH 13 0
BBX 10 22 2 1
BITMAP
4000
2C00
1200
2100
0000
FF80
C000
C000
C000
C000
C000
C000
FF00
C000
C000
C000
C000
C000
C000
C000
C000
FFC0
ENDCHAR
STARTCHAR 1EC1
ENCODING 7873
SWIDTH 480 0
DWIDTH 12 0
BBX 10 20 1 0
BITMAP
8000
4000
2400
1B00
0080
0000
0000
0F00
3180
6080
4040
4040
8040
FFC0
8000
C000
4000
6000
3080
1F00
ENDCHAR
STARTCHAR 1EC2
ENCODING 7874
SWIDTH 520 0
DWIDTH 13 0
BBX 10 23 2 0
BITMAP
0180
0040
0C80
1200
2100
0000
FF80
C000
C000
C000
C000
C000
C000
FF00
C000
C000
C000
C000
C000
C000
C000
C000
FFC0
ENDCHAR
STARTCHAR 1EC3
ENCODING 7875
SWIDTH 480 0
DWIDTH 12 0
BBX 10 20 1 0
BITMAP
0180
0040
0440
1B80
0080
0000
0000
0F00
3180
6080
4040
4040
8040
FFC0
8000
C000
4000
6000
3080
1F00
ENDCHAR
STARTCHAR 1EC4
ENCODING 7876
SWIDTH 520 0
DWIDTH 13 0
BBX 10 24 2 0
BITMAP
3880
2500
0200
0C00
1200
2100
0000
FF80
C000
C000
C000
C000
C000
C000
FF00
C000
C000
C000
C000
C000
C000
C000
C000
FFC0
ENDCHAR
STARTCHAR 1EC5
ENCODING 7877
SWIDTH 480 0
DWIDTH 12 0
BBX 10 21 1 0
BITMAP
1800
2C80
2300
0000
0E00
1900
0000
0000
0F00
3180
6080
4040
4040
8040
FFC0
8000
C000
4000
6000
3080
1F00
ENDCHAR
STARTCHAR 1EC6
ENCODING 7878
SWIDTH 520 0
DWIDTH 13 0
BBX 10 27 2 -5
BITMAP
0C00
1200
2100
0000
0000
FF80
C000
C000
C000
C000
C000
C000
FF00
C000
C000
C000
C000
C000
C000
C000
C000
FFC0
0000
0000
0000
0400
0400
ENDCHAR
STARTCHAR 1EC7
ENCODING 7879
SWIDTH 480 0
DWIDTH 12 0
BBX 10 24 1 -5
BITMAP
0400
0A00
1100
2080
0000
0000
0F00
3180
6080
4040
4040
8040
FFC0
8000
C000
4000
6000
3080
1F00
0000
0000
0000
0400
0400
ENDCHAR
STARTCHAR 1EC8
ENCODING 7880
SWIDTH 240 0
DWIDTH 6 0
BBX 3 22 2 0
BITMAP
80
60
20
C0
00
C0
C0
C0
C0
C0
C0
C0
C0
C0
C0
C0
C0
C0
C0
C0
C0
C0
ENDCHAR
STARTCHAR 1EC9
ENCODING 7881
SWIDTH 240 0
DWIDTH 6 0
BBX 3 19 2 0
BITMAP
80
60
20
C0
00
00
00
80
80
80
80
80
80
80
80
80
80
80
80
ENDCHAR
STARTCHAR 1ECA
ENCODING 7882
SWIDTH 240 0
DWIDTH 6 0
BBX 2 22 2 -5
BITMAP
C0
C0
C0
C0
C0
C0
C0
C0
C0
C0
C0
C0
C0
C0
C0
C0
C0
00
00
00
C0
C0
ENDCHAR
STARTCHAR 1ECB
ENCODING 7883
SWIDTH 240 0
DWIDTH 6 0
BBX 2 23 2 -5
BITMAP
C0
C0
00
00
00
80
80
80
80
80
80
80
80
80
80
80
80
80
00
00
00
C0
C0
ENDCHAR
STARTCHAR 1ECC
ENCODING 7884
SWIDTH 640 0
DWIDTH 16 0
BBX 14 22 1 -5
BITMAP
07C0
1860
3010
2018
4008
400C
4004
C004
C004
C004
4004
400C
4008
6008
3010
1860
07C0
0000
0000
0000
0300
0300
ENDCHAR
STARTCHAR 1ECD
ENCODING 7885
SWIDTH 520 0
DWIDTH 13 0
BBX 11 18 1 -5
BITMAP
0F00
3080
6040
4060
4020
C020
8020
C020
4020
4060
6040
3080
1F00
0000
0000
0000
0600
0600
ENDCHAR
STARTCHAR 1ECE
ENCODING 7886
SWIDTH 640 0
DWIDTH 16 0
BBX 14 22 1 0
BITMAP
0200
0080
0080
0300
0000
07C0
1860
3010
2018
4008
400C
4004
C004
C004
C004
4004
400C
4008
6008
3010
1860
07C0
ENDCHAR
STARTCHAR 1ECF
ENCODING 7887
SWIDTH 520 0
DWIDTH 13 0
BBX 11 19 1 0
BITMAP
0E00
0200
0200
0400
0000
0000
0F00
3080
6040
4060
4020
C020
8020
C020
4020
4060
6040
3080
1F00
ENDCHAR
STARTCHAR 1ED0
ENCODING 7888
SWIDTH 640 0
DWIDTH 16 0
BBX 14 23 1 0
BITMAP
0010
0030
0360
0480
0840
0000
07C0
1860
3010
2018
4008
400C
4004
C004
C004
C004
4004
400C
4008
6008
3010
1860
07C0
ENDCHAR
STARTCHAR 1ED1
ENCODING 7889
SWIDTH 520 0
DWIDTH 13 0
BBX 11 20 1 0
BITMAP
0020
0040
0680
0B00
1080
0000
0000
0F00
3080
6040
4060
4020
C020
8020
C020
4020
4060
6040
3080
1F00
ENDCHAR
STARTCHAR 1ED2
ENCODING 7890
SWIDTH 640 0
DWIDTH 16 0
BBX 14 22 1 1
BITMAP
1000
0B00
0480
0840
0000
07C0
1860
3010
2018
4008
400C
4004
C004
C004
C004
4004
400C
4008
6008
3010
1860
07C0
ENDCHAR
STARTCHAR 1ED3
ENCODING 7891
SWIDTH 520 0
DWIDTH 13 0
BBX 11 20 1 0
BITMAP
8000
4000
2600
0B00
1080
0000
0000
0F00
3080
6040
4060
4020
C020
8020
C020
4020
4060
6040
3080
1F00
ENDCHAR
STARTCHAR 1ED4
ENCODING 7892
SWIDTH 640 0
DWIDTH 16 0
BBX 14 23 1 0
BITMAP
0040
0010
0320
0480
0840
0000
07C0
1860
3010
2018
4008
400C
4004
C004
C004
C004
4004
400C
4008
6008
3010
1860
07C0
ENDCHAR
STARTCHAR 1ED5
ENCODING 7893
SWIDTH 520 0
DWIDTH 13 0
BBX 11 20 1 0
BITMAP
00C0
0040
0640
0B80
1080
0000
0000
0F00
3080
6040
4060
4020
C020
8020
C020
4020
4060
6040
3080
1F00
ENDCHAR
STARTCHAR 1ED6
ENCODING 7894
SWIDTH 640 0
DWIDTH 16 0
BBX 14 23 1 0
BITMAP
0E20
01C0
0300
0480
0840
0000
07C0
1860
3010
2018
4008
400C
4004
C004
C004
C004
4004
400C
4008
6008
3010
1860
07C0
ENDCHAR
STARTCHAR 1ED7
ENCODING 7895
SWIDTH 520 0
DWIDTH 13 0
BBX 11 21 1 0
BITMAP
1800
2480
2300
0000
0600
1900
0000
0000
0F00
3080
6040
4060
4020
C020
8020
C020
4020
4060
6040
3080
1F00
ENDCHAR
STARTCHAR 1ED8
ENCODING 7896
SWIDTH 640 0
DWIDTH 16 0
BBX 14 26 1 -5
BITMAP
0300
0480
0840
0000
07C0
1860
3010
2018
4008
400C
4004
C004
C004
C004
4004
400C
4008
6008
3010
1860
07C0
0000
0000
0000
0300
0300
ENDCHAR
STARTCHAR 1ED9
ENCODING 7897
SWIDTH 520 0
DWIDTH 13 0
BBX 11 24 1 -5
BITMAP
0600
0A00
1100
2080
0000
0000
0F00
3080
6040
4060
4020
C020
8020
C020
4020
4060
6040
3080
1F00
0000
0000
0000
0600
0600
ENDCHAR
STARTCHAR 1EDA
ENCODING 7898
SWIDTH 640 0
DWIDTH 16 0
BBX 14 21 1 1
BITMAP
00C0
018C
0204
0004
07D8
1860
3010
2008
4008
400C
4004
4004
C004
4004
4004
400C
4008
2008
3010
1860
07C0
ENDCHAR
STARTCHAR 1EDB
ENCODING 7899
SWIDTH 520 0
DWIDTH 13 0
BBX 12 19 1 0
BITMAP
0100
0100
0200
0420
0030
0020
0FC0
3080
6040
4060
4020
C020
8020
C020
4020
4060
6040
3080
1F00
ENDCHAR
STARTCHAR 1EDC
ENCODING 7900
SWIDTH 640 0
DWIDTH 16 0
BBX 14 21 1 1
BITMAP
0400
020C
0104
0004
07D8
1860
3010
2008
4008
400C
4004
4004
C004
4004
4004
400C
4008
2008
3010
1860
07C0
ENDCHAR
STARTCHAR 1EDD
ENCODING 7901
SWIDTH 520 0
DWIDTH 13 0
BBX 12 19 1 0
BITMAP
1000
1800
0C00
0220
0030
0020
0FC0
3080
6040
4060
4020
C020
8020
C020
4020
4060
6040
3080
1F00
ENDCHAR
STARTCHAR 1EDE
ENCODING 7902
SWIDTH 640 0
DWIDTH 16 0
BBX 14 22 1 0
BITMAP
0200
0080
008C
0304
0004
07D8
1860
3010
2008
4008
400C
4004
4004
C004
4004
4004
400C
4008
2008
3010
1860
07C0
ENDCHAR
STARTCHAR 1EDF
ENCODING 7903
SWIDTH 520 0
DWIDTH 13 0
BBX 11 19 1 0
BITMAP
0E00
0200
0200
0420
0020
0020
0FC0
3080
6040
4060
4020
C020
8020
C020
4020
4060
6040
3080
1F00
ENDCHAR
STARTCHAR 1EE0
ENCODING 7904
SWIDTH 640 0
DWIDTH 16 0
BBX 14 21 1 0
BITMAP
0E20
132C
10C4
0004
07D8
1860
3010
2008
4008
400C
4004
4004
C004
4004
4004
400C
4008
2008
3010
1860
07C0
ENDCHAR
STARTCHAR 1EE1
ENCODING 7905
SWIDTH 520 0
DWIDTH 13 0
BBX 11 19 1 0
BITMAP
1840
2440
26A0
43A0
0020
0020
0FC0
3080
6040
4060
4020
C020
8020
C020
4020
4060
6040
3080
1F00
ENDCHAR
STARTCHAR 1EE2
ENCODING 7906
SWIDTH 640 0
DWIDTH 16 0
BBX 14 25 1 -5
BITMAP
000C
0004
0004
07D8
1860
3010
2008
4008
400C
4004
4004
C004
4004
4004
400C
4008
2008
3010
1860
07C0
0000
0000
0000
0300
0300
ENDCHAR
STARTCHAR 1EE3
ENCODING 7907
SWIDTH 520 0
DWIDTH 13 0
BBX 12 21 1 -4
BITMAP
0030
0020
0020
0FC0
3080
6040
4060
4020
C020
8020
C020
4020
4060
6040
3080
1F00
0000
0000
0000
0600
0600
ENDCHAR
STARTCHAR 1EE4
ENCODING 7908
SWIDTH 640 0
DWIDTH 16 0
BBX 11 22 2 -5
BITMAP
C020
C020
C020
C020
C020
C020
C020
C020
C020
C020
C020
C020
4020
4020
6060
30C0
1F00
0000
0000
0000
0600
0600
ENDCHAR
STARTCHAR 1EE5
ENCODING 7909
SWIDTH 520 0
DWIDTH 13 0
BBX 9 18 2 -5
BITMAP
8080
8080
8080
8080
8080
8080
8080
8080
8080
8080
C180
4280
3C80
0000
0000
0000
0C00
0C00
ENDCHAR
STARTCHAR 1EE6
ENCODING 7910
SWIDTH 640 0
DWIDTH 16 0
BBX 11 22 2 0
BITMAP
0400
0300
0100
0600
0000
C020
C020
C020
C020
C020
C020
C020
C020
C020
C020
C020
C020
4020
4020
6060
30C0
1F00
ENDCHAR
STARTCHAR 1EE7
ENCODING 7911
SWIDTH 520 0
DWIDTH 13 0
BBX 9 19 2 0
BITMAP
1800
0400
0400
0C00
0000
0000
0000
8080
8080
8080
8080
8080
8080
8080
8080
8080
C180
4280
3C80
ENDCHAR
STARTCHAR 1EE8
ENCODING 7912
SWIDTH 640 0
DWIDTH 16 0
BBX 14 21 2 1
BITMAP
0104
0204
0404
000C
C030
C020
C020
C020
C020
C020
C020
C020
C020
C020
C020
C020
4020
4020
6060
30C0
1F00
ENDCHAR
STARTCHAR 1EE9
ENCODING 7913
SWIDTH 520 0
DWIDTH 13 0
BBX 11 19 2 0
BITMAP
0200
0600
0C00
1020
0020
0060
8080
8080
8080
8080
8080
8080
8080
8080
8080
8080
C180
4280
3C80
ENDCHAR
STARTCHAR 1EEA
ENCODING 7914
SWIDTH 640 0
DWIDTH 16 0
BBX 14 21 2 1
BITMAP
0804
0404
0204
000C
C030
C020
C020
C020
C020
C020
C020
C020
C020
C020
C020
C020
4020
4020
6060
30C0
1F00
ENDCHAR
STARTCHAR 1EEB
ENCODING 7915
SWIDTH 520 0
DWIDTH 13 0
BBX 11 19 2 0
BITMAP
2000
3000
1800
0420
0020
0060
8080
8080
8080
8080
8080
8080
8080
8080
8080
8080
C180
4280
3C80
ENDCHAR
STARTCHAR 1EEC
ENCODING 7916
SWIDTH 640 0
DWIDTH 16 0
BBX 14 22 2 0
BITMAP
0400
0304
0104
0604
0004
C038
C020
C020
C020
C020
C020
C020
C020
C020
C020
C020
C020
4020
4020
6060
30C0
1F00
ENDCHAR
STARTCHAR 1EED
ENCODING 7917
SWIDTH 520 0
DWIDTH 13 0
BBX 11 19 2 0
BITMAP
1800
0400
0400
0C20
0020
0020
0040
8080
8080
8080
8080
8080
8080
8080
8080
8080
C180
4280
3C80
ENDCHAR
STARTCHAR 1EEE
ENCODING 7918
SWIDTH 640 0
DWIDTH 16 0
BBX 14 21 2 0
BITMAP
1C44
2644
2384
000C
C030
C020
C020
C020
C020
C020
C020
C020
C020
C020
C020
C020
4020
4020
6060
30C0
1F00
ENDCHAR
STARTCHAR 1EEF
ENCODING 7919
SWIDTH 520 0
DWIDTH 13 0
BBX 11 19 2 0
BITMAP
3080
4900
8D20
8620
0020
0060
8080
8080
8080
8080
8080
8080
8080
8080
8080
8080
C180
4280
3C80
ENDCHAR
STARTCHAR 1EF0
ENCODING 7920
SWIDTH 640 0
DWIDTH 16 0
BBX 14 26 2 -5
BITMAP
0004
0004
0004
000C
C030
C020
C020
C020
C020
C020
C020
C020
C020
C020
C020
C020
4020
4020
6060
30C0
1F00
0000
0000
0000
0600
0600
ENDCHAR
STARTCHAR 1EF1
ENCODING 7921
SWIDTH 520 0
DWIDTH 13 0
BBX 11 22 2 -5
BITMAP
0020
0020
0020
0060
8080
8080
8080
8080
8080
8080
8080
8080
8080
8080
C180
4280
3C80
0000
0000
0000
0C00
0C00
ENDCHAR
STARTCHAR 1EF2
ENCODING 7922
SWIDTH 440 0
DWIDTH 11 0
BBX 11 22 0 0
BITMAP
1000
1800
0400
0000
0000
C020
4040
4040
2080
2080
1100
1100
0A00
0A00
0400
0400
0400
0400
0400
0400
0400
0400
ENDCHAR
STARTCHAR 1EF3
ENCODING 7923
SWIDTH 440 0
DWIDTH 11 0
BBX 10 24 0 -5
BITMAP
1000
1800
0400
0200
0000
0000
C040
4040
4040
2080
2080
3080
1100
1100
0900
0A00
0A00
0600
0400
0400
0400
0800
1800
7000
ENDCHAR
STARTCHAR 1EF4
ENCODING 7924
SWIDTH 440 0
DWIDTH 11 0
BBX 11 22 0 -5
BITMAP
C020
4040
4040
2080
2080
1100
1100
0A00
0A00
0400
0400
0400
0400
0400
0400
0400
0400
0000
0000
0000
0400
0400
ENDCHAR
STARTCHAR 1EF5
ENCODING 7925
SWIDTH 440 0
DWIDTH 11 0
BBX 10 18 0 -5
BITMAP
C040
4040
4040
2080
2080
3080
1100
1100
0900
0A00
0A00
0600
0400
0400
0400
08C0
18C0
7000
ENDCHAR
STARTCHAR 1EF6
ENCODING 7926
SWIDTH 440 0
DWIDTH 11 0
BBX 11 22 0 0
BITMAP
0C00
0200
0200
0600
0000
8020
4040
4040
2080
2080
1100
1100
0A00
0A00
0400
0400
0400
0400
0400
0400
0400
0400
ENDCHAR
STARTCHAR 1EF7
ENCODING 7927
SWIDTH 440 0
DWIDTH 11 0
BBX 9 24 1 -5
BITMAP
1800
0400
0400
0C00
0000
0000
0000
8080
8080
C180
4100
4100
2300
2200
3200
1400
1400
0C00
0800
0800
0800
1000
3000
E000
ENDCHAR
STARTCHAR 1EF8
ENCODING 7928
SWIDTH 440 0
DWIDTH 11 0
BBX 11 21 0 0
BITMAP
3840
2480
4380
0000
C020
4040
4040
2080
2080
1100
1100
0A00
0A00
0400
0400
0400
0400
0400
0400
0400
0400
ENDCHAR
STARTCHAR 1EF9
ENCODING 7929
SWIDTH 440 0
DWIDTH 11 0
BBX 10 24 0 -5
BITMAP
1840
2440
2280
2180
0000
0000
C040
4040
4040
2080
2080
3080
1100
1100
0900
0A00
0A00
0600
0400
0400
0400
0800
1800
7000
ENDCHAR
STARTCHAR 1F00
ENCODING 7936
SWIDTH 560 0
DWIDTH 14 0
BBX 12 20 1 0
BITMAP
0400
0300
0100
0200
0400
0000
0000
0E20
31A0
60A0
40A0
4040
C040
8040
C040
C040
40C0
40C0
2140
1E70
ENDCHAR
STARTCHAR 1F01
ENCODING 7937
SWIDTH 560 0
DWIDTH 14 0
BBX 12 19 1 0
BITMAP
0600
0800
0800
0600
0000
0000
0E20
31A0
60A0
40A0
4040
C040
8040
C040
C040
40C0
40C0
2140
1E70
ENDCHAR
STARTCHAR 1F02
ENCODING 7938
SWIDTH 560 0
DWIDTH 14 0
BBX 12 19 1 0
BITMAP
1A00
0900
0900
1100
0000
0000
0E20
31A0
60A0
40A0
4040
C040
8040
C040
C040
40C0
40C0
2140
1E70
ENDCHAR
STARTCHAR 1F03
ENCODING 7939
SWIDTH 560 0
DWIDTH 14 0
BBX 12 19 1 0
BITMAP
1A00
2200
2100
1900
0000
0000
0E20
31A0
60A0
40A0
4040
C040
8040
C040
C040
40C0
40C0
2140
1E70
ENDCHAR
STARTCHAR 1F04
ENCODING 7940
SWIDTH 560 0
DWIDTH 14 0
BBX 12 19 1 0
BITMAP
1900
0900
0900
1200
0000
0000
0E20
31A0
60A0
40A0
4040
C040
8040
C040
C040
40C0
40C0
2140
1E70
ENDCHAR
STARTCHAR 1F05
ENCODING 7941
SWIDTH 560 0
DWIDTH 14 0
BBX 12 19 1 0
BITMAP
1900
1100
1200
0A00
0000
0000
0E20
31A0
60A0
40A0
4040
C040
8040
C040
C040
40C0
40C0
2140
1E70
ENDCHAR
STARTCHAR 1F06
ENCODING 7942
SWIDTH 560 0
DWIDTH 14 0
BBX 12 21 1 0
BITMAP
1800
1680
0380
0400
0200
0200
0400
0000
0E20
31A0
60A0
40A0
4040
C040
8040
C040
C040
40C0
40C0
2140
1E70
ENDCHAR
STARTCHAR 1F07
ENCODING 7943
SWIDTH 560 0
DWIDTH 14 0
BBX 12 21 1 0
BITMAP
1800
1680
0380
0200
0400
0400
0000
0000
0E20
31A0
60A0
40A0
4040
C040
8040
C040
C040
40C0
40C0
2140
1E70
ENDCHAR
STARTCHAR 1F08
ENCODING 7944
SWIDTH 520 0
DWIDTH 13 0
BBX 13 17 0 0
BITMAP
C300
2300
2500
6480
0480
0880
0840
0840
1040
1020
1FE0
2020
2010
2010
4010
4018
4008
ENDCHAR
STARTCHAR 1F09
ENCODING 7945
SWIDTH 520 0
DWIDTH 13 0
BBX 13 17 0 0
BITMAP
6300
8300
8500
8480
0480
0880
0840
0840
1040
1060
1FE0
2020
2030
2010
4010
4018
4008
ENDCHAR
STARTCHAR 1F0A
ENCODING 7946
SWIDTH 640 0
DWIDTH 16 0
BBX 16 17 0 0
BITMAP
9840
48A0
48A0
48A0
8890
0110
0110
0108
0208
0208
07FC
0404
0404
0C02
0802
0803
1801
ENDCHAR
STARTCHAR 1F0B
ENCODING 7947
SWIDTH 640 0
DWIDTH 16 0
BBX 16 17 0 0
BITMAP
5040
98A0
88A0
88A0
4910
0110
0110
0208
0208
0208
07FC
0404
0404
0802
0802
0802
1001
ENDCHAR
STARTCHAR 1F0C
ENCODING 7948
SWIDTH 640 0
DWIDTH 16 0
BBX 16 17 0 0
BITMAP
8840
48A0
48A0
50A0
8090
0110
0110
0308
0208
0208
07FC
0404
0404
0C02
0802
0802
1801
ENDCHAR
STARTCHAR 1F0D
ENCODING 7949
SWIDTH 640 0
DWIDTH 16 0
BBX 16 17 0 0
BITMAP
4840
88A0
90A0
90A0
4110
0110
0110
0208
0208
0208
07FC
0404
0404
0802
0802
0802
1003
ENDCHAR
STARTCHAR 1F0E
ENCODING 7950
SWIDTH 560 0
DWIDTH 14 0
BBX 14 17 0 0
BITMAP
D980
2180
6280
1240
6240
0440
0460
0420
0820
0830
0FF0
1010
1018
1008
2008
200C
2004
ENDCHAR
STARTCHAR 1F0F
ENCODING 7951
SWIDTH 560 0
DWIDTH 14 0
BBX 14 17 0 0
BITMAP
D980
2180
6280
4240
6240
0440
0460
0420
0820
0830
0FF0
1010
1018
1008
2008
200C
2004
ENDCHAR
STARTCHAR 1F10
ENCODING 7952
SWIDTH 440 0
DWIDTH 11 0
BBX 9 19 1 0
BITMAP
0C00
0200
0200
0C00
0000
0000
1E00
2180
4000
4000
4000
2000
1E00
6000
C000
8000
C000
6080
3F00
ENDCHAR
STARTCHAR 1F11
ENCODING 7953
SWIDTH 440 0
DWIDTH 11 0
BBX 9 19 1 0
BITMAP
0C00
1000
1000
0C00
0000
0000
1E00
2180
4000
4000
4000
2000
1E00
6000
C000
8000
C000
6080
3F00
ENDCHAR
STARTCHAR 1F12
ENCODING 7954
SWIDTH 440 0
DWIDTH 11 0
BBX 9 19 1 0
BITMAP
3400
1200
1200
2200
0000
0000
1E00
2180
4000
4000
4000
2000
1E00
6000
C000
8000
C000
6080
3F00
ENDCHAR
STARTCHAR 1F13
ENCODING 7955
SWIDTH 440 0
DWIDTH 11 0
BBX 9 19 1 0
BITMAP
3400
4400
2200
3200
0000
0000
1E00
2180
4000
4000
4000
2000
1E00
6000
C000
8000
C000
6080
3F00
ENDCHAR
STARTCHAR 1F14
ENCODING 7956
SWIDTH 440 0
DWIDTH 11 0
BBX 9 19 1 0
BITMAP
3200
1200
1200
2400
0000
0000
1E00
2180
4000
4000
4000
2000
1E00
6000
C000
8000
C000
6080
3F00
ENDCHAR
STARTCHAR 1F15
ENCODING 7957
SWIDTH 440 0
DWIDTH 11 0
BBX 9 19 1 0
BITMAP
3200
2200
2200
1400
0000
0000
1E00
2180
4000
4000
4000
2000
1E00
6000
C000
8000
C000
6080
3F00
ENDCHAR
STARTCHAR 1F18
ENCODING 7960
SWIDTH 600 0
DWIDTH 15 0
BBX 14 17 0 0
BITMAP
C7FC
2400
2400
4400
8400
0400
0400
07F0
0400
0400
0400
0400
0400
0400
0400
0400
07FC
ENDCHAR
STARTCHAR 1F19
ENCODING 7961
SWIDTH 600 0
DWIDTH 15 0
BBX 14 17 0 0
BITMAP
67FC
8400
8400
C400
0400
0400
0400
07F0
0400
0400
0400
0400
0400
0400
0400
0400
07FC
ENDCHAR
STARTCHAR 1F1A
ENCODING 7962
SWIDTH 720 0
DWIDTH 18 0
BBX 16 17 0 0
BITMAP
99FF
4900
4900
4900
8100
0100
0100
01FE
0100
0100
0100
0100
0100
0100
0100
0100
01FF
ENDCHAR
STARTCHAR 1F1B
ENCODING 7963
SWIDTH 680 0
DWIDTH 17 0
BBX 16 17 0 0
BITMAP
51FF
9900
8900
8900
0100
0100
0100
01FE
0100
0100
0100
0100
0100
0100
0100
0100
01FF
ENDCHAR
STARTCHAR 1F1C
ENCODING 7964
SWIDTH 680 0
DWIDTH 17 0
BBX 16 17 0 0
BITMAP
89FF
4900
4900
5100
8100
0100
0100
01FE
0100
0100
0100
0100
0100
0100
0100
0100
01FF
ENDCHAR
STARTCHAR 1F1D
ENCODING 7965
SWIDTH 680 0
DWIDTH 17 0
BBX 16 17 0 0
BITMAP
49FF
8900
9100
9100
0100
0100
0100
01FE
0100
0100
0100
0100
0100
0100
0100
0100
01FF
ENDCHAR
STARTCHAR 1F20
ENCODING 7968
SWIDTH 520 0
DWIDTH 13 0
BBX 9 23 2 -4
BITMAP
0C00
0200
0200
0C00
0000
0000
8F00
9180
A080
C080
8080
8080
8080
8080
8080
8080
8080
8080
8080
0080
0080
0080
0080
ENDCHAR
STARTCHAR 1F21
ENCODING 7969
SWIDTH 520 0
DWIDTH 13 0
BBX 9 23 2 -4
BITMAP
0C00
1000
1000
0C00
0000
0000
8F00
9180
A080
C080
8080
8080
8080
8080
8080
8080
8080
8080
8080
0080
0080
0080
0080
ENDCHAR
STARTCHAR 1F22
ENCODING 7970
SWIDTH 520 0
DWIDTH 13 0
BBX 9 23 2 -4
BITMAP
3600
1200
1200
2200
0000
0000
8F00
9180
A080
C080
8080
8080
8080
8080
8080
8080
8080
8080
8080
0080
0080
0080
0080
ENDCHAR
STARTCHAR 1F23
ENCODING 7971
SWIDTH 520 0
DWIDTH 13 0
BBX 9 23 2 -4
BITMAP
3400
2600
2200
3200
0000
0000
8F00
9180
A080
C080
8080
8080
8080
8080
8080
8080
8080
8080
8080
0080
0080
0080
0080
ENDCHAR
STARTCHAR 1F24
ENCODING 7972
SWIDTH 520 0
DWIDTH 13 0
BBX 9 23 2 -4
BITMAP
3200
1200
1200
2400
0000
0000
8F00
9180
A080
C080
8080
8080
8080
8080
8080
8080
8080
8080
8080
0080
0080
0080
0080
ENDCHAR
STARTCHAR 1F25
ENCODING 7973
SWIDTH 520 0
DWIDTH 13 0
BBX 9 23 2 -4
BITMAP
1A00
2200
2200
1400
0000
0000
8F00
9180
A080
C080
8080
8080
8080
8080
8080
8080
8080
8080
8080
0080
0080
0080
0080
ENDCHAR
STARTCHAR 1F26
ENCODING 7974
SWIDTH 520 0
DWIDTH 13 0
BBX 9 25 2 -4
BITMAP
1000
2D00
2700
0800
0400
0400
0800
0000
8F00
9180
A080
C080
8080
8080
8080
8080
8080
8080
8080
8080
8080
0080
0080
0080
0080
ENDCHAR
STARTCHAR 1F27
ENCODING 7975
SWIDTH 520 0
DWIDTH 13 0
BBX 9 25 2 -4
BITMAP
1000
2D00
2700
0400
0800
0800
0000
0000
8F00
9180
A080
C080
8080
8080
8080
8080
8080
8080
8080
8080
8080
0080
0080
0080
0080
ENDCHAR
STARTCHAR 1F28
ENCODING 7976
SWIDTH 720 0
DWIDTH 18 0
BBX 16 17 0 0
BITMAP
C401
2401
2401
4401
C401
0401
0401
0401
07FF
0401
0401
0401
0401
0401
0401
0401
0401
ENDCHAR
STARTCHAR 1F29
ENCODING 7977
SWIDTH 720 0
DWIDTH 18 0
BBX 16 17 0 0
BITMAP
6401
8401
8401
8401
4401
0401
0401
0401
07FF
0401
0401
0401
0401
0401
0401
0401
0401
ENDCHAR
STARTCHAR 1F2A
ENCODING 7978
SWIDTH 840 0
DWIDTH 21 0
BBX 18 17 0 0
BITMAP
990040
490040
490040
490040
810040
010040
010040
01FFC0
010040
010040
010040
010040
010040
010040
010040
010040
010040
ENDCHAR
STARTCHAR 1F2B
ENCODING 7979
SWIDTH 800 0
DWIDTH 20 0
BBX 18 17 0 0
BITMAP
510040
990040
890040
890040
010040
010040
010040
01FFC0
010040
010040
010040
010040
010040
010040
010040
010040
010040
ENDCHAR
STARTCHAR 1F2C
ENCODING 7980
SWIDTH 840 0
DWIDTH 21 0
BBX 18 17 0 0
BITMAP
890040
490040
490040
510040
810040
010040
010040
01FFC0
010040
010040
010040
010040
010040
010040
010040
010040
010040
ENDCHAR
STARTCHAR 1F2D
ENCODING 7981
SWIDTH 800 0
DWIDTH 20 0
BBX 18 17 0 0
BITMAP
490040
890040
910040
910040
010040
010040
010040
01FFC0
010040
010040
010040
010040
010040
010040
010040
010040
010040
ENDCHAR
STARTCHAR 1F2E
ENCODING 7982
SWIDTH 800 0
DWIDTH 20 0
BBX 18 17 0 0
BITMAP
C90040
310040
610040
110040
610040
010040
010040
01FFC0
010040
010040
010040
010040
010040
010040
010040
010040
010040
ENDCHAR
STARTCHAR 1F2F
ENCODING 7983
SWIDTH 800 0
DWIDTH 20 0
BBX 18 17 0 0
BITMAP
C90040
310040
610040
410040
610040
010040
010040
01FFC0
010040
010040
010040
010040
010040
010040
010040
010040
010040
ENDCHAR
STARTCHAR 1F30
ENCODING 7984
SWIDTH 240 0
DWIDTH 6 0
BBX 3 20 2 0
BITMAP
80
60
20
C0
00
00
00
80
80
80
80
80
80
80
80
80
80
80
80
60
ENDCHAR
STARTCHAR 1F31
ENCODING 7985
SWIDTH 240 0
DWIDTH 6 0
BBX 4 20 1 0
BITMAP
20
C0
80
40
00
00
00
40
40
40
40
40
40
40
40
40
40
40
40
30
ENDCHAR
STARTCHAR 1F32
ENCODING 7986
SWIDTH 240 0
DWIDTH 6 0
BBX 5 20 0 0
BITMAP
90
58
48
48
88
00
00
20
20
20
20
20
20
20
20
20
20
20
20
18
ENDCHAR
STARTCHAR 1F33
ENCODING 7987
SWIDTH 240 0
DWIDTH 6 0
BBX 6 20 -1 0
BITMAP
28
C8
88
44
04
00
00
10
10
10
10
10
10
10
10
10
10
10
10
0C
ENDCHAR
STARTCHAR 1F34
ENCODING 7988
SWIDTH 240 0
DWIDTH 6 0
BBX 5 20 0 0
BITMAP
88
48
48
50
90
00
00
20
20
20
20
20
20
20
20
20
20
20
20
18
ENDCHAR
STARTCHAR 1F35
ENCODING 7989
SWIDTH 240 0
DWIDTH 6 0
BBX 5 20 0 0
BITMAP
48
88
88
90
10
00
00
20
20
20
20
20
20
20
20
20
20
20
20
18
ENDCHAR
STARTCHAR 1F36
ENCODING 7990
SWIDTH 240 0
DWIDTH 6 0
BBX 6 21 0 0
BITMAP
E4
9C
00
30
10
30
00
00
20
20
20
20
20
20
20
20
20
20
20
20
18
ENDCHAR
STARTCHAR 1F37
ENCODING 7991
SWIDTH 240 0
DWIDTH 6 0
BBX 6 21 0 0
BITMAP
E4
9C
00
30
40
30
00
00
20
20
20
20
20
20
20
20
20
20
20
20
18
ENDCHAR
STARTCHAR 1F38
ENCODING 7992
SWIDTH 320 0
DWIDTH 8 0
BBX 6 17 0 0
BITMAP
C4
24
24
44
84
04
04
04
04
04
04
04
04
04
04
04
04
ENDCHAR
STARTCHAR 1F39
ENCODING 7993
SWIDTH 320 0
DWIDTH 8 0
BBX 6 17 0 0
BITMAP
64
84
84
84
04
04
04
04
04
04
04
04
04
04
04
04
04
ENDCHAR
STARTCHAR 1F3A
ENCODING 7994
SWIDTH 440 0
DWIDTH 11 0
BBX 8 17 0 0
BITMAP
99
49
49
49
89
01
01
01
01
01
01
01
01
01
01
01
01
ENDCHAR
STARTCHAR 1F3B
ENCODING 7995
SWIDTH 440 0
DWIDTH 11 0
BBX 8 17 0 0
BITMAP
51
99
89
89
49
01
01
01
01
01
01
01
01
01
01
01
01
ENDCHAR
STARTCHAR 1F3C
ENCODING 7996
SWIDTH 440 0
DWIDTH 11 0
BBX 8 17 0 0
BITMAP
89
49
49
51
91
01
01
01
01
01
01
01
01
01
01
01
01
ENDCHAR
STARTCHAR 1F3D
ENCODING 7997
SWIDTH 400 0
DWIDTH 10 0
BBX 8 17 0 0
BITMAP
49
89
91
91
51
01
01
01
01
01
01
01
01
01
01
01
01
ENDCHAR
STARTCHAR 1F3E
ENCODING 7998
SWIDTH 400 0
DWIDTH 10 0
BBX 8 17 0 0
BITMAP
C9
31
61
11
61
01
01
01
01
01
01
01
01
01
01
01
01
ENDCHAR
STARTCHAR 1F3F
ENCODING 7999
SWIDTH 400 0
DWIDTH 10 0
BBX 8 17 0 0
BITMAP
C9
31
61
41
61
01
01
01
01
01
01
01
01
01
01
01
01
ENDCHAR
STARTCHAR 1F40
ENCODING 8000
SWIDTH 520 0
DWIDTH 13 0
BBX 11 20 1 0
BITMAP
0C00
0200
0200
0600
0000
0000
0000
1F00
3180
6040
4040
4060
C020
8020
C020
4060
4040
6040
3080
1F00
ENDCHAR
STARTCHAR 1F41
ENCODING 8001
SWIDTH 520 0
DWIDTH 13 0
BBX 11 19 1 0
BITMAP
0600
0800
0800
0400
0000
0000
1F00
3180
6040
4040
4060
C020
8020
C020
4060
4040
6040
3080
1F00
ENDCHAR
STARTCHAR 1F42
ENCODING 8002
SWIDTH 520 0
DWIDTH 13 0
BBX 11 19 1 0
BITMAP
3200
0A00
0A00
1100
0000
0000
1F00
3180
6040
4040
4060
C020
8020
C020
4060
4040
6040
3080
1F00
ENDCHAR
STARTCHAR 1F43
ENCODING 8003
SWIDTH 520 0
DWIDTH 13 0
BBX 11 19 1 0
BITMAP
1A00
2200
2200
1100
0000
0000
1F00
3180
6040
4040
4060
C020
8020
C020
4060
4040
6040
3080
1F00
ENDCHAR
STARTCHAR 1F44
ENCODING 8004
SWIDTH 520 0
DWIDTH 13 0
BBX 11 19 1 0
BITMAP
3100
0900
0A00
1200
0000
0000
1F00
3180
6040
4040
4060
C020
8020
C020
4060
4040
6040
3080
1F00
ENDCHAR
STARTCHAR 1F45
ENCODING 8005
SWIDTH 520 0
DWIDTH 13 0
BBX 11 19 1 0
BITMAP
1900
2200
2200
1200
0000
0000
1F00
3180
6040
4040
4060
C020
8020
C020
4060
4040
6040
3080
1F00
ENDCHAR
STARTCHAR 1F48
ENCODING 8008
SWIDTH 720 0
DWIDTH 18 0
BBX 17 17 0 0
BITMAP
C0F000
230C00
240600
4C0300
880100
180100
180180
100180
100180
100180
180180
180100
080100
0C0300
040600
030C00
01F000
ENDCHAR
STARTCHAR 1F49
ENCODING 8009
SWIDTH 720 0
DWIDTH 18 0
BBX 16 17 0 0
BITMAP
61F0
830C
8406
8802
4803
1001
1001
1001
1001
1001
1001
1001
0801
0802
0406
030C
01F0
ENDCHAR
STARTCHAR 1F4A
ENCODING 8010
SWIDTH 840 0
DWIDTH 21 0
BBX 19 17 0 0
BITMAP
983E00
48C180
4880C0
490040
8B0060
020020
020020
020020
020020
020020
020020
020020
030060
010040
0080C0
00E180
003E00
ENDCHAR
STARTCHAR 1F4B
ENCODING 8011
SWIDTH 840 0
DWIDTH 21 0
BBX 19 17 0 0
BITMAP
503E00
98C380
8980C0
890040
4B0060
020020
020020
020020
020020
020020
020020
020020
030060
010040
018080
00C100
003E00
ENDCHAR
STARTCHAR 1F4C
ENCODING 8012
SWIDTH 840 0
DWIDTH 21 0
BBX 19 17 0 0
BITMAP
883E00
48C380
4980C0
510040
930060
020020
020020
020020
020020
020020
020020
020020
030060
010040
018080
00C180
003E00
ENDCHAR
STARTCHAR 1F4D
ENCODING 8013
SWIDTH 800 0
DWIDTH 20 0
BBX 19 17 0 0
BITMAP
483E00
88C380
918080
910040
520060
020020
020020
020020
020020
020020
020020
020020
030040
010040
018080
00C300
003E00
ENDCHAR
STARTCHAR 1F50
ENCODING 8016
SWIDTH 480 0
DWIDTH 12 0
BBX 9 20 2 0
BITMAP
3000
0800
0400
0800
1000
0000
0000
8100
8100
8100
8180
8080
8080
8080
8080
8080
8100
8100
4200
3C00
ENDCHAR
STARTCHAR 1F51
ENCODING 8017
SWIDTH 480 0
DWIDTH 12 0
BBX 9 19 2 0
BITMAP
1800
2000
2000
1800
0000
0000
8100
8100
8100
8180
8080
8080
8080
8080
8080
8100
8100
4200
3C00
ENDCHAR
STARTCHAR 1F52
ENCODING 8018
SWIDTH 480 0
DWIDTH 12 0
BBX 9 19 2 0
BITMAP
E800
2C00
2400
4400
0000
0000
8100
8100
8100
8180
8080
8080
8080
8080
8080
8100
8100
4200
3C00
ENDCHAR
STARTCHAR 1F53
ENCODING 8019
SWIDTH 480 0
DWIDTH 12 0
BBX 9 19 2 0
BITMAP
6800
8800
8400
4400
0000
0000
8100
8100
8100
8180
8080
8080
8080
8080
8080
8100
8100
4200
3C00
ENDCHAR
STARTCHAR 1F54
ENCODING 8020
SWIDTH 480 0
DWIDTH 12 0
BBX 9 19 2 0
BITMAP
E400
2400
2400
4800
0000
0000
8100
8100
8100
8180
8080
8080
8080
8080
8080
8100
8100
4200
3C00
ENDCHAR
STARTCHAR 1F55
ENCODING 8021
SWIDTH 480 0
DWIDTH 12 0
BBX 9 19 2 0
BITMAP
6400
4400
4800
6800
0000
0000
8100
8100
8100
8180
8080
8080
8080
8080
8080
8100
8100
4200
3C00
ENDCHAR
STARTCHAR 1F56
ENCODING 8022
SWIDTH 480 0
DWIDTH 12 0
BBX 9 21 2 0
BITMAP
6000
5A00
0C00
1000
0800
0800
1000
0000
8100
8100
8100
8180
8080
8080
8080
8080
8080
8100
8100
4200
3C00
ENDCHAR
STARTCHAR 1F57
ENCODING 8023
SWIDTH 480 0
DWIDTH 12 0
BBX 9 21 2 0
BITMAP
6000
5A00
0C00
0800
2000
1000
0000
0000
8100
8100
8100
8180
8080
8080
8080
8080
8080
8100
8100
4200
3C00
ENDCHAR
STARTCHAR 1F59
ENCODING 8025
SWIDTH 600 0
DWIDTH 15 0
BBX 15 17 0 0
BITMAP
6806
8C04
840C
8608
0218
0310
0110
01A0
00A0
00C0
0040
0040
0040
0040
0040
0040
0040
ENDCHAR
STARTCHAR 1F5B
ENCODING 8027
SWIDTH 680 0
DWIDTH 17 0
BBX 17 17 0 0
BITMAP
530080
990100
890100
888200
488200
004400
004400
002800
002800
001800
001000
001000
001000
001000
001000
001000
001000
ENDCHAR
STARTCHAR 1F5D
ENCODING 8029
SWIDTH 680 0
DWIDTH 17 0
BBX 17 17 0 0
BITMAP
4B0080
890100
910100
908200
508200
004400
004400
002800
002800
001000
001000
001000
001000
001000
001000
001000
001000
ENDCHAR
STARTCHAR 1F5F
ENCODING 8031
SWIDTH 680 0
DWIDTH 17 0
BBX 16 17 0 0
BITMAP
CA01
3301
6103
4182
6086
00C4
0044
0048
0028
0030
0010
0010
0010
0010
0010
0010
0010
ENDCHAR
STARTCHAR 1F60
ENCODING 8032
SWIDTH 680 0
DWIDTH 17 0
BBX 14 20 1 0
BITMAP
0300
0080
0080
0180
0000
0000
0000
1010
2008
600C
4004
4004
4104
C104
C104
4104
4104
4104
2288
1C70
ENDCHAR
STARTCHAR 1F61
ENCODING 8033
SWIDTH 680 0
DWIDTH 17 0
BBX 14 19 1 0
BITMAP
0180
0200
0200
0100
0000
0000
1010
2008
600C
4004
4004
4104
C104
C104
4104
4104
4104
2288
1C70
ENDCHAR
STARTCHAR 1F62
ENCODING 8034
SWIDTH 680 0
DWIDTH 17 0
BBX 14 19 1 0
BITMAP
0C80
0280
0280
0440
0000
0000
1010
2008
600C
4004
4004
4104
C104
C104
4104
4104
4104
2288
1C70
ENDCHAR
STARTCHAR 1F63
ENCODING 8035
SWIDTH 680 0
DWIDTH 17 0
BBX 14 19 1 0
BITMAP
0780
0880
0880
0480
0000
0000
1010
2008
600C
4004
4004
4104
C104
C104
4104
4104
4104
2288
1C70
ENDCHAR
STARTCHAR 1F64
ENCODING 8036
SWIDTH 680 0
DWIDTH 17 0
BBX 14 19 1 0
BITMAP
0C40
02C0
0280
0480
0000
0000
1010
2008
600C
4004
4004
4104
C104
C104
4104
4104
4104
2288
1C70
ENDCHAR
STARTCHAR 1F65
ENCODING 8037
SWIDTH 680 0
DWIDTH 17 0
BBX 14 19 1 0
BITMAP
06C0
0880
0880
0480
0000
0000
1010
2008
600C
4004
4004
4104
C104
C104
4104
4104
4104
2288
1C70
ENDCHAR
STARTCHAR 1F66
ENCODING 8038
SWIDTH 680 0
DWIDTH 17 0
BBX 14 21 1 0
BITMAP
0600
0B20
08C0
0300
0080
0100
0000
0000
1010
2008
600C
4004
4004
4104
C104
C104
4104
4104
4104
2288
1C70
ENDCHAR
STARTCHAR 1F67
ENCODING 8039
SWIDTH 680 0
DWIDTH 17 0
BBX 14 21 1 0
BITMAP
0600
0B20
08C0
0180
0200
0300
0000
0000
1010
2008
600C
4004
4004
4104
C104
C104
4104
4104
4104
2288
1C70
ENDCHAR
STARTCHAR 1F68
ENCODING 8040
SWIDTH 720 0
DWIDTH 18 0
BBX 17 17 0 0
BITMAP
C0F800
230C00
240200
4C0300
880100
080100
180180
100080
100080
100080
180180
080100
080100
040200
060200
020400
1F0F80
ENDCHAR
STARTCHAR 1F69
ENCODING 8041
SWIDTH 720 0
DWIDTH 18 0
BBX 17 17 0 0
BITMAP
61F000
830C00
840600
880200
480100
100100
100100
100100
100100
100100
100100
180100
080300
0C0200
040400
020C00
1F1F80
ENDCHAR
STARTCHAR 1F6A
ENCODING 8042
SWIDTH 840 0
DWIDTH 21 0
BBX 20 17 0 0
BITMAP
983E00
486180
4880C0
490040
8B0060
020020
020020
020020
020020
020020
020020
030020
010060
010040
008080
004180
07E3F0
ENDCHAR
STARTCHAR 1F6B
ENCODING 8043
SWIDTH 840 0
DWIDTH 21 0
BBX 20 17 0 0
BITMAP
503E00
98C380
8980C0
890040
4B0060
020020
020020
020020
020020
020020
020020
020020
010040
010040
008080
00C100
07E3F0
ENDCHAR
STARTCHAR 1F6C
ENCODING 8044
SWIDTH 840 0
DWIDTH 21 0
BBX 20 17 0 0
BITMAP
883E00
48C180
4880C0
510040
930060
020020
020020
020020
020020
020020
020020
020020
010060
010040
008080
004100
07E3F0
ENDCHAR
STARTCHAR 1F6D
ENCODING 8045
SWIDTH 840 0
DWIDTH 21 0
BBX 20 17 0 0
BITMAP
483E00
88C380
9180C0
910040
530060
020020
020020
020020
020020
020020
020020
020020
010040
010040
008080
00C100
07E3F0
ENDCHAR
STARTCHAR 1F6E
ENCODING 8046
SWIDTH 800 0
DWIDTH 20 0
BBX 19 17 -1 0
BITMAP
643E00
98C380
218080
110040
130060
020020
020020
020020
020020
020020
020020
020020
030040
010040
008080
00C100
07E3E0
ENDCHAR
STARTCHAR 1F6F
ENCODING 8047
SWIDTH 800 0
DWIDTH 20 0
BBX 19 17 -1 0
BITMAP
643E00
98C380
118080
210040
230060
020020
020020
020020
020020
020020
020020
020020
030040
010040
008080
00C100
07E3E0
ENDCHAR
STARTCHAR 1F70
ENCODING 8048
SWIDTH 560 0
DWIDTH 14 0
BBX 12 18 1 1
BITMAP
0800
0400
0200
0000
0000
0E20
31A0
60A0
40A0
4040
C040
8040
C040
C040
40C0
40C0
2140
1E70
ENDCHAR
STARTCHAR 1F71
ENCODING 8049
SWIDTH 560 0
DWIDTH 14 0
BBX 12 18 1 1
BITMAP
0100
0200
0400
0000
0000
0E20
31A0
60A0
40A0
4040
C040
8040
C040
C040
40C0
40C0
2140
1E70
ENDCHAR
STARTCHAR 1F72
ENCODING 8050
SWIDTH 440 0
DWIDTH 11 0
BBX 9 18 1 1
BITMAP
1000
0800
0400
0000
0000
1E00
2180
4000
4000
4000
2000
1E00
6000
C000
8000
C000
6080
3F00
ENDCHAR
STARTCHAR 1F73
ENCODING 8051
SWIDTH 440 0
DWIDTH 11 0
BBX 9 18 1 1
BITMAP
0200
0400
0800
0000
0000
1E00
2180
4000
4000
4000
2000
1E00
6000
C000
8000
C000
6080
3F00
ENDCHAR
STARTCHAR 1F74
ENCODING 8052
SWIDTH 520 0
DWIDTH 13 0
BBX 9 22 2 -3
BITMAP
1000
0800
0400
0000
0000
8F00
9180
A080
C080
8080
8080
8080
8080
8080
8080
8080
8080
8080
0080
0080
0080
0080
ENDCHAR
STARTCHAR 1F75
ENCODING 8053
SWIDTH 520 0
DWIDTH 13 0
BBX 9 22 2 -3
BITMAP
0200
0400
0800
0000
0000
8F00
9180
A080
C080
8080
8080
8080
8080
8080
8080
8080
8080
8080
0080
0080
0080
0080
ENDCHAR
STARTCHAR 1F76
ENCODING 8054
SWIDTH 240 0
DWIDTH 6 0
BBX 5 18 0 1
BITMAP
C0
20
10
00
00
20
20
20
20
20
20
20
20
20
20
20
20
18
ENDCHAR
STARTCHAR 1F77
ENCODING 8055
SWIDTH 240 0
DWIDTH 6 0
BBX 3 18 2 1
BITMAP
20
40
80
00
00
80
80
80
80
80
80
80
80
80
80
80
80
60
ENDCHAR
STARTCHAR 1F78
ENCODING 8056
SWIDTH 520 0
DWIDTH 13 0
BBX 11 19 1 0
BITMAP
1000
1800
0C00
0600
0000
0000
1F00
3180
6040
4040
4060
C020
8020
C020
4060
4040
6040
3080
1F00
ENDCHAR
STARTCHAR 1F79
ENCODING 8057
SWIDTH 520 0
DWIDTH 13 0
BBX 11 19 1 0
BITMAP
0100
0300
0600
0C00
0000
0000
1F00
3180
6040
4040
4060
C020
8020
C020
4060
4040
6040
3080
1F00
ENDCHAR
STARTCHAR 1F7A
ENCODING 8058
SWIDTH 480 0
DWIDTH 12 0
BBX 9 18 2 1
BITMAP
6000
1000
0800
0000
0000
8100
8100
8100
8180
8080
8080
8080
8080
8080
8100
8100
4200
3C00
ENDCHAR
STARTCHAR 1F7B
ENCODING 8059
SWIDTH 480 0
DWIDTH 12 0
BBX 9 18 2 1
BITMAP
0400
0800
1000
0000
0000
8100
8100
8100
8180
8080
8080
8080
8080
8080
8100
8100
4200
3C00
ENDCHAR
STARTCHAR 1F7C
ENCODING 8060
SWIDTH 680 0
DWIDTH 17 0
BBX 14 19 1 0
BITMAP
0400
0600
0300
0180
0000
0000
1010
2008
600C
4004
4004
4104
C104
C104
4104
4104
4104
2288
1C70
ENDCHAR
STARTCHAR 1F7D
ENCODING 8061
SWIDTH 680 0
DWIDTH 17 0
BBX 14 19 1 0
BITMAP
0040
00C0
0180
0300
0000
0000
1010
2008
600C
4004
4004
4104
C104
C104
4104
4104
4104
2288
1C70
ENDCHAR
STARTCHAR 1F80
ENCODING 8064
SWIDTH 560 0
DWIDTH 14 0
BBX 12 25 1 -5
BITMAP
0400
0300
0100
0200
0400
0000
0000
0E20
31A0
60A0
40A0
4040
C040
8040
C040
C040
40C0
40C0
2140
1E70
0000
0000
0400
0400
0300
ENDCHAR
STARTCHAR 1F81
ENCODING 8065
SWIDTH 560 0
DWIDTH 14 0
BBX 12 24 1 -5
BITMAP
0600
0800
0800
0600
0000
0000
0E20
31A0
60A0
40A0
4040
C040
8040
C040
C040
40C0
40C0
2140
1E70
0000
0000
0400
0400
0300
ENDCHAR
STARTCHAR 1F82
ENCODING 8066
SWIDTH 560 0
DWIDTH 14 0
BBX 12 24 1 -5
BITMAP
1A00
0900
0900
1100
0000
0000
0E20
31A0
60A0
40A0
4040
C040
8040
C040
C040
40C0
40C0
2140
1E70
0000
0000
0400
0400
0300
ENDCHAR
STARTCHAR 1F83
ENCODING 8067
SWIDTH 560 0
DWIDTH 14 0
BBX 12 24 1 -5
BITMAP
1A00
2200
2100
1900
0000
0000
0E20
31A0
60A0
40A0
4040
C040
8040
C040
C040
40C0
40C0
2140
1E70
0000
0000
0400
0400
0300
ENDCHAR
STARTCHAR 1F84
ENCODING 8068
SWIDTH 560 0
DWIDTH 14 0
BBX 12 24 1 -5
BITMAP
1900
0900
0900
1200
0000
0000
0E20
31A0
60A0
40A0
4040
C040
8040
C040
C040
40C0
40C0
2140
1E70
0000
0000
0400
0400
0300
ENDCHAR
STARTCHAR 1F85
ENCODING 8069
SWIDTH 560 0
DWIDTH 14 0
BBX 12 24 1 -5
BITMAP
1900
1100
1200
0A00
0000
0000
0E20
31A0
60A0
40A0
4040
C040
8040
C040
C040
40C0
40C0
2140
1E70
0000
0000
0400
0400
0300
ENDCHAR
STARTCHAR 1F86
ENCODING 8070
SWIDTH 560 0
DWIDTH 14 0
BBX 12 26 1 -5
BITMAP
1800
1680
0380
0400
0200
0200
0400
0000
0E20
31A0
60A0
40A0
4040
C040
8040
C040
C040
40C0
40C0
2140
1E70
0000
0000
0400
0400
0300
ENDCHAR
STARTCHAR 1F87
ENCODING 8071
SWIDTH 560 0
DWIDTH 14 0
BBX 12 26 1 -5
BITMAP
1800
1680
0380
0200
0400
0400
0000
0000
0E20
31A0
60A0
40A0
4040
C040
8040
C040
C040
40C0
40C0
2140
1E70
0000
0000
0400
0400
0300
ENDCHAR
STARTCHAR 1F88
ENCODING 8072
SWIDTH 760 0
DWIDTH 19 0
BBX 18 17 0 0
BITMAP
C30000
230000
250000
648000
048000
088000
084000
084080
104080
102080
1FE080
202080
201080
201080
401080
401880
4008C0
ENDCHAR
STARTCHAR 1F89
ENCODING 8073
SWIDTH 760 0
DWIDTH 19 0
BBX 18 17 0 0
BITMAP
630000
830000
850000
848000
048000
088000
084000
084080
104080
106080
1FE080
202080
203080
201080
401080
401880
4008C0
ENDCHAR
STARTCHAR 1F8A
ENCODING 8074
SWIDTH 880 0
DWIDTH 22 0
BBX 21 17 0 0
BITMAP
984000
48A000
48A000
48A000
889000
011000
011000
010810
020810
020810
07FC10
040410
040410
0C0210
080210
080310
180118
ENDCHAR
STARTCHAR 1F8B
ENCODING 8075
SWIDTH 880 0
DWIDTH 22 0
BBX 21 17 0 0
BITMAP
504000
98A000
88A000
88A000
491000
011000
011000
020830
020830
020830
07FC30
040420
040420
080220
080220
080230
100118
ENDCHAR
STARTCHAR 1F8C
ENCODING 8076
SWIDTH 880 0
DWIDTH 22 0
BBX 21 17 0 0
BITMAP
884000
48A000
48A000
50A000
809000
011000
011000
030830
020830
020830
07FC30
040430
040430
0C0230
080230
080210
180118
ENDCHAR
STARTCHAR 1F8D
ENCODING 8077
SWIDTH 880 0
DWIDTH 22 0
BBX 21 17 0 0
BITMAP
484000
88A000
90A000
90A000
411000
011000
011000
020820
020820
020820
07FC20
040420
040420
080220
080220
080230
100318
ENDCHAR
STARTCHAR 1F8E
ENCODING 8078
SWIDTH 800 0
DWIDTH 20 0
BBX 19 17 0 0
BITMAP
D98000
218000
628000
124000
624000
044000
046000
042040
082040
083040
0FF040
101040
101840
100840
200840
200C40
200460
ENDCHAR
STARTCHAR 1F8F
ENCODING 8079
SWIDTH 800 0
DWIDTH 20 0
BBX 19 17 0 0
BITMAP
D98000
218000
628000
424000
624000
044000
046000
042040
082040
083040
0FF040
101040
101840
100840
200840
200C40
200460
ENDCHAR
STARTCHAR 1F90
ENCODING 8080
SWIDTH 520 0
DWIDTH 13 0
BBX 9 25 2 -5
BITMAP
0800
0600
0200
0400
0800
0000
0000
8F00
9180
A080
C080
8080
8080
8080
8080
8080
8080
8080
8080
8080
0080
0080
8080
8080
6080
ENDCHAR
STARTCHAR 1F91
ENCODING 8081
SWIDTH 520 0
DWIDTH 13 0
BBX 9 24 2 -5
BITMAP
0C00
1000
1000
0C00
0000
0000
8F00
9180
A080
C080
8080
8080
8080
8080
8080
8080
8080
8080
8080
0080
0080
8080
8080
6080
ENDCHAR
STARTCHAR 1F92
ENCODING 8082
SWIDTH 520 0
DWIDTH 13 0
BBX 9 24 2 -5
BITMAP
3600
1200
1200
2200
0000
0000
8F00
9180
A080
C080
8080
8080
8080
8080
8080
8080
8080
8080
8080
0080
0080
8080
8080
6080
ENDCHAR
STARTCHAR 1F93
ENCODING 8083
SWIDTH 520 0
DWIDTH 13 0
BBX 9 24 2 -5
BITMAP
3400
2600
2200
3200
0000
0000
8F00
9180
A080
C080
8080
8080
8080
8080
8080
8080
8080
8080
8080
0080
0080
8080
8080
6080
ENDCHAR
STARTCHAR 1F94
ENCODING 8084
SWIDTH 520 0
DWIDTH 13 0
BBX 9 24 2 -5
BITMAP
3200
1200
1200
2400
0000
0000
8F00
9180
A080
C080
8080
8080
8080
8080
8080
8080
8080
8080
8080
0080
0080
8080
8080
6080
ENDCHAR
STARTCHAR 1F95
ENCODING 8085
SWIDTH 520 0
DWIDTH 13 0
BBX 9 24 2 -5
BITMAP
1A00
2200
2200
1400
0000
0000
8F00
9180
A080
C080
8080
8080
8080
8080
8080
8080
8080
8080
8080
0080
0080
8080
8080
6080
ENDCHAR
STARTCHAR 1F96
ENCODING 8086
SWIDTH 520 0
DWIDTH 13 0
BBX 9 26 2 -5
BITMAP
1000
2D00
2700
0800
0400
0400
0800
0000
8F00
9180
A080
C080
8080
8080
8080
8080
8080
8080
8080
8080
8080
0080
0080
8080
8080
6080
ENDCHAR
STARTCHAR 1F97
ENCODING 8087
SWIDTH 520 0
DWIDTH 13 0
BBX 9 26 2 -5
BITMAP
1000
2D00
2700
0400
0800
0800
0000
0000
8F00
9180
A080
C080
8080
8080
8080
8080
8080
8080
8080
8080
8080
0080
0080
8080
8080
6080
ENDCHAR
STARTCHAR 1F98
ENCODING 8088
SWIDTH 960 0
DWIDTH 24 0
BBX 23 17 0 0
BITMAP
C40100
240100
240100
440100
840100
040100
040104
07FF04
040104
040104
040104
040104
040104
040104
040104
040104
040106
ENDCHAR
STARTCHAR 1F99
ENCODING 8089
SWIDTH 960 0
DWIDTH 24 0
BBX 23 17 0 0
BITMAP
640100
840100
840100
C40100
040100
040100
040104
07FF04
040104
040104
040104
040104
040104
040104
040104
040104
040106
ENDCHAR
STARTCHAR 1F9A
ENCODING 8090
SWIDTH 1080 0
DWIDTH 27 0
BBX 26 17 0 0
BITMAP
99004000
49004000
49004000
49004000
81004000
01004000
01004100
01FFC100
01004100
01004100
01004100
01004100
01004100
01004100
01004100
01004100
010041C0
ENDCHAR
STARTCHAR 1F9B
ENCODING 8091
SWIDTH 1040 0
DWIDTH 26 0
BBX 25 17 0 0
BITMAP
51004000
99004000
89004000
89004000
01004000
01004000
01004100
01FFC100
01004100
01004100
01004100
01004100
01004100
01004100
01004100
01004100
01004180
ENDCHAR
STARTCHAR 1F9C
ENCODING 8092
SWIDTH 1080 0
DWIDTH 27 0
BBX 25 17 0 0
BITMAP
89004000
49004000
49004000
51004000
81004000
01004000
01004100
01FFC100
01004100
01004100
01004100
01004100
01004100
01004100
01004100
01004100
01004180
ENDCHAR
STARTCHAR 1F9D
ENCODING 8093
SWIDTH 1040 0
DWIDTH 26 0
BBX 25 17 0 0
BITMAP
49004000
89004000
91004000
91004000
01004000
01004000
01004100
01FFC100
01004100
01004100
01004100
01004100
01004100
01004100
01004100
01004100
01004180
ENDCHAR
STARTCHAR 1F9E
ENCODING 8094
SWIDTH 1040 0
DWIDTH 26 0
BBX 25 17 0 0
BITMAP
D9004000
21004000
61004000
11004000
61004000
01004000
01004300
01FFC300
01004300
01004300
01004300
01004300
01004300
01004300
01004300
01004300
01004180
ENDCHAR
STARTCHAR 1F9F
ENCODING 8095
SWIDTH 1040 0
DWIDTH 26 0
BBX 25 17 0 0
BITMAP
D9004000
21004000
61004000
41004000
61004000
01004000
01004300
01FFC300
01004300
01004300
01004300
01004300
01004300
01004300
01004300
01004300
01004180
ENDCHAR
STARTCHAR 1FA0
ENCODING 8096
SWIDTH 680 0
DWIDTH 17 0
BBX 14 25 1 -5
BITMAP
0300
0080
0080
0180
0000
0000
0000
1010
2008
600C
4004
4004
4104
C104
C104
4104
4104
4104
2288
1C70
0000
0000
0100
0100
0180
ENDCHAR
STARTCHAR 1FA1
ENCODING 8097
SWIDTH 680 0
DWIDTH 17 0
BBX 14 24 1 -5
BITMAP
0180
0200
0200
0100
0000
0000
1010
2008
600C
4004
4004
4104
C104
C104
4104
4104
4104
2288
1C70
0000
0000
0100
0100
0180
ENDCHAR
STARTCHAR 1FA2
ENCODING 8098
SWIDTH 680 0
DWIDTH 17 0
BBX 14 24 1 -5
BITMAP
0C80
0280
0280
0440
0000
0000
1010
2008
600C
4004
4004
4104
C104
C104
4104
4104
4104
2288
1C70
0000
0000
0100
0100
0180
ENDCHAR
STARTCHAR 1FA3
ENCODING 8099
SWIDTH 680 0
DWIDTH 17 0
BBX 14 24 1 -5
BITMAP
0780
0880
0880
0480
0000
0000
1010
2008
600C
4004
4004
4104
C104
C104
4104
4104
4104
2288
1C70
0000
0000
0100
0100
0180
ENDCHAR
STARTCHAR 1FA4
ENCODING 8100
SWIDTH 680 0
DWIDTH 17 0
BBX 14 24 1 -5
BITMAP
0C40
02C0
0280
0480
0000
0000
1010
2008
600C
4004
4004
4104
C104
C104
4104
4104
4104
2288
1C70
0000
0000
0100
0100
0180
ENDCHAR
STARTCHAR 1FA5
ENCODING 8101
SWIDTH 680 0
DWIDTH 17 0
BBX 14 24 1 -5
BITMAP
06C0
0880
0880
0480
0000
0000
1010
2008
600C
4004
4004
4104
C104
C104
4104
4104
4104
2288
1C70
0000
0000
0100
0100
0180
ENDCHAR
STARTCHAR 1FA6
ENCODING 8102
SWIDTH 680 0
DWIDTH 17 0
BBX 14 26 1 -5
BITMAP
0600
0B20
08C0
0300
0080
0100
0000
0000
1010
2008
600C
4004
4004
4104
C104
C104
4104
4104
4104
2288
1C70
0000
0000
0100
0100
0180
ENDCHAR
STARTCHAR 1FA7
ENCODING 8103
SWIDTH 680 0
DWIDTH 17 0
BBX 14 26 1 -5
BITMAP
0600
0B20
08C0
0180
0200
0300
0000
0000
1010
2008
600C
4004
4004
4104
C104
C104
4104
4104
4104
2288
1C70
0000
0000
0100
0100
0180
ENDCHAR
STARTCHAR 1FA8
ENCODING 8104
SWIDTH 960 0
DWIDTH 24 0
BBX 23 17 0 0
BITMAP
C0F800
230C00
240200
4C0300
880100
080100
180180
10008C
10008C
10008C
18018C
080108
080108
040208
060208
02040C
1F0F86
ENDCHAR
STARTCHAR 1FA9
ENCODING 8105
SWIDTH 960 0
DWIDTH 24 0
BBX 23 17 0 0
BITMAP
61F000
830C00
840600
880200
480100
100100
100100
100108
100108
100108
100108
180108
080308
0C0208
040408
020C08
1F1F86
ENDCHAR
STARTCHAR 1FAA
ENCODING 8106
SWIDTH 1080 0
DWIDTH 27 0
BBX 26 17 0 0
BITMAP
983E0000
48618000
4880C000
49004000
8B006000
02002000
02002000
02002100
02002100
02002100
02002100
03002100
01006100
01004100
00808100
00418100
07E3F1C0
ENDCHAR
STARTCHAR 1FAB
ENCODING 8107
SWIDTH 1080 0
DWIDTH 27 0
BBX 26 17 0 0
BITMAP
503E0000
98C38000
8980C000
89004000
4B006000
02002000
02002000
02002100
02002100
02002100
02002100
02002100
01004100
01004100
00808100
00C10100
07E3F1C0
ENDCHAR
STARTCHAR 1FAC
ENCODING 8108
SWIDTH 1080 0
DWIDTH 27 0
BBX 26 17 0 0
BITMAP
883E0000
48C18000
4880C000
51004000
93006000
02002000
02002000
02002100
02002100
02002100
02002100
02002100
01006100
01004100
00808100
00410100
07E3F1C0
ENDCHAR
STARTCHAR 1FAD
ENCODING 8109
SWIDTH 1080 0
DWIDTH 27 0
BBX 25 17 0 0
BITMAP
483E0000
88C38000
9180C000
91004000
53006000
02002000
02002000
02002100
02002100
02002100
02002100
02002100
01004100
01004100
00808100
00C10100
07E3F180
ENDCHAR
STARTCHAR 1FAE
ENCODING 8110
SWIDTH 1040 0
DWIDTH 26 0
BBX 25 17 0 0
BITMAP
F07C0000
01870000
63018000
12008000
6400C000
04004000
04004000
04004200
04004200
04004200
04004200
04004200
06008200
02008200
01010200
01820200
0FC7C380
ENDCHAR
STARTCHAR 1FAF
ENCODING 8111
SWIDTH 1040 0
DWIDTH 26 0
BBX 25 17 0 0
BITMAP
F07C0000
01870000
63018000
42008000
6400C000
04004000
04004000
04004200
04004200
04004200
04004200
04004200
06008200
02008200
01010200
01820200
0FC7C380
ENDCHAR
STARTCHAR 1FB0
ENCODING 8112
SWIDTH 560 0
DWIDTH 14 0
BBX 12 18 1 0
BITMAP
2040
1080
0F00
0000
0000
0E20
31A0
60A0
40A0
4040
C040
8040
C040
C040
40C0
40C0
2140
1E70
ENDCHAR
STARTCHAR 1FB1
ENCODING 8113
SWIDTH 560 0
DWIDTH 14 0
BBX 12 16 1 0
BITMAP
1F80
0000
0000
0E20
31A0
60A0
40A0
4040
C040
8040
C040
C040
40C0
40C0
2140
1E70
ENDCHAR
STARTCHAR 1FB2
ENCODING 8114
SWIDTH 560 0
DWIDTH 14 0
BBX 12 23 1 -4
BITMAP
0800
0400
0200
0000
0000
0E20
31A0
60A0
40A0
4040
C040
8040
C040
C040
40C0
40C0
2140
1E70
0000
0000
0400
0400
0300
ENDCHAR
STARTCHAR 1FB3
ENCODING 8115
SWIDTH 560 0
DWIDTH 14 0
BBX 12 18 1 -5
BITMAP
0E20
31A0
60A0
40A0
4040
C040
8040
C040
C040
40C0
40C0
2140
1E70
0000
0000
0400
0400
0300
ENDCHAR
STARTCHAR 1FB4
ENCODING 8116
SWIDTH 560 0
DWIDTH 14 0
BBX 12 23 1 -4
BITMAP
0100
0200
0400
0000
0000
0E20
31A0
60A0
40A0
4040
C040
8040
C040
C040
40C0
40C0
2140
1E70
0000
0000
0400
0400
0300
ENDCHAR
STARTCHAR 1FB6
ENCODING 8118
SWIDTH 560 0
DWIDTH 14 0
BBX 12 19 1 0
BITMAP
1840
2440
2240
2180
0000
0000
0E20
31A0
60A0
40A0
4040
C040
8040
C040
C040
40C0
40C0
2140
1E70
ENDCHAR
STARTCHAR 1FB7
ENCODING 8119
SWIDTH 560 0
DWIDTH 14 0
BBX 12 24 1 -5
BITMAP
1840
2440
2240
2180
0000
0000
0E20
31A0
60A0
40A0
4040
C040
8040
C040
C040
40C0
40C0
2140
1E70
0000
0000
0400
0400
0300
ENDCHAR
STARTCHAR 1FB8
ENCODING 8120
SWIDTH 520 0
DWIDTH 13 0
BBX 13 21 0 0
BITMAP
1040
0880
0700
0000
0200
0500
0500
0500
0880
0880
0880
1040
1040
1040
3FE0
2020
2020
4010
4010
4010
C008
ENDCHAR
STARTCHAR 1FB9
ENCODING 8121
SWIDTH 520 0
DWIDTH 13 0
BBX 13 20 0 0
BITMAP
1FC0
0000
0000
0200
0500
0500
0500
0880
0880
0880
1040
1040
1040
3FE0
2020
2020
4010
4010
4010
C008
ENDCHAR
STARTCHAR 1FBA
ENCODING 8122
SWIDTH 520 0
DWIDTH 13 0
BBX 13 17 0 0
BITMAP
C200
4300
4500
4500
4480
0880
08C0
0840
1040
1060
1FE0
2020
2030
2010
4010
4018
4008
ENDCHAR
STARTCHAR 1FBB
ENCODING 8123
SWIDTH 520 0
DWIDTH 13 0
BBX 13 17 0 0
BITMAP
4200
4300
4500
8500
0480
0880
08C0
0840
1040
1060
1FE0
2020
2030
2010
4010
4018
4008
ENDCHAR
STARTCHAR 1FBC
ENCODING 8124
SWIDTH 760 0
DWIDTH 19 0
BBX 18 17 0 0
BITMAP
020000
050000
050000
050000
088000
088000
088000
104180
104180
104180
3FE180
202180
202180
401180
401180
401180
C008C0
ENDCHAR
STARTCHAR 1FBD
ENCODING 8125
SWIDTH 520 0
DWIDTH 13 0
BBX 3 4 5 15
BITMAP
C0
20
20
60
ENDCHAR
STARTCHAR 1FBE
ENCODING 8126
SWIDTH 240 0
DWIDTH 6 0
BBX 3 10 2 0
BITMAP
80
80
80
80
80
80
80
80
80
60
ENDCHAR
STARTCHAR 1FBF
ENCODING 8127
SWIDTH 520 0
DWIDTH 13 0
BBX 3 4 5 15
BITMAP
C0
20
20
60
ENDCHAR
STARTCHAR 1FC0
ENCODING 8128
SWIDTH 520 0
DWIDTH 13 0
BBX 8 4 3 14
BITMAP
61
91
8A
06
ENDCHAR
STARTCHAR 1FC1
ENCODING 8129
SWIDTH 520 0
DWIDTH 13 0
BBX 7 5 3 15
BITMAP
70
9A
0C
46
46
ENDCHAR
STARTCHAR 1FC2
ENCODING 8130
SWIDTH 520 0
DWIDTH 13 0
BBX 9 23 2 -4
BITMAP
1000
0800
0400
0000
0000
8F00
9180
A080
C080
8080
8080
8080
8080
8080
8080
8080
8080
8080
0080
0080
8080
8080
6080
ENDCHAR
STARTCHAR 1FC3
ENCODING 8131
SWIDTH 520 0
DWIDTH 13 0
BBX 9 18 2 -5
BITMAP
8F00
9180
A080
C080
8080
8080
8080
8080
8080
8080
8080
8080
8080
0080
0080
8080
8080
6080
ENDCHAR
STARTCHAR 1FC4
ENCODING 8132
SWIDTH 520 0
DWIDTH 13 0
BBX 9 23 2 -4
BITMAP
0200
0400
0800
0000
0000
8F00
9180
A080
C080
8080
8080
8080
8080
8080
8080
8080
8080
8080
0080
0080
8080
8080
6080
ENDCHAR
STARTCHAR 1FC6
ENCODING 8134
SWIDTH 520 0
DWIDTH 13 0
BBX 9 23 2 -4
BITMAP
3080
4880
4480
4300
0000
0000
8F00
9180
A080
C080
8080
8080
8080
8080
8080
8080
8080
8080
8080
0080
0080
0080
0080
ENDCHAR
STARTCHAR 1FC7
ENCODING 8135
SWIDTH 520 0
DWIDTH 13 0
BBX 9 24 2 -5
BITMAP
3080
4880
4480
4300
0000
0000
8F00
9180
A080
C080
8080
8080
8080
8080
8080
8080
8080
8080
8080
0080
0080
8080
8080
6080
ENDCHAR
STARTCHAR 1FC8
ENCODING 8136
SWIDTH 560 0
DWIDTH 14 0
BBX 12 17 0 0
BITMAP
9FF0
9000
9000
9000
1000
1000
1000
1FE0
1000
1000
1000
1000
1000
1000
1000
1000
1FF0
ENDCHAR
STARTCHAR 1FC9
ENCODING 8137
SWIDTH 560 0
DWIDTH 14 0
BBX 13 17 -1 0
BITMAP
4FF8
4800
4800
8800
0800
0800
0800
0FF0
0800
0800
0800
0800
0800
0800
0800
0800
0FF8
ENDCHAR
STARTCHAR 1FCA
ENCODING 8138
SWIDTH 680 0
DWIDTH 17 0
BBX 14 17 0 0
BITMAP
9004
9004
9004
9004
1004
1004
1004
1FFC
1004
1004
1004
1004
1004
1004
1004
1004
1004
ENDCHAR
STARTCHAR 1FCB
ENCODING 8139
SWIDTH 680 0
DWIDTH 17 0
BBX 15 17 -1 0
BITMAP
4802
4802
4802
8802
0802
0802
0802
0FFE
0802
0802
0802
0802
0802
0802
0802
0802
0802
ENDCHAR
STARTCHAR 1FCC
ENCODING 8140
SWIDTH 880 0
DWIDTH 22 0
BBX 19 17 2 0
BITMAP
C03000
C03000
C03000
C03000
C03000
C03000
C03080
FFF080
C03080
C03080
C03080
C03080
C03080
C03080
C03080
C03080
C03060
ENDCHAR
STARTCHAR 1FCD
ENCODING 8141
SWIDTH 520 0
DWIDTH 13 0
BBX 6 5 3 14
BITMAP
C8
28
24
64
04
ENDCHAR
STARTCHAR 1FCE
ENCODING 8142
SWIDTH 520 0
DWIDTH 13 0
BBX 6 5 3 14
BITMAP
C4
24
28
68
08
ENDCHAR
STARTCHAR 1FCF
ENCODING 8143
SWIDTH 520 0
DWIDTH 13 0
BBX 7 6 3 14
BITMAP
60
92
8C
38
08
10
ENDCHAR
STARTCHAR 1FD0
ENCODING 8144
SWIDTH 240 0
DWIDTH 6 0
BBX 8 18 -1 0
BITMAP
81
42
3C
00
00
10
10
10
10
10
10
10
10
10
10
10
10
0C
ENDCHAR
STARTCHAR 1FD1
ENCODING 8145
SWIDTH 240 0
DWIDTH 6 0
BBX 6 16 0 0
BITMAP
FC
00
00
20
20
20
20
20
20
20
20
20
20
20
20
18
ENDCHAR
STARTCHAR 1FD2
ENCODING 8146
SWIDTH 240 0
DWIDTH 6 0
BBX 6 19 0 0
BITMAP
20
20
A4
94
00
00
20
20
20
20
20
20
20
20
20
20
20
20
18
ENDCHAR
STARTCHAR 1FD3
ENCODING 8147
SWIDTH 240 0
DWIDTH 6 0
BBX 6 19 0 0
BITMAP
10
10
A4
A4
00
00
20
20
20
20
20
20
20
20
20
20
20
20
18
ENDCHAR
STARTCHAR 1FD6
ENCODING 8150
SWIDTH 240 0
DWIDTH 6 0
BBX 8 19 -1 0
BITMAP
61
91
89
86
00
00
10
10
10
10
10
10
10
10
10
10
10
10
0C
ENDCHAR
STARTCHAR 1FD7
ENCODING 8151
SWIDTH 240 0
DWIDTH 6 0
BBX 8 20 -1 0
BITMAP
71
9A
06
46
46
00
00
10
10
10
10
10
10
10
10
10
10
10
10
0C
ENDCHAR
STARTCHAR 1FD8
ENCODING 8152
SWIDTH 240 0
DWIDTH 6 0
BBX 6 21 0 0
BITMAP
84
84
78
00
30
30
30
30
30
30
30
30
30
30
30
30
30
30
30
30
30
ENDCHAR
STARTCHAR 1FD9
ENCODING 8153
SWIDTH 240 0
DWIDTH 6 0
BBX 6 20 0 0
BITMAP
FC
00
00
30
30
30
30
30
30
30
30
30
30
30
30
30
30
30
30
30
ENDCHAR
STARTCHAR 1FDA
ENCODING 8154
SWIDTH 280 0
DWIDTH 7 0
BBX 4 17 0 0
BITMAP
90
90
90
90
90
10
10
10
10
10
10
10
10
10
10
10
10
ENDCHAR
STARTCHAR 1FDB
ENCODING 8155
SWIDTH 280 0
DWIDTH 7 0
BBX 4 17 0 0
BITMAP
90
90
90
90
10
10
10
10
10
10
10
10
10
10
10
10
10
ENDCHAR
STARTCHAR 1FDD
ENCODING 8157
SWIDTH 520 0
DWIDTH 13 0
BBX 6 5 3 14
BITMAP
68
88
88
44
04
ENDCHAR
STARTCHAR 1FDE
ENCODING 8158
SWIDTH 520 0
DWIDTH 13 0
BBX 6 5 3 14
BITMAP
24
C4
88
48
08
ENDCHAR
STARTCHAR 1FDF
ENCODING 8159
SWIDTH 520 0
DWIDTH 13 0
BBX 7 6 3 14
BITMAP
62
9E
00
18
20
10
ENDCHAR
STARTCHAR 1FE0
ENCODING 8160
SWIDTH 480 0
DWIDTH 12 0
BBX 9 18 2 0
BITMAP
8200
4200
3C00
0000
0000
8100
8100
8100
8180
8080
8080
8080
8080
8080
8100
8100
4200
3C00
ENDCHAR
STARTCHAR 1FE1
ENCODING 8161
SWIDTH 480 0
DWIDTH 12 0
BBX 9 16 2 0
BITMAP
7E00
0000
0000
8100
8100
8100
8180
8080
8080
8080
8080
8080
8100
8100
4200
3C00
ENDCHAR
STARTCHAR 1FE2
ENCODING 8162
SWIDTH 480 0
DWIDTH 12 0
BBX 9 19 2 0
BITMAP
1000
1000
5200
5200
0000
0000
8100
8100
8100
8180
8080
8080
8080
8080
8080
8100
8100
4200
3C00
ENDCHAR
STARTCHAR 1FE3
ENCODING 8163
SWIDTH 480 0
DWIDTH 12 0
BBX 9 19 2 0
BITMAP
0800
0800
5200
5200
0000
0000
8100
8100
8100
8180
8080
8080
8080
8080
8080
8100
8100
4200
3C00
ENDCHAR
STARTCHAR 1FE4
ENCODING 8164
SWIDTH 520 0
DWIDTH 13 0
BBX 10 24 2 -4
BITMAP
0C00
0200
0200
0400
0000
0000
0000
1F00
2180
4080
4040
8040
8040
8040
8040
8040
80C0
C080
A100
9E00
8000
8000
8000
8000
ENDCHAR
STARTCHAR 1FE5
ENCODING 8165
SWIDTH 520 0
DWIDTH 13 0
BBX 10 23 2 -4
BITMAP
0E00
0800
0800
0400
0000
0000
1F00
2180
4080
4040
8040
8040
8040
8040
8040
80C0
C080
A100
9E00
8000
8000
8000
8000
ENDCHAR
STARTCHAR 1FE6
ENCODING 8166
SWIDTH 480 0
DWIDTH 12 0
BBX 9 19 2 0
BITMAP
6100
9100
8900
8600
0000
0000
8100
8100
8100
8180
8080
8080
8080
8080
8080
8100
8100
4200
3C00
ENDCHAR
STARTCHAR 1FE7
ENCODING 8167
SWIDTH 480 0
DWIDTH 12 0
BBX 9 20 2 0
BITMAP
7100
9A00
0600
4600
4600
0000
0000
8100
8100
8100
8180
8080
8080
8080
8080
8080
8100
8100
4200
3C00
ENDCHAR
STARTCHAR 1FE8
ENCODING 8168
SWIDTH 440 0
DWIDTH 11 0
BBX 11 21 0 0
BITMAP
2080
1100
0E00
0000
C020
4040
4040
2080
2080
1100
1100
0A00
0A00
0400
0400
0400
0400
0400
0400
0400
0400
ENDCHAR
STARTCHAR 1FE9
ENCODING 8169
SWIDTH 440 0
DWIDTH 11 0
BBX 11 20 0 0
BITMAP
3F80
0000
0000
C020
4040
4040
2080
2080
1100
1100
0A00
0A00
0400
0400
0400
0400
0400
0400
0400
0400
ENDCHAR
STARTCHAR 1FEA
ENCODING 8170
SWIDTH 520 0
DWIDTH 13 0
BBX 13 17 0 0
BITMAP
9008
9008
8810
8810
8420
0420
0240
0240
0380
0180
0100
0100
0100
0100
0100
0100
0100
ENDCHAR
STARTCHAR 1FEB
ENCODING 8171
SWIDTH 520 0
DWIDTH 13 0
BBX 13 17 0 0
BITMAP
9008
9008
8810
8810
0420
0420
0240
0240
0380
0180
0100
0100
0100
0100
0100
0100
0100
ENDCHAR
STARTCHAR 1FEC
ENCODING 8172
SWIDTH 640 0
DWIDTH 16 0
BBX 15 17 0 0
BITMAP
67F0
840C
8404
8402
4402
0402
0406
0404
040C
07F0
0400
0400
0400
0400
0400
0400
0400
ENDCHAR
STARTCHAR 1FED
ENCODING 8173
SWIDTH 520 0
DWIDTH 13 0
BBX 7 4 3 14
BITMAP
30
10
D6
52
ENDCHAR
STARTCHAR 1FEE
ENCODING 8174
SWIDTH 520 0
DWIDTH 13 0
BBX 7 5 3 14
BITMAP
08
08
D6
52
10
ENDCHAR
STARTCHAR 1FEF
ENCODING 8175
SWIDTH 520 0
DWIDTH 13 0
BBX 2 5 5 14
BITMAP
80
80
40
40
40
ENDCHAR
STARTCHAR 1FF2
ENCODING 8178
SWIDTH 680 0
DWIDTH 17 0
BBX 14 24 1 -5
BITMAP
0400
0600
0300
0180
0000
0000
1010
2008
600C
4004
4004
4104
C104
C104
4104
4104
4104
2288
1C70
0000
0000
0100
0100
0180
ENDCHAR
STARTCHAR 1FF3
ENCODING 8179
SWIDTH 680 0
DWIDTH 17 0
BBX 14 18 1 -5
BITMAP
1010
2008
600C
4004
4004
4104
C104
C104
4104
4104
4104
2288
1C70
0000
0000
0100
0100
0180
ENDCHAR
STARTCHAR 1FF4
ENCODING 8180
SWIDTH 680 0
DWIDTH 17 0
BBX 14 24 1 -5
BITMAP
0040
00C0
0180
0300
0000
0000
1010
2008
600C
4004
4004
4104
C104
C104
4104
4104
4104
2288
1C70
0000
0000
0100
0100
0180
ENDCHAR
STARTCHAR 1FF6
ENCODING 8182
SWIDTH 680 0
DWIDTH 17 0
BBX 14 19 1 0
BITMAP
0610
0B20
1120
10C0
0000
0000
1010
2008
600C
4004
4004
4104
C104
C104
4104
4104
4104
2288
1C70
ENDCHAR
STARTCHAR 1FF7
ENCODING 8183
SWIDTH 680 0
DWIDTH 17 0
BBX 14 24 1 -5
BITMAP
0610
0B20
1120
10C0
0000
0000
1010
2008
600C
4004
4004
4104
C104
C104
4104
4104
4104
2288
1C70
0000
0000
0100
0100
0180
ENDCHAR
STARTCHAR 1FF8
ENCODING 8184
SWIDTH 680 0
DWIDTH 17 0
BBX 15 17 0 0
BITMAP
83E0
8618
880C
9004
9002
2002
2002
2002
2002
2002
2002
3002
1002
1004
080C
0618
03E0
ENDCHAR
STARTCHAR 1FF9
ENCODING 8185
SWIDTH 680 0
DWIDTH 17 0
BBX 16 17 -1 0
BITMAP
41F0
430C
4406
4802
8801
1001
1001
1001
1001
1001
1001
1001
0801
0802
0406
030C
01F0
ENDCHAR
STARTCHAR 1FFA
ENCODING 8186
SWIDTH 680 0
DWIDTH 17 0
BBX 16 17 0 0
BITMAP
83E0
8618
880C
9006
9002
3002
2002
2003
2003
2002
2002
3002
1002
1804
080C
0418
3E1F
ENDCHAR
STARTCHAR 1FFB
ENCODING 8187
SWIDTH 680 0
DWIDTH 17 0
BBX 17 17 -1 0
BITMAP
41F000
430C00
440600
480200
880100
180100
100100
100180
100180
100100
100100
180100
080100
0C0200
040400
020C00
1F1F80
ENDCHAR
STARTCHAR 1FFC
ENCODING 8188
SWIDTH 880 0
DWIDTH 22 0
BBX 20 17 1 0
BITMAP
07C000
186000
301000
200800
400800
400C00
400400
C00420
C00420
400420
400420
400C20
600820
201820
301020
182020
F87C30
ENDCHAR
STARTCHAR 1FFD
ENCODING 8189
SWIDTH 520 0
DWIDTH 13 0
BBX 3 5 6 14
BITMAP
60
40
40
80
80
ENDCHAR
STARTCHAR 1FFE
ENCODING 8190
SWIDTH 520 0
DWIDTH 13 0
BBX 3 4 5 15
BITMAP
60
80
80
40
ENDCHAR
STARTCHAR 2007
ENCODING 8199
SWIDTH 480 0
DWIDTH 12 0
BBX 0 0 0 0
BITMAP
ENDCHAR
STARTCHAR 2012
ENCODING 8210
SWIDTH 480 0
DWIDTH 12 0
BBX 10 1 1 6
BITMAP
FFC0
ENDCHAR
STARTCHAR 2013
ENCODING 8211
SWIDTH 480 0
DWIDTH 12 0
BBX 10 1 1 6
BITMAP
FFC0
ENDCHAR
STARTCHAR 2014
ENCODING 8212
SWIDTH 800 0
DWIDTH 20 0
BBX 18 1 1 6
BITMAP
FFFFC0
ENDCHAR
STARTCHAR 2015
ENCODING 8213
SWIDTH 800 0
DWIDTH 20 0
BBX 18 1 1 6
BITMAP
FFFFC0
ENDCHAR
STARTCHAR 2016
ENCODING 8214
SWIDTH 360 0
DWIDTH 9 0
BBX 4 25 2 -6
BITMAP
80
90
90
90
90
90
90
90
90
90
90
90
90
90
90
90
90
90
90
90
90
90
90
90
90
ENDCHAR
STARTCHAR 2018
ENCODING 8216
SWIDTH 200 0
DWIDTH 5 0
BBX 3 6 1 12
BITMAP
20
40
40
80
C0
40
ENDCHAR
STARTCHAR 2019
ENCODING 8217
SWIDTH 200 0
DWIDTH 5 0
BBX 2 5 2 12
BITMAP
C0
C0
40
40
80
ENDCHAR
STARTCHAR 201A
ENCODING 8218
SWIDTH 200 0
DWIDTH 5 0
BBX 2 5 2 -4
BITMAP
C0
C0
40
40
80
ENDCHAR
STARTCHAR 201C
ENCODING 8220
SWIDTH 360 0
DWIDTH 9 0
BBX 6 6 1 12
BITMAP
20
44
48
88
CC
4C
ENDCHAR
STARTCHAR 201D
ENCODING 8221
SWIDTH 360 0
DWIDTH 9 0
BBX 6 6 2 12
BITMAP
C8
CC
44
48
88
10
ENDCHAR
STARTCHAR 201E
ENCODING 8222
SWIDTH 360 0
DWIDTH 9 0
BBX 6 6 2 -4
BITMAP
C8
CC
44
48
88
10
ENDCHAR
STARTCHAR 2020
ENCODING 8224
SWIDTH 440 0
DWIDTH 11 0
BBX 8 20 1 -2
BITMAP
08
08
08
08
FF
08
08
08
08
08
08
08
08
08
08
08
08
08
08
08
ENDCHAR
STARTCHAR 2021
ENCODING 8225
SWIDTH 440 0
DWIDTH 11 0
BBX 8 20 1 -2
BITMAP
08
08
08
08
FF
08
08
08
08
08
08
08
08
08
08
FF
08
08
08
08
ENDCHAR
STARTCHAR 2022
ENCODING 8226
SWIDTH 280 0
DWIDTH 7 0
BBX 5 5 1 4
BITMAP
70
F8
F8
F8
70
ENDCHAR
STARTCHAR 2026
ENCODING 8230
SWIDTH 920 0
DWIDTH 23 0
BBX 19 2 3 0
BITMAP
C0C060
C0C040
ENDCHAR
STARTCHAR 202F
ENCODING 8239
SWIDTH 120 0
DWIDTH 3 0
BBX 0 0 0 0
BITMAP
ENDCHAR
STARTCHAR 2030
ENCODING 8240
SWIDTH 1160 0
DWIDTH 29 0
BBX 27 17 1 0
BITMAP
38040000
44080000
82080000
82100000
82100000
82200000
82400000
82470380
44888440
38904820
01104820
01104820
02104820
02104820
04104820
04088440
08070380
ENDCHAR
STARTCHAR 2032
ENCODING 8242
SWIDTH 200 0
DWIDTH 5 0
BBX 2 5 2 12
BITMAP
40
80
80
80
80
ENDCHAR
STARTCHAR 2033
ENCODING 8243
SWIDTH 360 0
DWIDTH 9 0
BBX 5 5 2 12
BITMAP
48
88
88
88
90
ENDCHAR
STARTCHAR 2035
ENCODING 8245
SWIDTH 200 0
DWIDTH 5 0
BBX 1 5 2 12
BITMAP
80
80
80
80
80
ENDCHAR
STARTCHAR 2039
ENCODING 8249
SWIDTH 240 0
DWIDTH 6 0
BBX 4 9 1 2
BITMAP
10
20
60
40
80
C0
60
20
10
ENDCHAR
STARTCHAR 203A
ENCODING 8250
SWIDTH 240 0
DWIDTH 6 0
BBX 4 9 1 2
BITMAP
80
40
20
10
10
10
20
40
80
ENDCHAR
STARTCHAR 203C
ENCODING 8252
SWIDTH 520 0
DWIDTH 13 0
BBX 9 17 2 0
BITMAP
4100
4100
4100
4100
4100
4100
4100
4100
4100
4100
4100
4100
0000
0000
0000
C180
C100
ENDCHAR
STARTCHAR 203D
ENCODING 8253
SWIDTH 400 0
DWIDTH 10 0
BBX 8 17 1 0
BITMAP
3C
C2
83
11
11
13
12
14
18
18
10
10
10
00
00
18
18
ENDCHAR
STARTCHAR 203E
ENCODING 8254
SWIDTH 520 0
DWIDTH 13 0
BBX 12 1 0 14
BITMAP
FFF0
ENDCHAR
STARTCHAR 203F
ENCODING 8255
SWIDTH 0 0
DWIDTH 0 0
BBX 22 4 -11 -6
BITMAP
800004
600018
1C00E0
03FF00
ENDCHAR
STARTCHAR 2044
ENCODING 8260
SWIDTH 80 0
DWIDTH 2 0
BBX 10 17 -4 0
BITMAP
0040
0080
0080
0100
0100
0200
0400
0400
0800
0800
1000
1000
2000
2000
4000
4000
8000
ENDCHAR
STARTCHAR 2047
ENCODING 8263
SWIDTH 800 0
DWIDTH 20 0
BBX 17 17 1 0
BITMAP
3C1E00
C22180
030080
010080
010080
020080
020100
040200
080200
080400
100400
100800
000000
000000
000000
180C00
180C00
ENDCHAR
STARTCHAR 2048
ENCODING 8264
SWIDTH 640 0
DWIDTH 16 0
BBX 13 17 1 0
BITMAP
3C10
C210
0310
0110
0110
0210
0210
0410
0810
0810
1010
1010
0000
0000
0000
1818
1818
ENDCHAR
STARTCHAR 2049
ENCODING 8265
SWIDTH 640 0
DWIDTH 16 0
BBX 13 17 2 0
BITMAP
41E0
4630
4418
4018
4018
4010
4030
4020
4040
40C0
4080
4080
4000
0000
0000
C0C0
C080
ENDCHAR
STARTCHAR 2070
ENCODING 8304
SWIDTH 360 0
DWIDTH 9 0
BBX 7 10 1 10
BITMAP
38
44
82
82
82
82
82
82
44
38
ENDCHAR
STARTCHAR 2071
ENCODING 8305
SWIDTH 160 0
DWIDTH 4 0
BBX 2 11 1 11
BITMAP
C0
00
00
80
80
80
80
80
80
80
80
ENDCHAR
STARTCHAR 2074
ENCODING 8308
SWIDTH 360 0
DWIDTH 9 0
BBX 7 9 1 10
BITMAP
08
18
18
28
48
48
FE
08
08
ENDCHAR
STARTCHAR 2075
ENCODING 8309
SWIDTH 360 0
DWIDTH 9 0
BBX 7 10 1 10
BITMAP
7C
40
40
7C
44
02
02
02
C4
38
ENDCHAR
STARTCHAR 2076
ENCODING 8310
SWIDTH 360 0
DWIDTH 9 0
BBX 7 10 1 10
BITMAP
3C
60
40
80
BC
C6
82
42
46
3C
ENDCHAR
STARTCHAR 2077
ENCODING 8311
SWIDTH 360 0
DWIDTH 9 0
BBX 7 10 1 10
BITMAP
FE
04
04
08
08
10
10
10
10
10
ENDCHAR
STARTCHAR 2078
ENCODING 8312
SWIDTH 360 0
DWIDTH 9 0
BBX 7 10 1 10
BITMAP
38
44
44
44
38
4C
82
82
44
78
ENDCHAR
STARTCHAR 2079
ENCODING 8313
SWIDTH 360 0
DWIDTH 9 0
BBX 7 10 1 10
BITMAP
78
84
84
82
C6
7A
02
04
0C
78
ENDCHAR
STARTCHAR 207D
ENCODING 8317
SWIDTH 200 0
DWIDTH 5 0
BBX 2 13 2 8
BITMAP
40
40
80
80
80
80
80
80
80
80
80
40
40
ENDCHAR
STARTCHAR 207E
ENCODING 8318
SWIDTH 200 0
DWIDTH 5 0
BBX 3 13 1 8
BITMAP
80
40
40
20
20
20
20
20
20
40
40
40
80
ENDCHAR
STARTCHAR 207F
ENCODING 8319
SWIDTH 360 0
DWIDTH 9 0
BBX 7 8 1 10
BITMAP
BC
C4
82
82
82
82
82
82
ENDCHAR
STARTCHAR 2080
ENCODING 8320
SWIDTH 360 0
DWIDTH 9 0
BBX 7 11 1 -5
BITMAP
38
44
42
82
82
82
82
82
C2
44
38
ENDCHAR
STARTCHAR 2081
ENCODING 8321
SWIDTH 360 0
DWIDTH 9 0
BBX 3 10 2 -4
BITMAP
20
E0
20
20
20
20
20
20
20
20
ENDCHAR
STARTCHAR 2082
ENCODING 8322
SWIDTH 360 0
DWIDTH 9 0
BBX 7 10 1 -4
BITMAP
38
CC
04
04
04
08
18
30
60
FE
ENDCHAR
STARTCHAR 2083
ENCODING 8323
SWIDTH 360 0
DWIDTH 9 0
BBX 7 11 1 -5
BITMAP
38
44
04
04
0C
38
04
02
82
C4
38
ENDCHAR
STARTCHAR 2084
ENCODING 8324
SWIDTH 360 0
DWIDTH 9 0
BBX 7 9 1 -5
BITMAP
08
18
18
28
48
48
FE
08
08
ENDCHAR
STARTCHAR 2085
ENCODING 8325
SWIDTH 360 0
DWIDTH 9 0
BBX 7 10 1 -5
BITMAP
7C
40
40
7C
44
02
02
02
C4
38
ENDCHAR
STARTCHAR 2086
ENCODING 8326
SWIDTH 360 0
DWIDTH 9 0
BBX 7 11 1 -5
BITMAP
1C
60
40
40
B8
C4
82
82
42
44
38
ENDCHAR
STARTCHAR 2087
ENCODING 8327
SWIDTH 360 0
DWIDTH 9 0
BBX 7 10 1 -4
BITMAP
FE
04
04
08
08
10
10
10
10
10
ENDCHAR
STARTCHAR 2088
ENCODING 8328
SWIDTH 360 0
DWIDTH 9 0
BBX 7 11 1 -5
BITMAP
38
44
44
44
64
38
44
82
82
44
38
ENDCHAR
STARTCHAR 2089
ENCODING 8329
SWIDTH 360 0
DWIDTH 9 0
BBX 7 11 1 -5
BITMAP
38
4C
84
82
82
46
3A
04
04
08
70
ENDCHAR
STARTCHAR 208D
ENCODING 8333
SWIDTH 200 0
DWIDTH 5 0
BBX 2 13 2 -6
BITMAP
40
40
80
80
80
80
80
80
80
80
80
40
40
ENDCHAR
STARTCHAR 208E
ENCODING 8334
SWIDTH 200 0
DWIDTH 5 0
BBX 3 13 1 -6
BITMAP
80
40
40
20
20
20
20
20
20
40
40
40
80
ENDCHAR
STARTCHAR 2094
ENCODING 8340
SWIDTH 320 0
DWIDTH 8 0
BBX 6 8 1 10
BITMAP
78
04
04
FC
84
84
CC
30
ENDCHAR
STARTCHAR 20A1
ENCODING 8353
SWIDTH 480 0
DWIDTH 12 0
BBX 9 20 2 -2
BITMAP
0900
0A00
1E00
2B80
4A80
4A00
9200
9200
9200
9400
9400
9400
9400
9400
E400
6480
2580
3E00
2800
2800
ENDCHAR
STARTCHAR 20A4
ENCODING 8356
SWIDTH 480 0
DWIDTH 12 0
BBX 10 16 1 0
BITMAP
0F00
1080
2000
2000
2000
2000
2000
FF00
1000
FF00
1000
1000
1000
2000
2000
FFC0
ENDCHAR
STARTCHAR 20A6
ENCODING 8358
SWIDTH 480 0
DWIDTH 12 0
BBX 11 16 0 0
BITMAP
3040
3040
2840
2840
2840
2440
FFE0
2440
2240
FFE0
2240
2140
2140
2140
20C0
20C0
ENDCHAR
STARTCHAR 20A7
ENCODING 8359
SWIDTH 480 0
DWIDTH 12 0
BBX 12 16 0 0
BITMAP
3F00
2180
20C0
2040
FFF0
2040
20C0
2180
3E00
2000
2000
2000
2000
2000
2000
2000
ENDCHAR
STARTCHAR 20A9
ENCODING 8361
SWIDTH 480 0
DWIDTH 12 0
BBX 12 16 0 0
BITMAP
C010
4620
4620
4620
4620
4A20
4920
FFF0
2940
2940
2940
2940
3140
30C0
30C0
10C0
ENDCHAR
STARTCHAR 20AB
ENCODING 8363
SWIDTH 480 0
DWIDTH 12 0
BBX 10 17 2 0
BITMAP
0100
0100
1FC0
0100
0100
3D00
4300
8100
8100
8100
8100
8100
4700
3900
0000
0000
FF00
ENDCHAR
STARTCHAR 20AC
ENCODING 8364
SWIDTH 480 0
DWIDTH 12 0
BBX 11 16 1 0
BITMAP
0780
1840
3000
2000
2000
6000
FF80
4000
4000
FF00
6000
2000
2000
3020
1840
0780
ENDCHAR
STARTCHAR 20AE
ENCODING 8366
SWIDTH 480 0
DWIDTH 12 0
BBX 10 16 1 0
BITMAP
FFC0
0C00
0C00
0C00
0C80
0F00
0C00
3C80
4F00
0C00
3C00
4C00
0C00
0C00
0C00
0C00
ENDCHAR
STARTCHAR 20B1
ENCODING 8369
SWIDTH 480 0
DWIDTH 12 0
BBX 12 16 0 0
BITMAP
3F00
2180
20C0
FFF0
2040
FFF0
20C0
2180
3E00
2000
2000
2000
2000
2000
2000
2000
ENDCHAR
STARTCHAR 20B2
ENCODING 8370
SWIDTH 480 0
DWIDTH 12 0
BBX 10 20 1 -2
BITMAP
0400
0400
0F00
10C0
2000
4000
4000
4000
C000
C000
C3C0
C040
4040
4040
4040
2040
30C0
0F00
0400
0400
ENDCHAR
STARTCHAR 20B4
ENCODING 8372
SWIDTH 480 0
DWIDTH 12 0
BBX 10 16 1 0
BITMAP
1E00
6100
0180
0080
0180
0100
FFC0
0C00
1800
FFC0
2000
4000
4000
6000
2080
1F00
ENDCHAR
STARTCHAR 20B5
ENCODING 8373
SWIDTH 480 0
DWIDTH 12 0
BBX 9 20 2 -2
BITMAP
0400
0400
1F00
3580
4400
C400
8400
8400
8400
8400
8400
8400
8400
8400
C400
4480
2580
1E00
0400
0400
ENDCHAR
STARTCHAR 20B8
ENCODING 8376
SWIDTH 480 0
DWIDTH 12 0
BBX 10 16 1 0
BITMAP
FFC0
0000
0000
FFC0
0C00
0C00
0C00
0C00
0C00
0C00
0C00
0C00
0C00
0C00
0C00
0C00
ENDCHAR
STARTCHAR 20B9
ENCODING 8377
SWIDTH 480 0
DWIDTH 12 0
BBX 9 16 2 0
BITMAP
FF80
0600
0200
FF80
0200
0200
0200
0C00
F800
3000
1000
0800
0C00
0400
0200
0300
ENDCHAR
STARTCHAR 20BA
ENCODING 8378
SWIDTH 480 0
DWIDTH 12 0
BBX 10 16 1 0
BITMAP
2000
2000
2100
2600
3800
6100
A600
3800
6000
A040
2040
2040
20C0
2080
2300
3C00
ENDCHAR
STARTCHAR 20BD
ENCODING 8381
SWIDTH 480 0
DWIDTH 12 0
BBX 10 16 0 0
BITMAP
3F00
2180
20C0
2040
2040
2040
20C0
2180
FE00
2000
2000
FF80
2000
2000
2000
2000
ENDCHAR
STARTCHAR 2113
ENCODING 8467
SWIDTH 360 0
DWIDTH 9 0
BBX 8 18 1 0
BITMAP
1C
32
22
22
22
22
22
24
24
28
38
30
60
E0
20
20
31
1E
ENDCHAR
STARTCHAR 2116
ENCODING 8470
SWIDTH 840 0
DWIDTH 21 0
BBX 19 16 2 0
BITMAP
C04000
C08380
A08C40
A08820
908820
908820
C88820
C88C40
C48380
848000
828000
828FC0
828000
818000
818000
808000
ENDCHAR
STARTCHAR 2117
ENCODING 8471
SWIDTH 720 0
DWIDTH 18 0
BBX 16 17 1 0
BITMAP
03C0
0C38
1004
2002
43E2
4211
8211
8211
8211
83E1
8201
4201
4202
2002
3004
0818
07E0
ENDCHAR
STARTCHAR 2120
ENCODING 8480
SWIDTH 600 0
DWIDTH 15 0
BBX 13 8 1 9
BITMAP
7108
8198
8198
6198
1168
0968
8908
7100
ENDCHAR
STARTCHAR 2122
ENCODING 8482
SWIDTH 600 0
DWIDTH 15 0
BBX 14 7 0 10
BITMAP
FC84
114C
10CC
10CC
10B4
10B4
1084
ENDCHAR
STARTCHAR 2126
ENCODING 8486
SWIDTH 640 0
DWIDTH 16 0
BBX 14 17 1 0
BITMAP
07C0
1860
3010
2008
4008
400C
4004
C004
C004
4004
4004
400C
6008
2018
3010
1820
F87C
ENDCHAR
STARTCHAR 212E
ENCODING 8494
SWIDTH 800 0
DWIDTH 20 0
BBX 18 17 1 0
BITMAP
03F000
0C0C00
100200
200100
600180
600180
E001C0
E001C0
FFFE00
E00000
E00000
600000
600000
200000
100300
0C0C00
03F000
ENDCHAR
STARTCHAR 2150
ENCODING 8528
SWIDTH 800 0
DWIDTH 20 0
BBX 16 17 2 0
BITMAP
6020
E020
2040
2040
2080
2080
2100
213F
2201
2202
0404
0404
0804
0808
1008
2008
2008
ENDCHAR
STARTCHAR 2151
ENCODING 8529
SWIDTH 800 0
DWIDTH 20 0
BBX 16 17 2 0
BITMAP
6010
E020
2020
2040
2040
2080
210C
2133
2221
2221
0421
0421
081F
0801
1001
1002
203C
ENDCHAR
STARTCHAR 2152
ENCODING 8530
SWIDTH 1040 0
DWIDTH 26 0
BBX 23 17 2 0
BITMAP
601000
E02000
202000
204000
204000
208000
210018
210864
223842
220842
040882
040882
080882
080882
100842
100846
20003C
ENDCHAR
STARTCHAR 2153
ENCODING 8531
SWIDTH 800 0
DWIDTH 20 0
BBX 16 17 2 0
BITMAP
6020
E020
2040
2040
2080
2080
210C
2133
2201
2201
0402
040C
0803
0801
1001
2021
201E
ENDCHAR
STARTCHAR 2154
ENCODING 8532
SWIDTH 800 0
DWIDTH 20 0
BBX 18 17 1 0
BITMAP
380400
C40800
040800
041000
041000
082000
082000
104700
604880
FE8080
010080
010700
020080
020040
040040
041880
080700
ENDCHAR
ENDFONT
